0
SECTION
2
HEADER
9
$INSUNITS
70
4
9
$ACADVER
1
AC1014
9
$HANDSEED
5
FFFF
0
ENDSEC
0
SECTION
2
TABLES
0
TABLE
2
VPORT
5
8
100
AcDbSymbolTable
0
ENDTAB
0
TABLE
2
LTYPE
5
5
100
AcDbSymbolTable
0
LTYPE
5
14
100
AcDbSymbolTableRecord
100
AcDbLinetypeTableRecord
2
BYBLOCK
70
0
0
LTYPE
5
15
100
AcDbSymbolTableRecord
100
AcDbLinetypeTableRecord
2
BYLAYER
70
0
0
ENDTAB
0
TABLE
2
LAYER
5
2
100
AcDbSymbolTable
70
2
0
LAYER
5
50
100
AcDbSymbolTableRecord
100
AcDbLayerTableRecord
2
0
70
0
6
CONTINUOUS
0
ENDTAB
0
TABLE
2
STYLE
5
3
100
AcDbSymbolTable
70
1
0
STYLE
5
11
100
AcDbSymbolTableRecord
100
AcDbTextStyleTableRecord
2
STANDARD
70
0
0
ENDTAB
0
TABLE
2
VIEW
5
6
100
AcDbSymbolTable
70
0
0
ENDTAB
0
TABLE
2
UCS
5
7
100
AcDbSymbolTable
70
0
0
ENDTAB
0
TABLE
2
APPID
5
9
100
AcDbSymbolTable
70
2
0
APPID
5
12
100
AcDbSymbolTableRecord
100
AcDbRegAppTableRecord
2
ACAD
70
0
0
ENDTAB
0
TABLE
2
DIMSTYLE
5
A
100
AcDbSymbolTable
70
1
0
ENDTAB
0
TABLE
2
BLOCK_RECORD
5
1
100
AcDbSymbolTable
70
1
0
BLOCK_RECORD
5
1F
100
AcDbSymbolTableRecord
100
AcDbBlockTableRecord
2
*MODEL_SPACE
0
BLOCK_RECORD
5
1B
100
AcDbSymbolTableRecord
100
AcDbBlockTableRecord
2
*PAPER_SPACE
0
ENDTAB
0
ENDSEC
0
SECTION
2
BLOCKS
0
BLOCK
5
20
100
AcDbEntity
100
AcDbBlockBegin
2
*MODEL_SPACE
0
ENDBLK
5
21
100
AcDbEntity
100
AcDbBlockEnd
0
BLOCK
5
1C
100
AcDbEntity
100
AcDbBlockBegin
2
*PAPER_SPACE
0
ENDBLK
5
1D
100
AcDbEntity
100
AcDbBlockEnd
0
ENDSEC
0
SECTION
2
ENTITIES
0
LWPOLYLINE
5
100
100
AcDbEntity
8
0
100
AcDbPolyline
90
23
70
1
43
0.0
10
16.101024676944242
20
3.7043279536717355
10
2.1540485884025427
20
17.609103018608693
42
0.19570307466006939
10
10.477409078276882
20
38.698288747557505
10
11.624576305582639
20
88.666266469009386
42
0.034756232004316247
10
10.653544828814889
20
99.972926402102132
42
0.17145084862050744
10
9.0718846165505234
20
102.9045752711055
42
-0.073458056260582258
10
5.4307222006461986
20
107.33701141272363
42
-0.24128141142195705
10
5.1229755273584567
20
111.88676644173921
42
0.20873405590375374
10
5.0619637147921459
20
122.81337782883242
42
-0.24128141142195494
10
5.3188831049479646
20
127.36628582987251
42
-0.063530136378281005
10
8.351986578845219
20
131.30054883647142
42
-0.34426091744717696
10
9.5736643832284223
20
131.4528535083935
42
0.27641240026592112
10
22.29084761952798
20
131.45641855909557
42
-0.34433602992688689
10
23.512800310103788
20
131.30460868151363
42
-0.063603445921560517
10
26.549950737642614
20
127.36628582987251
42
-0.24128141142195483
10
26.806870127798447
20
122.81337782883242
42
0.20873405590375571
10
26.74585831523213
20
111.88676644173921
42
-0.24128141142195472
10
26.438111641944385
20
107.33701141272361
42
-0.07345805626058538
10
22.796949226040027
20
102.9045752711055
42
0.17145084862051224
10
21.21528901377566
20
99.972926402102189
42
0.034756232004315026
10
20.244257537007915
20
88.666266469009315
10
22.134654239795832
20
38.781701999474272
42
0.1890240743653509
10
30.393066465185754
20
18.039746120894364
0
CIRCLE
5
101
100
AcDbEntity
8
0
100
AcDbCircle
10
15.929277962744102
20
117.2801823257749
30
0
40
3.75
0
CIRCLE
5
102
100
AcDbEntity
8
0
100
AcDbCircle
10
10.26370799736487
20
122.9283074100301
30
0
40
1.6500000000000015
0
CIRCLE
5
103
100
AcDbEntity
8
0
100
AcDbCircle
10
21.577403046999311
20
122.94575229115421
30
0
40
1.6499999999999992
0
CIRCLE
5
104
100
AcDbEntity
8
0
100
AcDbCircle
10
10.281152878488943
20
111.6146123603958
30
0
40
1.6499999999999992
0
CIRCLE
5
105
100
AcDbEntity
8
0
100
AcDbCircle
10
21.594847928123389
20
111.63205724151972
30
0
40
1.6499999999999992
0
CIRCLE
5
106
100
AcDbEntity
8
0
100
AcDbCircle
10
16.06834672559669
20
25.271060023030145
30
0
40
1.6000000000000014
0
CIRCLE
5
107
100
AcDbEntity
8
0
100
AcDbCircle
10
16.087096369812521
20
12.896705557004841
30
0
40
1.6000000000000014
0
ENDSEC
0
SECTION
2
OBJECTS
0
DICTIONARY
5
C
100
AcDbDictionary
3
ACAD_GROUP
350
D
3
ACAD_MLINESTYLE
350
17
0
DICTIONARY
5
D
100
AcDbDictionary
0
DICTIONARY
5
1A
330
C
100
AcDbDictionary
0
DICTIONARY
5
17
100
AcDbDictionary
0
ENDSEC
0
EOF
