0
SECTION
2
HEADER
9
$INSUNITS
70
4
9
$ACADVER
1
AC1014
9
$HANDSEED
5
FFFF
0
ENDSEC
0
SECTION
2
TABLES
0
TABLE
2
VPORT
5
8
100
AcDbSymbolTable
0
ENDTAB
0
TABLE
2
LTYPE
5
5
100
AcDbSymbolTable
0
LTYPE
5
14
100
AcDbSymbolTableRecord
100
AcDbLinetypeTableRecord
2
BYBLOCK
70
0
0
LTYPE
5
15
100
AcDbSymbolTableRecord
100
AcDbLinetypeTableRecord
2
BYLAYER
70
0
0
ENDTAB
0
TABLE
2
LAYER
5
2
100
AcDbSymbolTable
70
2
0
LAYER
5
50
100
AcDbSymbolTableRecord
100
AcDbLayerTableRecord
2
0
70
0
6
CONTINUOUS
0
ENDTAB
0
TABLE
2
STYLE
5
3
100
AcDbSymbolTable
70
1
0
STYLE
5
11
100
AcDbSymbolTableRecord
100
AcDbTextStyleTableRecord
2
STANDARD
70
0
0
ENDTAB
0
TABLE
2
VIEW
5
6
100
AcDbSymbolTable
70
0
0
ENDTAB
0
TABLE
2
UCS
5
7
100
AcDbSymbolTable
70
0
0
ENDTAB
0
TABLE
2
APPID
5
9
100
AcDbSymbolTable
70
2
0
APPID
5
12
100
AcDbSymbolTableRecord
100
AcDbRegAppTableRecord
2
ACAD
70
0
0
ENDTAB
0
TABLE
2
DIMSTYLE
5
A
100
AcDbSymbolTable
70
1
0
ENDTAB
0
TABLE
2
BLOCK_RECORD
5
1
100
AcDbSymbolTable
70
1
0
BLOCK_RECORD
5
1F
100
AcDbSymbolTableRecord
100
AcDbBlockTableRecord
2
*MODEL_SPACE
0
BLOCK_RECORD
5
1B
100
AcDbSymbolTableRecord
100
AcDbBlockTableRecord
2
*PAPER_SPACE
0
ENDTAB
0
ENDSEC
0
SECTION
2
BLOCKS
0
BLOCK
5
20
100
AcDbEntity
100
AcDbBlockBegin
2
*MODEL_SPACE
0
ENDBLK
5
21
100
AcDbEntity
100
AcDbBlockEnd
0
BLOCK
5
1C
100
AcDbEntity
100
AcDbBlockBegin
2
*PAPER_SPACE
0
ENDBLK
5
1D
100
AcDbEntity
100
AcDbBlockEnd
0
ENDSEC
0
SECTION
2
ENTITIES
0
LWPOLYLINE
5
100
100
AcDbEntity
8
0
100
AcDbPolyline
90
8
70
1
43
0.0
10
180.31288992895543
20
108.12832487603879
42
-0.41421356237309243
10
176.31288992895546
20
112.12832487603882
10
176.31288992895543
20
117.92595500138401
42
-0.41421356237310675
10
180.31288992895543
20
121.9259550013841
10
186.2722892613651
20
121.92595500138412
42
-0.41421356237308721
10
190.27228926136513
20
117.92595500138401
10
190.27228926136507
20
112.12832487603882
42
-0.41421356237310025
10
186.2722892613651
20
108.12832487603882
0
LWPOLYLINE
5
101
100
AcDbEntity
8
0
100
AcDbPolyline
90
8
70
1
43
0.0
10
172.69349423723352
20
118.8636880104535
42
0.41421356237313667
10
172.19349423723349
20
118.3636880104535
10
172.19349423723349
20
115.47426228639452
42
0.41421356237314705
10
172.69349423723352
20
114.97426228639452
10
173.77651306719397
20
114.97426228639452
42
0.41421356237313667
10
174.27651306719397
20
115.47426228639452
10
174.27651306719397
20
118.3636880104535
42
0.41421356237314705
10
173.77651306719397
20
118.8636880104535
0
LWPOLYLINE
5
102
100
AcDbEntity
8
0
100
AcDbPolyline
90
8
70
1
43
0.0
10
192.95558140202971
20
134.09548500096275
42
0.41421356237311585
10
192.45558140202971
20
133.59548500096278
10
192.45558140202974
20
130.7060592769038
42
0.4142135623730534
10
192.95558140202971
20
130.2060592769038
10
194.03860023199024
20
130.2060592769038
42
0.4142135623730534
10
194.53860023199024
20
130.7060592769038
10
194.53860023199024
20
133.59548500096278
42
0.41421356237304302
10
194.03860023199024
20
134.09548500096278
0
LWPOLYLINE
5
103
100
AcDbEntity
8
0
100
AcDbPolyline
90
8
70
1
43
0.0
10
172.69349423723349
20
134.09548500096278
42
0.41421356237310542
10
172.19349423723349
20
133.59548500096278
10
172.19349423723349
20
130.7060592769038
42
0.41421356237313667
10
172.69349423723352
20
130.2060592769038
10
173.77651306719395
20
130.2060592769038
42
0.41421356237304302
10
174.27651306719397
20
130.7060592769038
10
174.27651306719397
20
133.59548500096278
42
0.41421356237312623
10
173.77651306719397
20
134.09548500096278
0
LWPOLYLINE
5
104
100
AcDbEntity
8
0
100
AcDbPolyline
90
8
70
1
43
0.0
10
192.95558140202971
20
118.86368801045352
42
0.41421356237310542
10
192.45558140202971
20
118.3636880104535
10
192.45558140202974
20
115.47426228639452
42
0.41421356237310542
10
192.95558140202971
20
114.97426228639452
10
194.03860023199024
20
114.97426228639449
42
0.41421356237310542
10
194.53860023199024
20
115.47426228639452
10
194.53860023199019
20
118.3636880104535
42
0.41421356237310542
10
194.03860023199024
20
118.8636880104535
0
LWPOLYLINE
5
105
100
AcDbEntity
8
0
100
AcDbPolyline
90
8
70
1
43
0.0
10
180.38634756840702
20
127.14379228597332
42
-0.41421356237309115
10
176.38634756840699
20
131.14379228597329
10
176.38634756840699
20
136.94142241131851
42
-0.41421356237310281
10
180.38634756840702
20
140.94142241131848
10
186.34574690081672
20
140.94142241131851
42
-0.41421356237309631
10
190.34574690081669
20
136.94142241131851
10
190.34574690081669
20
131.14379228597329
42
-0.41421356237309631
10
186.34574690081672
20
127.1437922859733
0
LWPOLYLINE
5
106
100
AcDbEntity
8
0
100
AcDbPolyline
90
26
70
1
43
0.0
10
200.32048745042044
20
230.18310333398432
42
0.41421356237309159
10
197.32048745042044
20
233.18310333398429
10
169.26469173990012
20
233.18310333398429
42
0.41421356237309853
10
166.26469173990012
20
230.18310333398432
10
166.3014205596258
20
203.802750819892
42
-0.19005382123531189
10
163.08662411531284
20
196.71086472597949
10
154.9669928294137
20
189.02801260995437
42
0.41172354187087995
10
154.92209719301681
20
187.62054441936664
42
-0.18074970554608955
10
163.0866241153127
20
167.84922122278243
42
-0.18074970554608749
10
154.92209719301667
20
148.07789802619882
42
0.41172354187088378
10
154.96699282941358
20
146.67042983561112
10
163.0866241153127
20
138.987577719586
42
-0.19005382123531844
10
166.30142055962568
20
131.89569162567341
10
166.30142055962565
20
106.74735591999941
42
0.41947879960780365
10
171.53004923323192
20
101.19016914801621
10
195.1285875965402
20
101.19016914801621
42
0.41947879960780854
10
200.35721627014641
20
106.74735591999941
10
200.35721627014641
20
131.89569162567341
42
-0.19005382123531708
10
203.57201271445945
20
138.987577719586
10
211.69164400035862
20
146.67042983561112
42
0.41172354187085458
10
211.73653963675548
20
148.0778980261988
42
-0.18074970554608816
10
203.57201271445948
20
167.84922122278243
42
-0.1807497055460916
10
211.73653963675531
20
187.62054441936664
42
0.4117235418709132
10
211.69164400035839
20
189.02801260995443
10
203.57201271445931
20
196.71086472597946
42
-0.19005382123531939
10
200.3572162701463
20
203.802750819892
0
LWPOLYLINE
5
107
100
AcDbEntity
8
0
100
AcDbPolyline
90
8
70
1
43
0.0
10
186.30901808109013
20
207.75468759059521
42
-0.41421356237309243
10
190.3090180810901
20
203.75468759059518
10
190.3090180810901
20
197.9570574652499
42
-0.41421356237309503
10
186.30901808109013
20
193.95705746524993
10
180.34961874868043
20
193.95705746524993
42
-0.41421356237309503
10
176.34961874868031
20
197.95705746525002
10
176.34961874868037
20
203.75468759059518
42
-0.41421356237310281
10
180.34961874868043
20
207.75468759059521
0
LWPOLYLINE
5
108
100
AcDbEntity
8
0
100
AcDbPolyline
90
8
70
1
43
0.0
10
186.38247572054161
20
226.7701550005296
42
-0.41421356237309503
10
190.38247572054161
20
222.7701550005296
10
190.38247572054161
20
216.9725248751844
42
-0.41421356237309503
10
186.38247572054161
20
212.97252487518443
10
180.4230763881319
20
212.97252487518438
42
-0.41421356237308982
10
176.4230763881319
20
216.97252487518455
10
176.42307638813193
20
222.77015500052968
42
-0.41421356237309503
10
180.4230763881319
20
226.7701550005296
0
LWPOLYLINE
5
109
100
AcDbEntity
8
0
100
AcDbPolyline
90
8
70
1
43
0.0
10
194.0018714122636
20
216.03479186611503
42
0.41421356237311585
10
194.50187141226363
20
216.53479186611492
10
194.50187141226363
20
219.42421759017401
42
0.41421356237313667
10
194.0018714122636
20
219.92421759017401
10
192.91885258230303
20
219.92421759017401
42
0.41421356237313667
10
192.418852582303
20
219.42421759017401
10
192.418852582303
20
216.53479186611492
42
0.41421356237307422
10
192.91885258230303
20
216.03479186611503
0
LWPOLYLINE
5
110
100
AcDbEntity
8
0
100
AcDbPolyline
90
8
70
1
43
0.0
10
173.73978424746741
20
200.80299487560558
42
0.4142135623731783
10
174.23978424746741
20
201.30299487560561
10
174.23978424746741
20
204.19242059966473
42
0.41421356237313667
10
173.73978424746741
20
204.69242059966473
10
172.65676541750682
20
204.69242059966473
42
0.4142135623730534
10
172.15676541750682
20
204.19242059966473
10
172.15676541750682
20
201.30299487560561
42
0.4142135623731783
10
172.65676541750682
20
200.80299487560558
0
LWPOLYLINE
5
111
100
AcDbEntity
8
0
100
AcDbPolyline
90
8
70
1
43
0.0
10
194.0018714122636
20
200.80299487560558
42
0.41421356237313667
10
194.50187141226363
20
201.30299487560561
10
194.50187141226363
20
204.19242059966464
42
0.41421356237313667
10
194.0018714122636
20
204.69242059966473
10
192.91885258230303
20
204.69242059966473
42
0.41421356237313667
10
192.418852582303
20
204.19242059966464
10
192.418852582303
20
201.30299487560561
42
0.4142135623730534
10
192.91885258230303
20
200.80299487560558
0
LWPOLYLINE
5
112
100
AcDbEntity
8
0
100
AcDbPolyline
90
8
70
1
43
0.0
10
173.73978424746741
20
216.03479186611503
42
0.4142135623731783
10
174.23978424746741
20
216.53479186611503
10
174.23978424746741
20
219.42421759017401
42
0.41421356237313667
10
173.73978424746741
20
219.92421759017401
10
172.65676541750682
20
219.92421759017401
42
0.4142135623730534
10
172.15676541750682
20
219.42421759017401
10
172.15676541750682
20
216.53479186611503
42
0.4142135623731783
10
172.65676541750682
20
216.03479186611503
0
CIRCLE
5
113
100
AcDbEntity
8
0
100
AcDbCircle
10
168.0793184148861
20
183.09922122278266
30
0
40
1.5999999999999859
0
CIRCLE
5
114
100
AcDbEntity
8
0
100
AcDbCircle
10
198.57931841488605
20
183.09922122278266
30
0
40
1.5999999999999859
0
CIRCLE
5
115
100
AcDbEntity
8
0
100
AcDbCircle
10
198.57931841488605
20
152.59922122278269
30
0
40
1.5999999999999859
0
CIRCLE
5
116
100
AcDbEntity
8
0
100
AcDbCircle
10
168.0793184148861
20
152.59922122278269
30
0
40
1.5999999999999859
0
CIRCLE
5
117
100
AcDbEntity
8
0
100
AcDbCircle
10
189.8293184148861
20
161.34922122278269
30
0
40
2.325000000000002
0
CIRCLE
5
118
100
AcDbEntity
8
0
100
AcDbCircle
10
176.82931841488602
20
161.34922122278269
30
0
40
2.325000000000002
0
CIRCLE
5
119
100
AcDbEntity
8
0
100
AcDbCircle
10
189.8293184148861
20
174.34922122278266
30
0
40
2.325000000000002
0
CIRCLE
5
120
100
AcDbEntity
8
0
100
AcDbCircle
10
176.82931841488602
20
174.34922122278266
30
0
40
2.325000000000002
0
CIRCLE
5
121
100
AcDbEntity
8
0
100
AcDbCircle
10
176.82931841488602
20
174.34922122278266
30
0
40
1.5999999999999859
0
CIRCLE
5
122
100
AcDbEntity
8
0
100
AcDbCircle
10
189.8293184148861
20
174.34922122278266
30
0
40
1.5999999999999859
0
CIRCLE
5
123
100
AcDbEntity
8
0
100
AcDbCircle
10
176.82931841488602
20
161.34922122278269
30
0
40
1.5999999999999859
0
CIRCLE
5
124
100
AcDbEntity
8
0
100
AcDbCircle
10
189.8293184148861
20
161.34922122278269
30
0
40
1.5999999999999859
0
CIRCLE
5
125
100
AcDbEntity
8
0
100
AcDbCircle
10
170.40277605433519
20
229.35320872862809
30
0
40
1.6499999999999859
0
CIRCLE
5
126
100
AcDbEntity
8
0
100
AcDbCircle
10
196.4027760543384
20
229.35320872862809
30
0
40
1.6499999999999859
0
CIRCLE
5
127
100
AcDbEntity
8
0
100
AcDbCircle
10
196.4027760543384
20
195.81901457763252
30
0
40
1.6499999999999859
0
CIRCLE
5
128
100
AcDbEntity
8
0
100
AcDbCircle
10
170.40277605433519
20
195.81901457763252
30
0
40
1.6499999999999859
0
CIRCLE
5
129
100
AcDbEntity
8
0
100
AcDbCircle
10
196.4027760543384
20
138.961280033939
30
0
40
1.6499999999999859
0
CIRCLE
5
130
100
AcDbEntity
8
0
100
AcDbCircle
10
170.40277605433519
20
138.961280033939
30
0
40
1.6499999999999859
0
CIRCLE
5
131
100
AcDbEntity
8
0
100
AcDbCircle
10
170.29258959515869
20
105.54527114794041
30
0
40
1.6499999999999859
0
CIRCLE
5
132
100
AcDbEntity
8
0
100
AcDbCircle
10
196.29258959516181
20
105.54527114794041
30
0
40
1.6499999999999859
0
ENDSEC
0
SECTION
2
OBJECTS
0
DICTIONARY
5
C
100
AcDbDictionary
3
ACAD_GROUP
350
D
3
ACAD_MLINESTYLE
350
17
0
DICTIONARY
5
D
100
AcDbDictionary
0
DICTIONARY
5
1A
330
C
100
AcDbDictionary
0
DICTIONARY
5
17
100
AcDbDictionary
0
ENDSEC
0
EOF
