0
SECTION
2
HEADER
9
$INSUNITS
70
4
9
$ACADVER
1
AC1014
9
$HANDSEED
5
FFFF
0
ENDSEC
0
SECTION
2
TABLES
0
TABLE
2
VPORT
5
8
100
AcDbSymbolTable
0
ENDTAB
0
TABLE
2
LTYPE
5
5
100
AcDbSymbolTable
0
LTYPE
5
14
100
AcDbSymbolTableRecord
100
AcDbLinetypeTableRecord
2
BYBLOCK
70
0
0
LTYPE
5
15
100
AcDbSymbolTableRecord
100
AcDbLinetypeTableRecord
2
BYLAYER
70
0
0
ENDTAB
0
TABLE
2
LAYER
5
2
100
AcDbSymbolTable
70
2
0
LAYER
5
50
100
AcDbSymbolTableRecord
100
AcDbLayerTableRecord
2
0
70
0
6
CONTINUOUS
0
ENDTAB
0
TABLE
2
STYLE
5
3
100
AcDbSymbolTable
70
1
0
STYLE
5
11
100
AcDbSymbolTableRecord
100
AcDbTextStyleTableRecord
2
STANDARD
70
0
0
ENDTAB
0
TABLE
2
VIEW
5
6
100
AcDbSymbolTable
70
0
0
ENDTAB
0
TABLE
2
UCS
5
7
100
AcDbSymbolTable
70
0
0
ENDTAB
0
TABLE
2
APPID
5
9
100
AcDbSymbolTable
70
2
0
APPID
5
12
100
AcDbSymbolTableRecord
100
AcDbRegAppTableRecord
2
ACAD
70
0
0
ENDTAB
0
TABLE
2
DIMSTYLE
5
A
100
AcDbSymbolTable
70
1
0
ENDTAB
0
TABLE
2
BLOCK_RECORD
5
1
100
AcDbSymbolTable
70
1
0
BLOCK_RECORD
5
1F
100
AcDbSymbolTableRecord
100
AcDbBlockTableRecord
2
*MODEL_SPACE
0
BLOCK_RECORD
5
1B
100
AcDbSymbolTableRecord
100
AcDbBlockTableRecord
2
*PAPER_SPACE
0
ENDTAB
0
ENDSEC
0
SECTION
2
BLOCKS
0
BLOCK
5
20
100
AcDbEntity
100
AcDbBlockBegin
2
*MODEL_SPACE
0
ENDBLK
5
21
100
AcDbEntity
100
AcDbBlockEnd
0
BLOCK
5
1C
100
AcDbEntity
100
AcDbBlockBegin
2
*PAPER_SPACE
0
ENDBLK
5
1D
100
AcDbEntity
100
AcDbBlockEnd
0
ENDSEC
0
SECTION
2
ENTITIES
0
LINE
5
100
100
AcDbEntity
8
0
100
AcDbLine
10
80.454891685649756
20
205.73797701283274
30
0
11
80.454891685649756
21
217.43366005112017
31
0
0
ARC
5
101
100
AcDbEntity
8
0
100
AcDbCircle
10
77.454891685649756
20
205.73797701283272
30
0
40
3.0000000000000071
100
AcDbArc
50
-89.999999999999744
51
0
0
LINE
5
102
100
AcDbEntity
8
0
100
AcDbLine
10
66.225287015871714
20
202.73797701283272
30
0
11
77.45489168564977
21
202.73797701283272
31
0
0
LINE
5
103
100
AcDbEntity
8
0
100
AcDbLine
10
63.225287015871714
20
217.43366005112017
30
0
11
63.225287015871714
21
205.73797701283274
31
0
0
ARC
5
104
100
AcDbEntity
8
0
100
AcDbCircle
10
66.225287015871814
20
205.73797701283283
30
0
40
3.0000000000000959
100
AcDbArc
50
180
51
269.99999999999807
0
ARC
5
105
100
AcDbEntity
8
0
100
AcDbCircle
10
60.225287015871807
20
217.43366005112023
30
0
40
2.9999999999999361
100
AcDbArc
50
0
51
89.999999999999332
0
LINE
5
106
100
AcDbEntity
8
0
100
AcDbLine
10
57.812191495500748
20
220.43366005112017
30
0
11
60.225287015871842
21
220.43366005112017
31
0
0
LINE
5
107
100
AcDbEntity
8
0
100
AcDbLine
10
54.808388434248236
20
204.65258754029534
30
0
11
54.812191495500748
21
217.43366005112017
31
0
0
ARC
5
108
100
AcDbEntity
8
0
100
AcDbCircle
10
57.812191495500784
20
217.43366005112011
30
0
40
3.0000000000000338
100
AcDbArc
50
90.000000000000696
51
180
0
ARC
5
109
100
AcDbEntity
8
0
100
AcDbCircle
10
55.556074441696133
20
203.15236437468315
30
0
40
0.75000000000460254
100
AcDbArc
50
0
51
89.822759089342568
0
ARC
5
110
100
AcDbEntity
8
0
100
AcDbCircle
10
55.558394525555826
20
204.65236690994152
30
0
40
0.75000612375916387
100
AcDbArc
50
179.98314521989559
51
269.99999927694853
0
ARC
5
111
100
AcDbEntity
8
0
100
AcDbCircle
10
55.556073663021436
20
201.15236469745093
30
0
40
0.75000077867935333
100
AcDbArc
50
270.06317559085466
51
359.99997535860751
0
LINE
5
112
100
AcDbEntity
8
0
100
AcDbLine
10
56.306074441700716
20
201.15236437468781
30
0
11
56.306074441700737
21
203.15236437468781
31
0
0
ARC
5
113
100
AcDbEntity
8
0
100
AcDbCircle
10
55.556900630262987
20
199.65236437468772
30
0
40
0.75000000000008682
100
AcDbArc
50
90.000000000003809
51
179.98295140314355
0
LINE
5
114
100
AcDbEntity
8
0
100
AcDbLine
10
54.805128302801421
20
193.69615700946767
30
0
11
54.80690066346483
21
199.65258754029534
31
0
0
ARC
5
115
100
AcDbEntity
8
0
100
AcDbCircle
10
55.556074441700709
20
192.19593384386002
30
0
40
0.75000000000002842
100
AcDbArc
50
0
51
89.99999999999838
0
ARC
5
116
100
AcDbEntity
8
0
100
AcDbCircle
10
55.555129389180429
20
193.69593436786968
30
0
40
0.75000111942515368
100
AcDbArc
50
179.9829914599427
51
270.07219660578897
0
LINE
5
117
100
AcDbEntity
8
0
100
AcDbLine
10
56.306074441700737
20
190.19593384386008
30
0
11
56.306074441700737
21
192.19593384386005
31
0
0
ARC
5
118
100
AcDbEntity
8
0
100
AcDbCircle
10
55.55607444170073
20
190.19593384386008
30
0
40
0.74999999999999289
100
AcDbArc
50
-90
51
0
0
LINE
5
119
100
AcDbEntity
8
0
100
AcDbLine
10
54.800180619337517
20
177.06831514331134
30
0
11
54.803640532017937
21
188.69615700946767
31
0
0
ARC
5
120
100
AcDbEntity
8
0
100
AcDbCircle
10
55.555318031232872
20
188.69425431712853
30
0
40
0.75167990731703982
100
AcDbArc
50
89.942343630207105
51
179.85496970705557
0
ARC
5
121
100
AcDbEntity
8
0
100
AcDbCircle
10
55.556482714663545
20
175.56804139827369
30
0
40
0.75007705505990474
100
AcDbArc
50
0.0038635868732900076
51
90.481403360706906
0
ARC
5
122
100
AcDbEntity
8
0
100
AcDbCircle
10
55.550180586135596
20
177.0680919777038
30
0
40
0.75000000000002842
100
AcDbArc
50
179.98295140316489
51
270.00000000000159
0
LINE
5
123
100
AcDbEntity
8
0
100
AcDbLine
10
56.306559768018111
20
157.06809197770377
30
0
11
56.306559768018111
21
175.56809197770374
31
0
0
ARC
5
124
100
AcDbEntity
8
0
100
AcDbCircle
10
55.54500034367593
20
155.56696256230876
30
0
40
0.75121835638036416
100
AcDbArc
50
89.118322439702695
51
179.89683795116341
0
ARC
5
125
100
AcDbEntity
8
0
100
AcDbCircle
10
55.556559768018097
20
157.0680919777038
30
0
40
0.75000000000001066
100
AcDbArc
50
270.00000000000051
51
360
0
LINE
5
126
100
AcDbEntity
8
0
100
AcDbLine
10
54.792868197742422
20
152.49322038852736
30
0
11
54.793783204968719
21
155.56831514331134
31
0
0
ARC
5
127
100
AcDbEntity
8
0
100
AcDbCircle
10
55.542632020168163
20
152.49263190299624
30
0
40
0.74976405337525054
100
AcDbArc
50
179.9550288646866
51
271.06439761736061
0
LINE
5
128
100
AcDbEntity
8
0
100
AcDbLine
10
56.306559768018111
20
132.49299722291966
30
0
11
56.306559768018111
21
150.99299722291966
31
0
0
ARC
5
129
100
AcDbEntity
8
0
100
AcDbCircle
10
55.55655976801809
20
150.99299722291963
30
0
40
0.75000000000001954
100
AcDbArc
50
0
51
89.99999999999946
0
ARC
5
130
100
AcDbEntity
8
0
100
AcDbCircle
10
55.556559768018097
20
132.49299722291968
30
0
40
0.75000000000001066
100
AcDbArc
50
270.00000000000051
51
360
0
LINE
5
131
100
AcDbEntity
8
0
100
AcDbLine
10
54.783136780660016
20
119.78852827138576
30
0
11
54.786470783373744
21
130.99322038852728
31
0
0
ARC
5
132
100
AcDbEntity
8
0
100
AcDbCircle
10
55.537236325726909
20
130.99248003305053
30
0
40
0.75076590739795401
100
AcDbArc
50
88.525140852586986
51
179.94349869831476
0
ARC
5
133
100
AcDbEntity
8
0
100
AcDbCircle
10
55.533864819323838
20
119.78869004266714
30
0
40
0.75072805609352744
100
AcDbArc
50
180.01234643043435
51
271.73234889250125
0
LINE
5
134
100
AcDbEntity
8
0
100
AcDbLine
10
56.306559768018111
20
99.78830510577815
30
0
11
56.306559768018111
21
118.28830510577815
31
0
0
ARC
5
135
100
AcDbEntity
8
0
100
AcDbCircle
10
55.556559768018062
20
118.28830510577822
30
0
40
0.75000000000004619
100
AcDbArc
50
0
51
89.999999999996746
0
ARC
5
136
100
AcDbEntity
8
0
100
AcDbCircle
10
55.55655976801809
20
99.788305105778164
30
0
40
0.75000000000002842
100
AcDbArc
50
270.00000000000108
51
360
0
ARC
5
137
100
AcDbEntity
8
0
100
AcDbCircle
10
55.52881377268627
20
98.286740558707194
30
0
40
0.75207653112625628
100
AcDbArc
50
87.885734755922499
51
179.86380576486079
0
LINE
5
138
100
AcDbEntity
8
0
100
AcDbLine
10
54.775462675774605
20
93.997912637135258
30
0
11
54.776739366291345
21
98.288528271385758
31
0
0
LINE
5
139
100
AcDbEntity
8
0
100
AcDbLine
10
83.676087352140541
20
88.440725865152075
30
0
11
60.004091349380943
21
88.440725865152075
31
0
0
ARC
5
140
100
AcDbEntity
8
0
100
AcDbCircle
10
60.118955759355252
20
93.787140495291865
30
0
40
5.3476483831728894
100
AcDbArc
50
177.74115981785525
51
268.76922497489596
0
ARC
5
141
100
AcDbEntity
8
0
100
AcDbCircle
10
83.561222942166154
20
93.787140495291879
30
0
40
5.3476483831729134
100
AcDbArc
50
-88.769224974895138
51
2.2588401821445867
0
LINE
5
142
100
AcDbEntity
8
0
100
AcDbLine
10
88.903439335230118
20
98.288528271385758
30
0
11
88.904716025746836
21
93.997912637135258
31
0
0
ARC
5
143
100
AcDbEntity
8
0
100
AcDbCircle
10
88.123618933503309
20
99.788305105778107
30
0
40
0.74999999999997513
100
AcDbArc
50
180
51
270.0000000000021
0
ARC
5
144
100
AcDbEntity
8
0
100
AcDbCircle
10
88.152491446255283
20
98.287912215694732
30
0
40
0.7509481416718109
100
AcDbArc
50
0.04700377167676701
51
92.203455707528377
0
LINE
5
145
100
AcDbEntity
8
0
100
AcDbLine
10
87.373618933503337
20
118.28830510577815
30
0
11
87.373618933503337
21
99.78830510577815
31
0
0
ARC
5
146
100
AcDbEntity
8
0
100
AcDbCircle
10
88.123618933503352
20
118.28830510577814
30
0
40
0.75000000000001066
100
AcDbArc
50
90.000000000001094
51
180
0
LINE
5
147
100
AcDbEntity
8
0
100
AcDbLine
10
88.893707918147612
20
130.99322038852728
30
0
11
88.897041920861511
21
119.78852827138576
31
0
0
ARC
5
148
100
AcDbEntity
8
0
100
AcDbCircle
10
88.146449301665939
20
119.78855043550148
30
0
40
0.75059261952281586
100
AcDbArc
50
268.25699655390201
51
359.99830812327161
0
ARC
5
149
100
AcDbEntity
8
0
100
AcDbCircle
10
88.143268645343809
20
130.99281514154478
30
0
40
0.75043938222309692
100
AcDbArc
50
0.030940464254083425
51
91.50041998483394
0
ARC
5
150
100
AcDbEntity
8
0
100
AcDbCircle
10
88.12361893350328
20
132.49299722291963
30
0
40
0.7499999999999396
100
AcDbArc
50
180
51
270.00000000000432
0
LINE
5
151
100
AcDbEntity
8
0
100
AcDbLine
10
87.373618933503337
20
150.99299722291966
30
0
11
87.373618933503337
21
132.49299722291966
31
0
0
ARC
5
152
100
AcDbEntity
8
0
100
AcDbCircle
10
88.137103689167503
20
152.4930828480131
30
0
40
0.75020682721973442
100
AcDbArc
50
-91.029930906616926
51
0.01050442456823035
0
ARC
5
153
100
AcDbEntity
8
0
100
AcDbCircle
10
88.123618933503352
20
150.99299722291966
30
0
40
0.75000000000001066
100
AcDbArc
50
90.000000000001094
51
180
0
LINE
5
154
100
AcDbEntity
8
0
100
AcDbLine
10
88.886395496552609
20
155.56831514331134
30
0
11
88.887310503779119
21
152.49322038852736
31
0
0
ARC
5
155
100
AcDbEntity
8
0
100
AcDbCircle
10
88.123618933503352
20
157.0680919777038
30
0
40
0.75000000000001066
100
AcDbArc
50
180
51
269.99999999999886
0
ARC
5
156
100
AcDbEntity
8
0
100
AcDbCircle
10
88.136214958076579
20
155.56801713525007
30
0
40
0.75018059766765299
100
AcDbArc
50
0.022760658798213131
51
90.96207895033217
0
ARC
5
157
100
AcDbEntity
8
0
100
AcDbCircle
10
88.123618933503352
20
175.56809197770374
30
0
40
0.75000000000002842
100
AcDbArc
50
90.000000000001094
51
180
0
LINE
5
158
100
AcDbEntity
8
0
100
AcDbLine
10
87.373618933503323
20
175.56809197770372
30
0
11
87.373618933503337
21
157.06809197770377
31
0
0
LINE
5
159
100
AcDbEntity
8
0
100
AcDbLine
10
88.876538169503505
20
188.69615700946767
30
0
11
88.87999808218396
21
177.06831514331134
31
0
0
ARC
5
160
100
AcDbEntity
8
0
100
AcDbCircle
10
88.129952476206739
20
177.06811087013921
30
0
40
0.75004563379388822
100
AcDbArc
50
-90.483823333712706
51
0.015604371581682406
0
ARC
5
161
100
AcDbEntity
8
0
100
AcDbCircle
10
88.126534837348132
20
188.69593244900344
30
0
40
0.75000336577352511
100
AcDbArc
50
0.017155079062765786
51
90.090125869811857
0
ARC
5
162
100
AcDbEntity
8
0
100
AcDbCircle
10
88.124104259820825
20
190.1959338438601
30
0
40
0.75000000000001066
100
AcDbArc
50
180
51
270.09555625265347
0
ARC
5
163
100
AcDbEntity
8
0
100
AcDbCircle
10
88.12410455886689
20
192.19593371999113
30
0
40
0.7500002990460598
100
AcDbArc
50
89.96083973240323
51
179.99999056976185
0
LINE
5
164
100
AcDbEntity
8
0
100
AcDbLine
10
87.374104259820825
20
192.19593384386005
30
0
11
87.374104259820825
21
190.19593384386008
31
0
0
ARC
5
165
100
AcDbEntity
8
0
100
AcDbCircle
10
88.125050218544629
20
193.69593393218815
30
0
40
0.75000021335125822
100
AcDbArc
50
-90.033082790118669
51
0.017041844221810119
0
LINE
5
166
100
AcDbEntity
8
0
100
AcDbLine
10
88.873278038056753
20
199.65258754029534
30
0
11
88.875050398720248
21
193.69615700946767
31
0
0
ARC
5
167
100
AcDbEntity
8
0
100
AcDbCircle
10
88.124104259820768
20
201.15236437468769
30
0
40
0.7499999999999396
100
AcDbArc
50
180
51
269.99999999999784
0
ARC
5
168
100
AcDbEntity
8
0
100
AcDbCircle
10
88.123277290873503
20
199.65236405012408
30
0
40
0.75000078048178376
100
AcDbArc
50
0.017073373920706302
51
89.936824278988595
0
LINE
5
169
100
AcDbEntity
8
0
100
AcDbLine
10
87.374104259820825
20
203.15236437468781
30
0
11
87.374104259820825
21
201.15236437468781
31
0
0
ARC
5
170
100
AcDbEntity
8
0
100
AcDbCircle
10
88.124110385783027
20
203.15236183723115
30
0
40
0.75000612596646921
100
AcDbArc
50
90.177240296660372
51
179.99980615389461
0
LINE
5
171
100
AcDbEntity
8
0
100
AcDbLine
10
88.867987206020857
20
217.43366005112017
30
0
11
88.871790267273099
21
204.65258754029534
31
0
0
ARC
5
172
100
AcDbEntity
8
0
100
AcDbCircle
10
88.121790009022448
20
204.65236466605364
30
0
40
0.75000029136593105
100
AcDbArc
50
-89.999977734665165
51
0.017026331507195274
0
LINE
5
173
100
AcDbEntity
8
0
100
AcDbLine
10
83.454891685649756
20
220.43366005112017
30
0
11
85.867987206020871
21
220.43366005112017
31
0
0
ARC
5
174
100
AcDbEntity
8
0
100
AcDbCircle
10
85.867987206020786
20
217.43366005112009
30
0
40
3.0000000000000782
100
AcDbArc
50
0
51
89.99999999999838
0
ARC
5
175
100
AcDbEntity
8
0
100
AcDbCircle
10
83.454891685649784
20
217.43366005112011
30
0
40
3.0000000000000249
100
AcDbArc
50
90.00000000000054
51
180
0
LINE
5
176
100
AcDbEntity
8
0
100
AcDbLine
10
87.373618933503337
20
99.78830510577815
30
0
11
87.373618933503337
21
118.28830510577815
31
0
0
ARC
5
177
100
AcDbEntity
8
0
100
AcDbCircle
10
88.12361893350328
20
118.28830510577822
30
0
40
0.7499999999999396
100
AcDbArc
50
88.256308147514815
51
180
0
ARC
5
178
100
AcDbEntity
8
0
100
AcDbCircle
10
88.152491446255226
20
98.287912215694718
30
0
40
0.75094814167190882
100
AcDbArc
50
0.047003771684520967
51
90.001392083863621
0
ARC
5
179
100
AcDbEntity
8
0
100
AcDbCircle
10
88.123618933503224
20
99.788305105778164
30
0
40
0.74999999999996414
100
AcDbArc
50
180
51
272.20484779142004
0
LINE
5
180
100
AcDbEntity
8
0
100
AcDbLine
10
88.904716025746836
20
93.997912637135258
30
0
11
88.903439335230118
21
98.288528271385758
31
0
0
ARC
5
181
100
AcDbEntity
8
0
100
AcDbCircle
10
83.561222942166168
20
93.787140495291936
30
0
40
5.3476483831729285
100
AcDbArc
50
-88.76922497489528
51
2.258840182143941
0
LINE
5
182
100
AcDbEntity
8
0
100
AcDbLine
10
60.004091349380943
20
88.440725865152075
30
0
11
83.676087352140541
21
88.440725865152075
31
0
0
LINE
5
183
100
AcDbEntity
8
0
100
AcDbLine
10
54.776738435583866
20
98.285400412036665
30
0
11
54.775462675774605
21
93.997912637135258
31
0
0
ARC
5
184
100
AcDbEntity
8
0
100
AcDbCircle
10
60.118955759355302
20
93.787140495291823
30
0
40
5.3476483831728334
100
AcDbArc
50
177.74115981785476
51
268.76922497489539
0
ARC
5
185
100
AcDbEntity
8
0
100
AcDbCircle
10
55.528813772686306
20
98.286740558707237
30
0
40
0.75207653112620565
100
AcDbArc
50
89.997076822852947
51
180.10209704147073
0
ARC
5
186
100
AcDbEntity
8
0
100
AcDbCircle
10
55.556559768018147
20
99.788305105778164
30
0
40
0.75000000000004619
100
AcDbArc
50
267.88281157870682
51
360
0
LINE
5
187
100
AcDbEntity
8
0
100
AcDbLine
10
56.306559768018111
20
118.28830510577815
30
0
11
56.306559768018111
21
99.78830510577815
31
0
0
ARC
5
188
100
AcDbEntity
8
0
100
AcDbCircle
10
55.533864819323888
20
119.78869004266721
30
0
40
0.75072805609358406
100
AcDbArc
50
180.01234643043435
51
270.00084048763676
0
ARC
5
189
100
AcDbEntity
8
0
100
AcDbCircle
10
55.556559768018083
20
118.28830510577811
30
0
40
0.75000000000012212
100
AcDbArc
50
0
51
91.733189379973936
0
LINE
5
190
100
AcDbEntity
8
0
100
AcDbLine
10
54.786470475725338
20
130.9921864644833
30
0
11
54.783136780660016
21
119.78852827138576
31
0
0
ARC
5
191
100
AcDbEntity
8
0
100
AcDbCircle
10
55.537236325726994
20
130.99248003305047
30
0
40
0.75076590739805349
100
AcDbArc
50
89.999247272060757
51
180.02240410778884
0
ARC
5
192
100
AcDbEntity
8
0
100
AcDbCircle
10
55.55655976801819
20
132.49299722291985
30
0
40
0.75000000000000178
100
AcDbArc
50
268.52438812533995
51
360
0
ARC
5
193
100
AcDbEntity
8
0
100
AcDbCircle
10
55.556559768018225
20
150.99299722291966
30
0
40
0.74999999999999745
100
AcDbArc
50
0
51
91.064230158518129
0
LINE
5
194
100
AcDbEntity
8
0
100
AcDbLine
10
56.306559768018111
20
150.99299722291966
30
0
11
56.306559768018111
21
132.49299722291966
31
0
0
ARC
5
195
100
AcDbEntity
8
0
100
AcDbCircle
10
55.542632020168263
20
152.49263190299638
30
0
40
0.74976405337530572
100
AcDbArc
50
180.0108739418186
51
269.99983254183218
0
LINE
5
196
100
AcDbEntity
8
0
100
AcDbLine
10
54.793782533059897
20
155.56605703706967
30
0
11
54.792867980295739
21
152.49248960821103
31
0
0
ARC
5
197
100
AcDbEntity
8
0
100
AcDbCircle
10
55.545000343675923
20
155.56696256230882
30
0
40
0.75121835638027545
100
AcDbArc
50
89.999284434976403
51
180.06906485520508
0
LINE
5
198
100
AcDbEntity
8
0
100
AcDbLine
10
56.306559768018111
20
175.56809197770374
30
0
11
56.306559768018111
21
157.06809197770377
31
0
0
ARC
5
199
100
AcDbEntity
8
0
100
AcDbCircle
10
55.556559768018218
20
157.06809197770383
30
0
40
0.74999999999997513
100
AcDbArc
50
269.11760687556318
51
360
0
ARC
5
200
100
AcDbEntity
8
0
100
AcDbCircle
10
55.556482714663574
20
175.56804139827369
30
0
40
0.75007705505991695
100
AcDbArc
50
0.0038635868732900076
51
90.481403360709052
0
ARC
5
201
100
AcDbEntity
8
0
100
AcDbCircle
10
55.550180586135632
20
177.06809197770366
30
0
40
0.75000000000001577
100
AcDbArc
50
179.98295140314355
51
269.99999999999886
0
LINE
5
202
100
AcDbEntity
8
0
100
AcDbLine
10
54.803639532814891
20
188.69279895461602
30
0
11
54.800180619337517
21
177.06831514331134
31
0
0
ARC
5
203
100
AcDbEntity
8
0
100
AcDbCircle
10
55.556074441700609
20
190.19593384386027
30
0
40
0.75000000000012612
100
AcDbArc
50
269.94227913853825
51
360
0
ARC
5
204
100
AcDbEntity
8
0
100
AcDbCircle
10
55.555318031232936
20
188.69425431712864
30
0
40
0.75167990731694123
100
AcDbArc
50
89.999935493016466
51
180.11093309920921
0
LINE
5
205
100
AcDbEntity
8
0
100
AcDbLine
10
56.306074441700737
20
192.19593384386005
30
0
11
56.306074441700737
21
190.19593384386008
31
0
0
ARC
5
206
100
AcDbEntity
8
0
100
AcDbCircle
10
55.556074441700801
20
192.19593384386016
30
0
40
0.74999999999989186
100
AcDbArc
50
0
51
90.072196651159388
0
ARC
5
207
100
AcDbEntity
8
0
100
AcDbCircle
10
55.555129389180429
20
193.69593436786977
30
0
40
0.75000111942511571
100
AcDbArc
50
179.98295140316489
51
270.00000006239321
0
ARC
5
208
100
AcDbEntity
8
0
100
AcDbCircle
10
55.556900630262824
20
199.65236437468781
30
0
40
0.74999999999995359
100
AcDbArc
50
90.063175609895865
51
179.98295140316489
0
LINE
5
209
100
AcDbEntity
8
0
100
AcDbLine
10
54.80690066346483
20
199.65258754029534
30
0
11
54.805128302957293
21
193.69615753381026
31
0
0
ARC
5
210
100
AcDbEntity
8
0
100
AcDbCircle
10
55.556073663021309
20
201.15236469745125
30
0
40
0.75000077867947823
100
AcDbArc
50
270.00000004655118
51
360
0
LINE
5
211
100
AcDbEntity
8
0
100
AcDbLine
10
56.306074441700737
20
203.15236437468781
30
0
11
56.306074441700787
21
201.15236469745113
31
0
0
ARC
5
212
100
AcDbEntity
8
0
100
AcDbCircle
10
55.55607444169614
20
203.15236437468315
30
0
40
0.75000000000461142
100
AcDbArc
50
0
51
89.999999981443338
0
LINE
5
213
100
AcDbEntity
8
0
100
AcDbLine
10
54.812191495500748
20
217.43366005112017
30
0
11
54.808388434998903
21
204.65259007737131
31
0
0
ARC
5
214
100
AcDbEntity
8
0
100
AcDbCircle
10
55.558394525555769
20
204.6523669099422
30
0
40
0.75000612375905784
100
AcDbArc
50
179.98295140320766
51
269.82275983201504
0
ARC
5
215
100
AcDbEntity
8
0
100
AcDbCircle
10
57.812191495500677
20
217.4336600511202
30
0
40
2.9999999999999361
100
AcDbArc
50
89.99999999999865
51
180
0
LINE
5
216
100
AcDbEntity
8
0
100
AcDbLine
10
60.225287015871842
20
220.43366005112017
30
0
11
57.812191495500748
21
220.43366005112017
31
0
0
ARC
5
217
100
AcDbEntity
8
0
100
AcDbCircle
10
60.225287015871707
20
217.43366005112
30
0
40
3.0000000000000959
100
AcDbArc
50
0
51
89.999999999997428
0
ARC
5
218
100
AcDbEntity
8
0
100
AcDbCircle
10
66.225287015871842
20
205.73797701283274
30
0
40
3.0000000000000426
100
AcDbArc
50
180
51
269.99999999999756
0
LINE
5
219
100
AcDbEntity
8
0
100
AcDbLine
10
63.225287015871714
20
205.73797701283274
30
0
11
63.225287015871714
21
217.43366005112017
31
0
0
LINE
5
220
100
AcDbEntity
8
0
100
AcDbLine
10
77.45489168564977
20
202.73797701283272
30
0
11
66.225287015871714
21
202.73797701283272
31
0
0
ARC
5
221
100
AcDbEntity
8
0
100
AcDbCircle
10
77.454891685649656
20
205.73797701283283
30
0
40
3.0000000000000782
100
AcDbArc
50
270.0000000000021
51
360
0
LINE
5
222
100
AcDbEntity
8
0
100
AcDbLine
10
80.454891685649756
20
217.43366005112017
30
0
11
80.454891685649756
21
205.73797701283274
31
0
0
LINE
5
223
100
AcDbEntity
8
0
100
AcDbLine
10
85.867987206020871
20
220.43366005112017
30
0
11
83.454891685649756
21
220.43366005112017
31
0
0
ARC
5
224
100
AcDbEntity
8
0
100
AcDbCircle
10
83.454891685649727
20
217.43366005112017
30
0
40
2.9999999999999716
100
AcDbArc
50
89.99999999999946
51
180
0
ARC
5
225
100
AcDbEntity
8
0
100
AcDbCircle
10
85.867987206020629
20
217.43366005111994
30
0
40
3.0000000000002025
100
AcDbArc
50
0.034097193716178989
51
89.999999999995381
0
LINE
5
226
100
AcDbEntity
8
0
100
AcDbLine
10
88.87179026718654
20
204.65258783174804
30
0
11
88.867986674790018
21
217.43544537590293
31
0
0
ARC
5
227
100
AcDbEntity
8
0
100
AcDbCircle
10
88.121790009022504
20
204.6523646660537
30
0
40
0.75000029136598245
100
AcDbArc
50
-89.822759013584133
51
0.017048596856464815
0
LINE
5
228
100
AcDbEntity
8
0
100
AcDbLine
10
87.374104259820825
20
201.15236437468781
30
0
11
87.374104259816505
21
203.15236183723113
31
0
0
ARC
5
229
100
AcDbEntity
8
0
100
AcDbCircle
10
88.124110385782984
20
203.15236183723113
30
0
40
0.75000612596648253
100
AcDbArc
50
90.000022954228825
51
180
0
ARC
5
230
100
AcDbEntity
8
0
100
AcDbCircle
10
88.124104259820683
20
201.15236437468769
30
0
40
0.74999999999992184
100
AcDbArc
50
180
51
270.00000000000432
0
ARC
5
231
100
AcDbEntity
8
0
100
AcDbCircle
10
88.123277290873546
20
199.65236405012408
30
0
40
0.75000078048170304
100
AcDbArc
50
0.017048596856464815
51
89.936824278991864
0
LINE
5
232
100
AcDbEntity
8
0
100
AcDbLine
10
88.875050398693986
20
193.69615709785933
30
0
11
88.873278038153273
21
199.65258721596399
31
0
0
ARC
5
233
100
AcDbEntity
8
0
100
AcDbCircle
10
88.124104558866748
20
192.1959337199915
30
0
40
0.75000029904593646
100
AcDbArc
50
89.960839598360593
51
180
0
ARC
5
234
100
AcDbEntity
8
0
100
AcDbCircle
10
88.125050218544629
20
193.69593393218824
30
0
40
0.7500002133513135
100
AcDbArc
50
-90.03308265608689
51
0.017048596835086825
0
LINE
5
235
100
AcDbEntity
8
0
100
AcDbLine
10
87.374104259820825
20
190.19593384386008
30
0
11
87.374104259820797
21
192.19593371999133
31
0
0
ARC
5
236
100
AcDbEntity
8
0
100
AcDbCircle
10
88.124104259820868
20
190.19593384386013
30
0
40
0.75000000000009726
100
AcDbArc
50
180
51
270.09555615897114
0
ARC
5
237
100
AcDbEntity
8
0
100
AcDbCircle
10
88.126534837348004
20
188.69593244900315
30
0
40
0.75000336577363802
100
AcDbArc
50
0.017048596835086825
51
90.090125963480716
0
ARC
5
238
100
AcDbEntity
8
0
100
AcDbCircle
10
88.129952476206682
20
177.06811087013932
30
0
40
0.75004563379397005
100
AcDbArc
50
-90.000014718218907
51
0.018492822024285316
0
LINE
5
239
100
AcDbEntity
8
0
100
AcDbLine
10
88.879998070932871
20
177.06835295533833
30
0
11
88.87653816991957
21
188.69615561561227
31
0
0
ARC
5
240
100
AcDbEntity
8
0
100
AcDbCircle
10
88.123618933503423
20
175.56809197770377
30
0
40
0.75000000000008171
100
AcDbArc
50
89.516161946978713
51
180
0
LINE
5
241
100
AcDbEntity
8
0
100
AcDbLine
10
87.373618933503337
20
157.06809197770377
30
0
11
87.373618933503323
21
175.56809197770372
31
0
0
ARC
5
242
100
AcDbEntity
8
0
100
AcDbCircle
10
88.123618933503366
20
157.0680919777038
30
0
40
0.75000000000004685
100
AcDbArc
50
180
51
270.96219477196735
0
LINE
5
243
100
AcDbEntity
8
0
100
AcDbLine
10
88.887310452786309
20
152.49339176179649
30
0
11
88.886395496552609
21
155.56831514331134
31
0
0
ARC
5
244
100
AcDbEntity
8
0
100
AcDbCircle
10
88.136214958076636
20
155.56801713525013
30
0
40
0.75018059766760259
100
AcDbArc
50
0.022760658782200207
51
90.000115821540206
0
ARC
5
245
100
AcDbEntity
8
0
100
AcDbCircle
10
88.137103689167532
20
152.49308284801313
30
0
40
0.75020682721971166
100
AcDbArc
50
-90.000141995868134
51
0.023592769185775714
0
ARC
5
246
100
AcDbEntity
8
0
100
AcDbCircle
10
88.123618933503266
20
150.99299722291985
30
0
40
0.74999999999992184
100
AcDbArc
50
88.969927097092153
51
180
0
LINE
5
247
100
AcDbEntity
8
0
100
AcDbLine
10
87.373618933503337
20
132.49299722291966
30
0
11
87.373618933503337
21
150.99299722291966
31
0
0
ARC
5
248
100
AcDbEntity
8
0
100
AcDbCircle
10
88.143268645343824
20
130.99281514154472
30
0
40
0.75043938222313011
100
AcDbArc
50
0.030940464254083425
51
90.000439401690684
0
ARC
5
249
100
AcDbEntity
8
0
100
AcDbCircle
10
88.123618933503423
20
132.49299722291974
30
0
40
0.75000000000008038
100
AcDbArc
50
180
51
271.50085938644548
0
LINE
5
250
100
AcDbEntity
8
0
100
AcDbLine
10
88.897041774758833
20
119.78901928348044
30
0
11
88.893707918147612
21
130.99322038852728
31
0
0
ARC
5
251
100
AcDbEntity
8
0
100
AcDbCircle
10
88.146449301665882
20
119.78855043550155
30
0
40
0.75059261952286827
100
AcDbArc
50
-90.00068840638032
51
0.035789070493832079
0
LWPOLYLINE
5
252
100
AcDbEntity
8
0
100
AcDbPolyline
90
8
70
1
43
0.0
10
77.37704771767136
20
120.03636854386421
10
77.37704771767136
20
122.92579426792322
42
0.414213562373069
10
76.87704771767136
20
123.42579426792325
10
75.794028887710795
20
123.42579426792324
42
0.41421356237307422
10
75.294028887710795
20
122.92579426792324
10
75.294028887710823
20
120.03636854386421
42
0.41421356237315748
10
75.794028887710795
20
119.5363685438642
10
76.87704771767136
20
119.53636854386417
42
0.414213562373069
0
LWPOLYLINE
5
253
100
AcDbEntity
8
0
100
AcDbPolyline
90
8
70
1
43
0.0
10
67.959607453262095
20
119.53636854391995
42
0.4142135623730378
10
68.459607453262095
20
120.03636854391998
10
68.459607453262095
20
122.925794267979
42
0.41421356237308982
10
67.959607453262095
20
123.425794267979
10
66.876588623301529
20
123.425794267979
42
0.41421356237310542
10
66.376588623301529
20
122.925794267979
10
66.376588623301558
20
120.03636854391998
42
0.41421356237315748
10
66.876588623301529
20
119.53636854391996
0
LWPOLYLINE
5
254
100
AcDbEntity
8
0
100
AcDbPolyline
90
8
70
1
43
0.0
10
77.377047717671331
20
95.944896793428256
10
77.37704771767136
20
93.055471069369204
42
-0.4142135623730534
10
76.87704771767136
20
92.555471069369176
10
75.794028887710795
20
92.555471069369219
42
-0.4142135623730846
10
75.294028887710823
20
93.055471069369204
10
75.294028887710809
20
95.944896793428256
42
-0.41421356237309503
10
75.794028887710795
20
96.444896793428271
10
76.87704771767136
20
96.444896793428256
42
-0.41421356237313667
0
LWPOLYLINE
5
255
100
AcDbEntity
8
0
100
AcDbPolyline
90
8
70
1
43
0.0
10
74.819789016965643
20
137.7483446815736
10
68.860389684555884
20
137.7483446815736
42
-0.4142135623730866
10
64.860389684555912
20
141.7483446815736
10
64.860389684555912
20
147.54597480691882
42
-0.41421356237309243
10
68.860389684555884
20
151.54597480691882
10
74.819789016965615
20
151.54597480691882
42
-0.41421356237308982
10
78.819789016965615
20
147.54597480691882
10
78.819789016965629
20
141.7483446815736
42
-0.4142135623730937
0
LWPOLYLINE
5
256
100
AcDbEntity
8
0
100
AcDbPolyline
90
8
70
1
43
0.0
10
68.459607453262066
20
95.944896793483991
10
68.459607453262095
20
93.055471069424982
42
-0.414213562373069
10
67.959607453262095
20
92.555471069424925
10
66.876588623301529
20
92.555471069424954
42
-0.41421356237311585
10
66.376588623301558
20
93.055471069424968
10
66.376588623301529
20
95.944896793483991
42
-0.41421356237308982
10
66.876588623301529
20
96.444896793484034
10
67.959607453262095
20
96.444896793483991
42
-0.41421356237313667
0
LWPOLYLINE
5
257
100
AcDbEntity
8
0
100
AcDbPolyline
90
8
70
1
43
0.0
10
68.933847324007473
20
156.76381209150804
42
-0.41421356237309176
10
64.933847324007502
20
160.76381209150807
10
64.933847324007488
20
166.56144221685327
42
-0.41421356237309503
10
68.933847324007473
20
170.56144221685327
10
74.893246656417205
20
170.56144221685327
42
-0.41421356237309503
10
78.893246656417205
20
166.56144221685327
10
78.893246656417205
20
160.76381209150807
42
-0.41421356237309048
10
74.893246656417233
20
156.76381209150804
0
LWPOLYLINE
5
258
100
AcDbEntity
8
0
100
AcDbPolyline
90
8
70
1
43
0.0
10
75.377047717671402
20
98.606075471700038
10
68.376588623301515
20
98.606075471699995
42
-0.41421356237309764
10
66.376588623301544
20
100.6060754717
10
66.376588623301572
20
114.90370559704519
42
-0.41421356237309193
10
68.876588623301558
20
117.40370559704519
10
75.37704771767136
20
117.40370559704519
42
-0.41421356237310025
10
77.37704771767136
20
115.4037055970452
10
77.377047717671374
20
100.60607547170005
42
-0.41421356237308071
0
ARC
5
259
100
AcDbEntity
8
0
100
AcDbCircle
10
66.876588623301529
20
122.92579426797894
30
0
40
0.50000000000000711
100
AcDbArc
50
90
51
180
0
LINE
5
260
100
AcDbEntity
8
0
100
AcDbLine
10
66.376588623301558
20
120.03636854391998
30
0
11
66.376588623301529
21
122.925794267979
31
0
0
ARC
5
261
100
AcDbEntity
8
0
100
AcDbCircle
10
66.876588623301529
20
120.03636854391993
30
0
40
0.49999999999999822
100
AcDbArc
50
180
51
270
0
LINE
5
262
100
AcDbEntity
8
0
100
AcDbLine
10
67.959607453262095
20
119.53636854391995
30
0
11
66.876588623301529
21
119.53636854391996
31
0
0
ARC
5
263
100
AcDbEntity
8
0
100
AcDbCircle
10
67.959607453262009
20
120.03636854391993
30
0
40
0.50000000000000711
100
AcDbArc
50
-89.999999999990237
51
0
0
LINE
5
264
100
AcDbEntity
8
0
100
AcDbLine
10
68.459607453262095
20
122.925794267979
30
0
11
68.459607453262095
21
120.03636854391998
31
0
0
ARC
5
265
100
AcDbEntity
8
0
100
AcDbCircle
10
67.959607453262009
20
122.92579426797894
30
0
40
0.49999999999999822
100
AcDbArc
50
0
51
89.999999999990237
0
LINE
5
266
100
AcDbEntity
8
0
100
AcDbLine
10
66.876588623301529
20
123.425794267979
30
0
11
67.959607453262095
21
123.425794267979
31
0
0
ARC
5
267
100
AcDbEntity
8
0
100
AcDbCircle
10
66.876588623301529
20
95.944896793483963
30
0
40
0.50000000000000711
100
AcDbArc
50
90
51
180
0
LINE
5
268
100
AcDbEntity
8
0
100
AcDbLine
10
66.376588623301558
20
93.055471069424968
30
0
11
66.376588623301529
21
95.944896793483991
31
0
0
ARC
5
269
100
AcDbEntity
8
0
100
AcDbCircle
10
66.876588623301529
20
93.055471069424954
30
0
40
0.49999999999999822
100
AcDbArc
50
180
51
270
0
LINE
5
270
100
AcDbEntity
8
0
100
AcDbLine
10
67.959607453262095
20
92.555471069424925
30
0
11
66.876588623301529
21
92.555471069424954
31
0
0
ARC
5
271
100
AcDbEntity
8
0
100
AcDbCircle
10
67.959607453262009
20
93.055471069424954
30
0
40
0.50000000000000711
100
AcDbArc
50
-89.999999999990237
51
0
0
LINE
5
272
100
AcDbEntity
8
0
100
AcDbLine
10
68.459607453262066
20
95.944896793483991
30
0
11
68.459607453262095
21
93.055471069424968
31
0
0
ARC
5
273
100
AcDbEntity
8
0
100
AcDbCircle
10
67.959607453262009
20
95.944896793483963
30
0
40
0.49999999999999822
100
AcDbArc
50
0
51
89.999999999990237
0
LINE
5
274
100
AcDbEntity
8
0
100
AcDbLine
10
66.876588623301529
20
96.444896793484034
30
0
11
67.959607453262095
21
96.444896793483991
31
0
0
ARC
5
275
100
AcDbEntity
8
0
100
AcDbCircle
10
75.794028887710766
20
122.92579426792328
30
0
40
0.50000000000000711
100
AcDbArc
50
89.999999999996746
51
180
0
LINE
5
276
100
AcDbEntity
8
0
100
AcDbLine
10
75.294028887710823
20
120.03636854386421
30
0
11
75.294028887710795
21
122.92579426792324
31
0
0
ARC
5
277
100
AcDbEntity
8
0
100
AcDbCircle
10
75.794028887710766
20
120.03636854386417
30
0
40
0.49999999999999822
100
AcDbArc
50
180
51
270.00000000000324
0
LINE
5
278
100
AcDbEntity
8
0
100
AcDbLine
10
76.87704771767136
20
119.53636854386417
30
0
11
75.794028887710795
21
119.5363685438642
31
0
0
ARC
5
279
100
AcDbEntity
8
0
100
AcDbCircle
10
76.87704771767136
20
120.03636854386417
30
0
40
0.50000000000000711
100
AcDbArc
50
-90
51
0
0
LINE
5
280
100
AcDbEntity
8
0
100
AcDbLine
10
77.37704771767136
20
122.92579426792324
30
0
11
77.37704771767136
21
120.03636854386421
31
0
0
ARC
5
281
100
AcDbEntity
8
0
100
AcDbCircle
10
76.87704771767136
20
122.92579426792328
30
0
40
0.49999999999999822
100
AcDbArc
50
0
51
90
0
LINE
5
282
100
AcDbEntity
8
0
100
AcDbLine
10
75.794028887710795
20
123.42579426792325
30
0
11
76.87704771767136
21
123.42579426792325
31
0
0
ARC
5
283
100
AcDbEntity
8
0
100
AcDbCircle
10
75.794028887710766
20
95.944896793428271
30
0
40
0.50000000000000711
100
AcDbArc
50
89.999999999996746
51
180
0
LINE
5
284
100
AcDbEntity
8
0
100
AcDbLine
10
75.294028887710823
20
93.055471069369204
30
0
11
75.294028887710795
21
95.944896793428256
31
0
0
ARC
5
285
100
AcDbEntity
8
0
100
AcDbCircle
10
75.794028887710766
20
93.055471069369148
30
0
40
0.49999999999999822
100
AcDbArc
50
180
51
270.00000000000324
0
LINE
5
286
100
AcDbEntity
8
0
100
AcDbLine
10
76.87704771767136
20
92.555471069369176
30
0
11
75.794028887710795
21
92.555471069369219
31
0
0
ARC
5
287
100
AcDbEntity
8
0
100
AcDbCircle
10
76.87704771767136
20
93.055471069369148
30
0
40
0.50000000000000711
100
AcDbArc
50
-90
51
0
0
LINE
5
288
100
AcDbEntity
8
0
100
AcDbLine
10
77.377047717671331
20
95.944896793428256
30
0
11
77.37704771767136
21
93.055471069369204
31
0
0
ARC
5
289
100
AcDbEntity
8
0
100
AcDbCircle
10
76.87704771767136
20
95.944896793428271
30
0
40
0.49999999999999822
100
AcDbArc
50
0
51
90
0
LINE
5
290
100
AcDbEntity
8
0
100
AcDbLine
10
75.794028887710795
20
96.444896793428271
30
0
11
76.87704771767136
21
96.444896793428256
31
0
0
ARC
5
291
100
AcDbEntity
8
0
100
AcDbCircle
10
74.893246656417119
20
166.56144221685327
30
0
40
4.0000000000000036
100
AcDbArc
50
0
51
89.999999999998778
0
LINE
5
292
100
AcDbEntity
8
0
100
AcDbLine
10
78.893246656417205
20
160.76381209150807
30
0
11
78.893246656417205
21
166.56144221685327
31
0
0
ARC
5
293
100
AcDbEntity
8
0
100
AcDbCircle
10
74.893246656417148
20
160.76381209150807
30
0
40
4.0000000000000036
100
AcDbArc
50
-89.999999999998778
51
0
0
LINE
5
294
100
AcDbEntity
8
0
100
AcDbLine
10
68.933847324007473
20
156.76381209150804
30
0
11
74.893246656417233
21
156.76381209150804
31
0
0
ARC
5
295
100
AcDbEntity
8
0
100
AcDbCircle
10
68.933847324007445
20
160.7638120915081
30
0
40
4.0000000000000302
100
AcDbArc
50
180
51
270.0000000000004
0
LINE
5
296
100
AcDbEntity
8
0
100
AcDbLine
10
64.933847324007502
20
166.56144221685327
30
0
11
64.933847324007502
21
160.76381209150807
31
0
0
ARC
5
297
100
AcDbEntity
8
0
100
AcDbCircle
10
68.933847324007473
20
166.56144221685321
30
0
40
4.0000000000000568
100
AcDbArc
50
90
51
180
0
LINE
5
298
100
AcDbEntity
8
0
100
AcDbLine
10
74.893246656417205
20
170.56144221685327
30
0
11
68.933847324007473
21
170.56144221685327
31
0
0
ARC
5
299
100
AcDbEntity
8
0
100
AcDbCircle
10
74.8197890169657
20
147.54597480691882
30
0
40
3.9999999999999414
100
AcDbArc
50
0
51
90.000000000001208
0
LINE
5
300
100
AcDbEntity
8
0
100
AcDbLine
10
78.819789016965615
20
141.7483446815736
30
0
11
78.819789016965615
21
147.54597480691882
31
0
0
ARC
5
301
100
AcDbEntity
8
0
100
AcDbCircle
10
74.819789016965643
20
141.74834468157354
30
0
40
4.0000000000000036
100
AcDbArc
50
-90
51
0
0
LINE
5
302
100
AcDbEntity
8
0
100
AcDbLine
10
68.860389684555884
20
137.7483446815736
30
0
11
74.819789016965643
21
137.7483446815736
31
0
0
ARC
5
303
100
AcDbEntity
8
0
100
AcDbCircle
10
68.860389684555969
20
141.7483446815736
30
0
40
4.0000000000000568
100
AcDbArc
50
180
51
269.99999999999881
0
LINE
5
304
100
AcDbEntity
8
0
100
AcDbLine
10
64.860389684555912
20
147.54597480691882
30
0
11
64.860389684555912
21
141.7483446815736
31
0
0
ARC
5
305
100
AcDbEntity
8
0
100
AcDbCircle
10
68.860389684555855
20
147.54597480691882
30
0
40
3.9999999999999503
100
AcDbArc
50
89.999999999999588
51
180
0
LINE
5
306
100
AcDbEntity
8
0
100
AcDbLine
10
74.819789016965615
20
151.54597480691882
30
0
11
68.860389684555884
21
151.54597480691882
31
0
0
CIRCLE
5
307
100
AcDbEntity
8
0
100
AcDbCircle
10
58.950275809935647
20
216.60376544576394
30
0
40
1.6000000000000036
0
CIRCLE
5
308
100
AcDbEntity
8
0
100
AcDbCircle
10
84.95027580993883
20
216.60376544576394
30
0
40
1.6000000000000036
0
CIRCLE
5
309
100
AcDbEntity
8
0
100
AcDbCircle
10
84.95027580993883
20
183.06957129476837
30
0
40
1.6000000000000036
0
CIRCLE
5
310
100
AcDbEntity
8
0
100
AcDbCircle
10
58.950275809935626
20
183.06957129476837
30
0
40
1.6000000000000036
0
CIRCLE
5
311
100
AcDbEntity
8
0
100
AcDbCircle
10
58.950275809935626
20
126.21183675107487
30
0
40
1.6000000000000036
0
CIRCLE
5
312
100
AcDbEntity
8
0
100
AcDbCircle
10
84.95027580993883
20
126.21183675107487
30
0
40
1.6000000000000036
0
CIRCLE
5
313
100
AcDbEntity
8
0
100
AcDbCircle
10
84.840089350762241
20
92.795827865076262
30
0
40
1.6000000000000036
0
CIRCLE
5
314
100
AcDbEntity
8
0
100
AcDbCircle
10
58.840089350759115
20
92.795827865076262
30
0
40
1.6000000000000036
0
ENDSEC
0
SECTION
2
OBJECTS
0
DICTIONARY
5
C
100
AcDbDictionary
3
ACAD_GROUP
350
D
3
ACAD_MLINESTYLE
350
17
0
DICTIONARY
5
D
100
AcDbDictionary
0
DICTIONARY
5
1A
330
C
100
AcDbDictionary
0
DICTIONARY
5
17
100
AcDbDictionary
0
ENDSEC
0
EOF
