  0
SECTION
  2
HEADER
  9
$ACADVER
  1
AC1015
  9
$ACADMAINTVER
 70
    18
  9
$DWGCODEPAGE
  3
ANSI_1252
  9
$INSBASE
 10
0.0
 20
0.0
 30
0.0
  9
$EXTMIN
 10
-199.5055054088329
 20
-181.582176024017
 30
-0.0000000000000099
  9
$EXTMAX
 10
468.8291285952984
 20
181.5821779562653
 30
0.0000000000000137
  9
$LIMMIN
 10
0.0
 20
0.0
  9
$LIMMAX
 10
12.0
 20
9.0
  9
$ORTHOMODE
 70
     0
  9
$REGENMODE
 70
     1
  9
$FILLMODE
 70
     1
  9
$QTEXTMODE
 70
     0
  9
$MIRRTEXT
 70
     0
  9
$LTSCALE
 40
1.0
  9
$ATTMODE
 70
     1
  9
$TEXTSIZE
 40
0.2
  9
$TRACEWID
 40
0.05
  9
$TEXTSTYLE
  7
Standard
  9
$CLAYER
  8
3 Inch Arms
  9
$CELTYPE
  6
ByLayer
  9
$CECOLOR
 62
   256
  9
$CELTSCALE
 40
1.0
  9
$DISPSILH
 70
     0
  9
$DIMSCALE
 40
1.0
  9
$DIMASZ
 40
0.18
  9
$DIMEXO
 40
0.0625
  9
$DIMDLI
 40
0.38
  9
$DIMRND
 40
0.0
  9
$DIMDLE
 40
0.0
  9
$DIMEXE
 40
0.18
  9
$DIMTP
 40
0.0
  9
$DIMTM
 40
0.0
  9
$DIMTXT
 40
0.18
  9
$DIMCEN
 40
0.09
  9
$DIMTSZ
 40
0.0
  9
$DIMTOL
 70
     0
  9
$DIMLIM
 70
     0
  9
$DIMTIH
 70
     1
  9
$DIMTOH
 70
     1
  9
$DIMSE1
 70
     0
  9
$DIMSE2
 70
     0
  9
$DIMTAD
 70
     0
  9
$DIMZIN
 70
     0
  9
$DIMBLK
  1

  9
$DIMASO
 70
     1
  9
$DIMSHO
 70
     1
  9
$DIMPOST
  1

  9
$DIMAPOST
  1

  9
$DIMALT
 70
     0
  9
$DIMALTD
 70
     2
  9
$DIMALTF
 40
25.4
  9
$DIMLFAC
 40
1.0
  9
$DIMTOFL
 70
     0
  9
$DIMTVP
 40
0.0
  9
$DIMTIX
 70
     0
  9
$DIMSOXD
 70
     0
  9
$DIMSAH
 70
     0
  9
$DIMBLK1
  1

  9
$DIMBLK2
  1

  9
$DIMSTYLE
  2
Standard
  9
$DIMCLRD
 70
     0
  9
$DIMCLRE
 70
     0
  9
$DIMCLRT
 70
     0
  9
$DIMTFAC
 40
1.0
  9
$DIMGAP
 40
0.09
  9
$DIMJUST
 70
     0
  9
$DIMSD1
 70
     0
  9
$DIMSD2
 70
     0
  9
$DIMTOLJ
 70
     1
  9
$DIMTZIN
 70
     0
  9
$DIMALTZ
 70
     0
  9
$DIMALTTZ
 70
     0
  9
$DIMUPT
 70
     0
  9
$DIMDEC
 70
     4
  9
$DIMTDEC
 70
     4
  9
$DIMALTU
 70
     2
  9
$DIMALTTD
 70
     2
  9
$DIMTXSTY
  7
Standard
  9
$DIMAUNIT
 70
     0
  9
$DIMADEC
 70
     0
  9
$DIMALTRND
 40
0.0
  9
$DIMAZIN
 70
     0
  9
$DIMDSEP
 70
    46
  9
$DIMATFIT
 70
     3
  9
$DIMFRAC
 70
     0
  9
$DIMLDRBLK
  1

  9
$DIMLUNIT
 70
     2
  9
$DIMLWD
 70
    -2
  9
$DIMLWE
 70
    -2
  9
$DIMTMOVE
 70
     0
  9
$LUNITS
 70
     2
  9
$LUPREC
 70
     4
  9
$SKETCHINC
 40
0.1
  9
$FILLETRAD
 40
6.0
  9
$AUNITS
 70
     0
  9
$AUPREC
 70
     0
  9
$MENU
  1
.
  9
$ELEVATION
 40
0.0
  9
$PELEVATION
 40
0.0
  9
$THICKNESS
 40
0.0
  9
$LIMCHECK
 70
     0
  9
$CHAMFERA
 40
0.0
  9
$CHAMFERB
 40
0.0
  9
$CHAMFERC
 40
0.0
  9
$CHAMFERD
 40
0.0
  9
$SKPOLY
 70
     0
  9
$TDCREATE
 40
2457994.604745370
  9
$TDUCREATE
 40
2457994.771412037
  9
$TDUPDATE
 40
2458573.849027778
  9
$TDUUPDATE
 40
2458574.015694445
  9
$TDINDWG
 40
8.9445370370
  9
$TDUSRTIMER
 40
8.9445370370
  9
$USRTIMER
 70
     1
  9
$ANGBASE
 50
0.0
  9
$ANGDIR
 70
     0
  9
$PDMODE
 70
     0
  9
$PDSIZE
 40
0.0
  9
$PLINEWID
 40
0.0
  9
$SPLFRAME
 70
     0
  9
$SPLINETYPE
 70
     6
  9
$SPLINESEGS
 70
     8
  9
$HANDSEED
  5
106
  9
$SURFTAB1
 70
     6
  9
$SURFTAB2
 70
     6
  9
$SURFTYPE
 70
     6
  9
$SURFU
 70
     6
  9
$SURFV
 70
     6
  9
$UCSBASE
  2

  9
$UCSNAME
  2

  9
$UCSORG
 10
0.0
 20
0.0
 30
0.0
  9
$UCSXDIR
 10
1.0
 20
0.0
 30
0.0
  9
$UCSYDIR
 10
0.0
 20
1.0
 30
0.0
  9
$UCSORTHOREF
  2

  9
$UCSORTHOVIEW
 70
     0
  9
$UCSORGTOP
 10
0.0
 20
0.0
 30
0.0
  9
$UCSORGBOTTOM
 10
0.0
 20
0.0
 30
0.0
  9
$UCSORGLEFT
 10
0.0
 20
0.0
 30
0.0
  9
$UCSORGRIGHT
 10
0.0
 20
0.0
 30
0.0
  9
$UCSORGFRONT
 10
0.0
 20
0.0
 30
0.0
  9
$UCSORGBACK
 10
0.0
 20
0.0
 30
0.0
  9
$PUCSBASE
  2

  9
$PUCSNAME
  2

  9
$PUCSORG
 10
0.0
 20
0.0
 30
0.0
  9
$PUCSXDIR
 10
1.0
 20
0.0
 30
0.0
  9
$PUCSYDIR
 10
0.0
 20
1.0
 30
0.0
  9
$PUCSORTHOREF
  2

  9
$PUCSORTHOVIEW
 70
     0
  9
$PUCSORGTOP
 10
0.0
 20
0.0
 30
0.0
  9
$PUCSORGBOTTOM
 10
0.0
 20
0.0
 30
0.0
  9
$PUCSORGLEFT
 10
0.0
 20
0.0
 30
0.0
  9
$PUCSORGRIGHT
 10
0.0
 20
0.0
 30
0.0
  9
$PUCSORGFRONT
 10
0.0
 20
0.0
 30
0.0
  9
$PUCSORGBACK
 10
0.0
 20
0.0
 30
0.0
  9
$USERI1
 70
     0
  9
$USERI2
 70
     0
  9
$USERI3
 70
     0
  9
$USERI4
 70
     0
  9
$USERI5
 70
     0
  9
$USERR1
 40
0.0
  9
$USERR2
 40
0.0
  9
$USERR3
 40
0.0
  9
$USERR4
 40
0.0
  9
$USERR5
 40
0.0
  9
$WORLDVIEW
 70
     1
  9
$SHADEDGE
 70
     3
  9
$SHADEDIF
 70
    70
  9
$TILEMODE
 70
     1
  9
$MAXACTVP
 70
    64
  9
$PINSBASE
 10
0.0
 20
0.0
 30
0.0
  9
$PLIMCHECK
 70
     0
  9
$PEXTMIN
 10
1.000000000000000E+20
 20
1.000000000000000E+20
 30
1.000000000000000E+20
  9
$PEXTMAX
 10
-1.000000000000000E+20
 20
-1.000000000000000E+20
 30
-1.000000000000000E+20
  9
$PLIMMIN
 10
-0.2500002402958907
 20
-0.2499999962453767
  9
$PLIMMAX
 10
10.74999951940822
 20
8.249999763458731
  9
$UNITMODE
 70
     0
  9
$VISRETAIN
 70
     1
  9
$PLINEGEN
 70
     0
  9
$PSLTSCALE
 70
     1
  9
$TREEDEPTH
 70
  3020
  9
$CMLSTYLE
  2
Standard
  9
$CMLJUST
 70
     0
  9
$CMLSCALE
 40
1.0
  9
$PROXYGRAPHICS
 70
     1
  9
$MEASUREMENT
 70
     0
  9
$CELWEIGHT
370
    -1
  9
$ENDCAPS
280
     0
  9
$JOINSTYLE
280
     0
  9
$LWDISPLAY
290
     0
  9
$INSUNITS
 70
     4
  9
$HYPERLINKBASE
  1

  9
$STYLESHEET
  1

  9
$XEDIT
290
     1
  9
$CEPSNTYPE
380
     0
  9
$PSTYLEMODE
290
     1
  9
$FINGERPRINTGUID
  2
{BAB33564-8DA1-3649-AD25-774F5418D9E0}
  9
$VERSIONGUID
  2
{B418C8C2-AD96-BF43-AB59-F6418DD2DC2E}
  9
$EXTNAMES
290
     1
  9
$PSVPSCALE
 40
0.0
  9
$OLESTARTUP
290
     0
  0
ENDSEC
  0
SECTION
  2
CLASSES
  0
CLASS
  1
ACDBDICTIONARYWDFLT
  2
AcDbDictionaryWithDefault
  3
ObjectDBX Classes
 90
        0
280
     0
281
     0
  0
CLASS
  1
ACDBPLACEHOLDER
  2
AcDbPlaceHolder
  3
ObjectDBX Classes
 90
        0
280
     0
281
     0
  0
CLASS
  1
LAYOUT
  2
AcDbLayout
  3
ObjectDBX Classes
 90
        0
280
     0
281
     0
  0
CLASS
  1
DICTIONARYVAR
  2
AcDbDictionaryVar
  3
ObjectDBX Classes
 90
        0
280
     0
281
     0
  0
CLASS
  1
TABLESTYLE
  2
AcDbTableStyle
  3
ObjectDBX Classes
 90
     4095
280
     0
281
     0
  0
CLASS
  1
MATERIAL
  2
AcDbMaterial
  3
ObjectDBX Classes
 90
     1153
280
     0
281
     0
  0
CLASS
  1
VISUALSTYLE
  2
AcDbVisualStyle
  3
ObjectDBX Classes
 90
     4095
280
     0
281
     0
  0
CLASS
  1
SCALE
  2
AcDbScale
  3
ObjectDBX Classes
 90
     1153
280
     0
281
     0
  0
CLASS
  1
MLEADERSTYLE
  2
AcDbMLeaderStyle
  3
ACDB_MLEADERSTYLE_CLASS
 90
    36863
280
     0
281
     0
  0
CLASS
  1
CELLSTYLEMAP
  2
AcDbCellStyleMap
  3
ObjectDBX Classes
 90
     1152
280
     0
281
     0
  0
CLASS
  1
EXACXREFPANELOBJECT
  2
ExAcXREFPanelObject
  3
EXAC_ESW
 90
    33793
280
     1
281
     0
  0
CLASS
  1
NPOCOLLECTION
  2
AcDbImpNonPersistentObjectsCollection
  3
ObjectDBX Classes
 90
    33921
280
     0
281
     0
  0
CLASS
  1
LAYER_INDEX
  2
AcDbLayerIndex
  3
ObjectDBX Classes
 90
    32768
280
     0
281
     0
  0
CLASS
  1
SPATIAL_INDEX
  2
AcDbSpatialIndex
  3
ObjectDBX Classes
 90
    32768
280
     0
281
     0
  0
CLASS
  1
IDBUFFER
  2
AcDbIdBuffer
  3
ObjectDBX Classes
 90
    32768
280
     0
281
     0
  0
CLASS
  1
ACDBSECTIONVIEWSTYLE
  2
AcDbSectionViewStyle
  3
ObjectDBX Classes
 90
    33793
280
     0
281
     0
  0
CLASS
  1
ACDBDETAILVIEWSTYLE
  2
AcDbDetailViewStyle
  3
ObjectDBX Classes
 90
    33793
280
     0
281
     0
  0
CLASS
  1
SORTENTSTABLE
  2
AcDbSortentsTable
  3
ObjectDBX Classes
 90
        0
280
     0
281
     0
  0
CLASS
  1
ACDBASSOCPERSSUBENTMANAGER
  2
AcDbAssocPersSubentManager
  3
ObjectDBX Classes
 90
    33792
280
     0
281
     0
  0
CLASS
  1
ACDBPERSSUBENTMANAGER
  2
AcDbPersSubentManager
  3
AcDbPersSubentManager
 90
    33792
280
     0
281
     0
  0
CLASS
  1
SOLID_BACKGROUND
  2
AcDbSolidBackground
  3
SCENEOE
 90
    36863
280
     0
281
     0
  0
ENDSEC
  0
SECTION
  2
TABLES
  0
TABLE
  2
VPORT
  5
2B
330
0
100
AcDbSymbolTable
 70
     1
  0
VPORT
  5
2C
330
2B
100
AcDbSymbolTableRecord
100
AcDbViewportTableRecord
  2
*Active
 70
     0
 10
0.0
 20
0.0
 11
1.0
 21
1.0
 12
75.66206111711181
 22
-194.6516184369601
 13
0.0
 23
0.0
 14
0.5
 24
0.5
 15
0.5
 25
0.5
 16
-0.0000000000003979
 26
0.0
 36
1794.623820640646
 17
219.7178649902344
 27
167.8484840393066
 37
0.0000000000000117
 40
357.0482018109799
 41
1.689655172413793
 42
50.0
 43
0.0
 44
0.0
 50
0.0
 51
0.0
 71
     0
 72
  1000
 73
     1
 74
     3
 75
     0
 76
     1
 77
     0
 78
     0
281
     0
 65
     1
110
0.0
120
0.0
130
0.0
111
1.0
121
0.0
131
0.0
112
0.0
122
1.0
132
0.0
 79
     0
146
0.0
1001
ACAD_NAV_VCDISPLAY
1070
     3
  0
ENDTAB
  0
TABLE
  2
LTYPE
  5
26
330
0
100
AcDbSymbolTable
 70
     1
  0
LTYPE
  5
27
330
26
100
AcDbSymbolTableRecord
100
AcDbLinetypeTableRecord
  2
ByBlock
 70
     0
  3

 72
    65
 73
     0
 40
0.0
  0
LTYPE
  5
28
330
26
100
AcDbSymbolTableRecord
100
AcDbLinetypeTableRecord
  2
ByLayer
 70
     0
  3

 72
    65
 73
     0
 40
0.0
  0
LTYPE
  5
15
330
26
100
AcDbSymbolTableRecord
100
AcDbLinetypeTableRecord
  2
Continuous
 70
     0
  3
Solid line
 72
    65
 73
     0
 40
0.0
  0
ENDTAB
  0
TABLE
  2
LAYER
  5
1E
102
{ACAD_XDICTIONARY
360
1F
102
}
330
0
100
AcDbSymbolTable
 70
     3
  0
LAYER
  5
6
102
{ACAD_XDICTIONARY
360
7
102
}
330
1E
100
AcDbSymbolTableRecord
100
AcDbLayerTableRecord
  2
0
 70
     0
 62
    -7
  6
Continuous
370
    -3
390
8
  0
LAYER
  5
47
330
1E
100
AcDbSymbolTableRecord
100
AcDbLayerTableRecord
  2
3 Inch Arms
 70
     0
 62
  -181
  6
Continuous
370
    -3
390
8
1001
AcAecLayerStandard
1000

1000

1001
AcCmTransparency
1071
        0
  0
LAYER
  5
71
330
1E
100
AcDbSymbolTableRecord
100
AcDbLayerTableRecord
  2
Ultra Micro Top Plate
 70
     0
 62
    50
  6
Continuous
370
    -3
390
8
1001
AcAecLayerStandard
1000

1000

1001
AcCmTransparency
1071
        0
  0
ENDTAB
  0
TABLE
  2
STYLE
  5
23
330
0
100
AcDbSymbolTable
 70
     1
  0
STYLE
  5
24
330
23
100
AcDbSymbolTableRecord
100
AcDbTextStyleTableRecord
  2
Standard
 70
     0
 40
0.0
 41
1.0
 50
0.0
 71
     0
 42
0.2
  3
arial.ttf
  4

1001
ACAD
1000
Arial
1071
       34
  0
ENDTAB
  0
TABLE
  2
VIEW
  5
29
330
0
100
AcDbSymbolTable
 70
     0
  0
ENDTAB
  0
TABLE
  2
UCS
  5
2A
330
0
100
AcDbSymbolTable
 70
     0
  0
ENDTAB
  0
TABLE
  2
APPID
  5
30
330
0
100
AcDbSymbolTable
 70
     8
  0
APPID
  5
14
330
30
100
AcDbSymbolTableRecord
100
AcDbRegAppTableRecord
  2
ACAD
 70
     0
  0
APPID
  5
34
330
30
100
AcDbSymbolTableRecord
100
AcDbRegAppTableRecord
  2
AcadAnnotative
 70
     0
  0
APPID
  5
35
330
30
100
AcDbSymbolTableRecord
100
AcDbRegAppTableRecord
  2
ACAD_DSTYLE_DIMJAG
 70
     0
  0
APPID
  5
36
330
30
100
AcDbSymbolTableRecord
100
AcDbRegAppTableRecord
  2
ACAD_DSTYLE_DIMTALN
 70
     0
  0
APPID
  5
2F
330
30
100
AcDbSymbolTableRecord
100
AcDbRegAppTableRecord
  2
ACAD_NAV_VCDISPLAY
 70
     0
  0
APPID
  5
1D
330
30
100
AcDbSymbolTableRecord
100
AcDbRegAppTableRecord
  2
ACAD_PSEXT
 70
     0
  0
APPID
  5
48
330
30
100
AcDbSymbolTableRecord
100
AcDbRegAppTableRecord
  2
AcAecLayerStandard
 70
     0
  0
APPID
  5
49
330
30
100
AcDbSymbolTableRecord
100
AcDbRegAppTableRecord
  2
AcCmTransparency
 70
     0
  0
ENDTAB
  0
TABLE
  2
DIMSTYLE
  5
31
330
0
100
AcDbSymbolTable
 70
     2
100
AcDbDimStyleTable
 71
     2
340
32
340
33
  0
DIMSTYLE
105
32
330
31
100
AcDbSymbolTableRecord
100
AcDbDimStyleTableRecord
  2
Standard
 70
     0
340
24
  0
DIMSTYLE
105
33
330
31
100
AcDbSymbolTableRecord
100
AcDbDimStyleTableRecord
  2
Annotative
 70
     0
 40
0.0
340
24
1001
AcadAnnotative
1000
AnnotativeData
1002
{
1070
     1
1070
     1
1002
}
1001
ACAD_DSTYLE_DIMJAG
1070
   388
1040
1.5
1001
ACAD_DSTYLE_DIMTALN
1070
   392
1070
     0
  0
ENDTAB
  0
TABLE
  2
BLOCK_RECORD
  5
1
330
0
100
AcDbSymbolTable
 70
     0
  0
BLOCK_RECORD
  5
2
102
{ACAD_XDICTIONARY
360
3
102
}
330
1
100
AcDbSymbolTableRecord
100
AcDbBlockTableRecord
  2
*Model_Space
340
17
  0
BLOCK_RECORD
  5
19
330
1
100
AcDbSymbolTableRecord
100
AcDbBlockTableRecord
  2
*Paper_Space
340
1C
  0
ENDTAB
  0
ENDSEC
  0
SECTION
  2
BLOCKS
  0
BLOCK
  5
5
330
2
100
AcDbEntity
  8
0
100
AcDbBlockBegin
  2
*Model_Space
 70
     0
 10
0.0
 20
0.0
 30
0.0
  3
*Model_Space
  1

  0
ENDBLK
  5
16
330
2
100
AcDbEntity
  8
0
100
AcDbBlockEnd
  0
BLOCK
  5
1A
330
19
100
AcDbEntity
 67
     1
  8
0
100
AcDbBlockBegin
  2
*Paper_Space
 70
     0
 10
0.0
 20
0.0
 30
0.0
  3
*Paper_Space
  1

  0
ENDBLK
  5
1B
330
19
100
AcDbEntity
 67
     1
  8
0
100
AcDbBlockEnd
  0
ENDSEC
  0
SECTION
  2
ENTITIES
  0
LWPOLYLINE
  5
70
330
2
100
AcDbEntity
  8
Ultra Micro Top Plate
100
AcDbPolyline
 90
        8
 70
     1
 43
0.0
 10
225.853386299393
 20
-28.29556062102074
 10
225.853386299393
 20
-25.40613489696173
 42
0.414213562373069
 10
225.353386299393
 20
-24.90613489696173
 10
224.2703674694324
 20
-24.90613489696173
 42
0.4142135623730744
 10
223.7703674694324
 20
-25.40613489696173
 10
223.7703674694324
 20
-28.29556062102074
 42
0.4142135623731575
 10
224.2703674694324
 20
-28.79556062102074
 10
225.353386299393
 20
-28.7955606210208
 42
0.414213562373069
  0
LWPOLYLINE
  5
72
330
2
100
AcDbEntity
  8
Ultra Micro Top Plate
100
AcDbPolyline
 90
        8
 70
     1
 43
0.0
 10
216.4359460349837
 20
-28.79556062096501
 42
0.4142135623730379
 10
216.9359460349837
 20
-28.29556062096498
 10
216.9359460349837
 20
-25.40613489690597
 42
0.4142135623730898
 10
216.4359460349837
 20
-24.90613489690597
 10
215.3529272050231
 20
-24.90613489690597
 42
0.4142135623731055
 10
214.8529272050232
 20
-25.40613489690597
 10
214.8529272050232
 20
-28.29556062096498
 42
0.4142135623731575
 10
215.3529272050231
 20
-28.79556062096501
  0
LWPOLYLINE
  5
73
330
2
100
AcDbEntity
  8
Ultra Micro Top Plate
100
AcDbPolyline
 90
        8
 70
     1
 43
0.0
 10
225.8533862993928
 20
-32.32837194610814
 10
225.8533862993929
 20
-35.21779767016716
 42
-0.4142135623730534
 10
225.3533862993929
 20
-35.7177976701672
 10
224.2703674694323
 20
-35.71779767016714
 42
-0.4142135623730847
 10
223.7703674694323
 20
-35.21779767016716
 10
223.7703674694323
 20
-32.32837194610814
 42
-0.4142135623730951
 10
224.2703674694323
 20
-31.82837194610808
 10
225.3533862993929
 20
-31.82837194610814
 42
-0.4142135623731368
  0
LWPOLYLINE
  5
74
330
2
100
AcDbEntity
  8
Ultra Micro Top Plate
100
AcDbPolyline
 90
        8
 70
     1
 43
0.0
 10
216.9359460349836
 20
-32.32837194605236
 10
216.9359460349836
 20
-35.21779767011137
 42
-0.414213562373069
 10
216.4359460349836
 20
-35.71779767011145
 10
215.3529272050231
 20
-35.71779767011141
 42
-0.4142135623731159
 10
214.8529272050231
 20
-35.21779767011141
 10
214.852927205023
 20
-32.32837194605236
 42
-0.4142135623730898
 10
215.3529272050231
 20
-31.82837194605233
 10
216.4359460349836
 20
-31.82837194605236
 42
-0.4142135623731368
  0
ARC
  5
75
330
2
100
AcDbEntity
  8
Ultra Micro Top Plate
100
AcDbCircle
 10
215.3529272050231
 20
-28.29556062096504
 30
0.0
 40
0.4999999999999983
100
AcDbArc
 50
180.0
 51
270.0
  0
CIRCLE
  5
76
330
2
100
AcDbEntity
  8
Ultra Micro Top Plate
100
AcDbCircle
 10
207.4266460233493
 20
44.8031913855564
 30
0.0
 40
1.600000000000003
  0
CIRCLE
  5
77
330
2
100
AcDbEntity
  8
Ultra Micro Top Plate
100
AcDbCircle
 10
233.4266460233525
 20
44.8031913855564
 30
0.0
 40
1.600000000000003
  0
CIRCLE
  5
78
330
2
100
AcDbEntity
  8
Ultra Micro Top Plate
100
AcDbCircle
 10
233.279699112759
 20
-35.83254287438359
 30
0.0
 40
1.600000000000003
  0
CIRCLE
  5
79
330
2
100
AcDbEntity
  8
Ultra Micro Top Plate
100
AcDbCircle
 10
207.4266143916569
 20
-35.83254287438456
 30
0.0
 40
1.600000000000003
  0
LINE
  5
7A
330
2
100
AcDbEntity
  8
Ultra Micro Top Plate
100
AcDbLine
 10
237.3813241946572
 20
-35.83185006813977
 30
0.0
 11
237.3171345400391
 21
-19.89988678043201
 31
0.0000000000000005
  0
ARC
  5
7B
330
2
100
AcDbEntity
  8
Ultra Micro Top Plate
100
AcDbCircle
 10
236.5661866510643
 20
-19.90050283612301
 30
0.0000000000000005
 40
0.7509481416718448
100
AcDbArc
 50
0.047003771685367
 51
90.00139208386766
  0
ARC
  5
7C
330
2
100
AcDbEntity
  8
Ultra Micro Top Plate
100
AcDbCircle
 10
236.5373141383123
 20
-18.40010994603962
 30
0.0000000000000005
 40
0.749999999999938
100
AcDbArc
 50
179.9999999999984
 51
272.2048477914167
  0
ARC
  5
7D
330
2
100
AcDbEntity
  8
Ultra Micro Top Plate
100
AcDbCircle
 10
236.5935601011776
 20
-3.899912218074451
 30
0.0
 40
0.75
100
AcDbArc
 50
88.25630814752042
 51
180.0000000000016
  0
ARC
  5
7E
330
2
100
AcDbEntity
  8
Ultra Micro Top Plate
100
AcDbCircle
 10
236.6163904693401
 20
-2.399666888351152
 30
0.0
 40
0.7505926195228256
100
AcDbArc
 50
269.9993115936203
 51
0.0000000000016284
  0
LINE
  5
7F
330
2
100
AcDbEntity
  8
Ultra Micro Top Plate
100
AcDbLine
 10
237.3733805029039
 20
23.10035527576511
 30
0.0
 11
237.3443574194345
 21
45.63308599091257
 31
0.0
  0
ARC
  5
80
330
2
100
AcDbEntity
  8
Ultra Micro Top Plate
100
AcDbCircle
 10
234.3443574194345
 20
45.63308599091252
 30
0.0
 40
3.000000000000056
100
AcDbArc
 50
0.0000000000016284
 51
90.0
  0
LINE
  5
81
330
2
100
AcDbEntity
  8
Ultra Micro Top Plate
100
AcDbLine
 10
234.3443574194345
 20
48.63308599091258
 30
0.0
 11
231.9312618990634
 21
48.63308599091261
 31
0.0
  0
ARC
  5
82
330
2
100
AcDbEntity
  8
Ultra Micro Top Plate
100
AcDbCircle
 10
231.9312618990634
 20
45.63308599091257
 30
0.0
 40
3.000000000000028
100
AcDbArc
 50
90.0
 51
180.0
  0
LINE
  5
83
330
2
100
AcDbEntity
  8
Ultra Micro Top Plate
100
AcDbLine
 10
228.9312618990634
 20
45.63308599091257
 30
0.0
 11
228.9312618990634
 21
41.27024804710851
 31
0.0
  0
LINE
  5
84
330
2
100
AcDbEntity
  8
Ultra Micro Top Plate
100
AcDbLine
 10
211.7751148687343
 20
41.2702480471083
 30
0.0
 11
211.7751148687343
 21
45.6330859909124
 31
0.0
  0
ARC
  5
85
330
2
100
AcDbEntity
  8
Ultra Micro Top Plate
100
AcDbCircle
 10
208.7751148687342
 20
45.63308599091235
 30
0.0
 40
3.000000000000056
100
AcDbArc
 50
0.0000000000016284
 51
90.0
  0
LINE
  5
86
330
2
100
AcDbEntity
  8
Ultra Micro Top Plate
100
AcDbLine
 10
208.7751148687342
 20
48.63308599091237
 30
0.0
 11
206.3620193483631
 21
48.63308599091229
 31
0.0
  0
ARC
  5
87
330
2
100
AcDbEntity
  8
Ultra Micro Top Plate
100
AcDbCircle
 10
206.3620193483632
 20
45.63308599091229
 30
0.0
 40
3.0
100
AcDbArc
 50
90.00000000000325
 51
180.0000000000016
  0
LINE
  5
88
330
2
100
AcDbEntity
  8
Ultra Micro Top Plate
100
AcDbLine
 10
203.3620193483632
 20
45.63308599091223
 30
0.0
 11
203.3329330015022
 21
23.10035527576478
 31
0.0
  0
ARC
  5
89
330
2
100
AcDbEntity
  8
Ultra Micro Top Plate
100
AcDbCircle
 10
204.0771282069841
 20
-2.399666888351465
 30
0.0
 40
0.7505926195228199
100
AcDbArc
 50
180.0
 51
270.0006884063862
  0
ARC
  5
8A
330
2
100
AcDbEntity
  8
Ultra Micro Top Plate
100
AcDbCircle
 10
204.0999585751468
 20
-3.899912218074764
 30
0.0
 40
0.7499999999999244
100
AcDbArc
 50
359.9999999999984
 51
91.74369185248938
  0
ARC
  5
8B
330
2
100
AcDbEntity
  8
Ultra Micro Top Plate
100
AcDbCircle
 10
204.0437126122819
 20
-18.40010994603994
 30
0.0000000000000005
 40
0.7499999999999432
100
AcDbArc
 50
267.7951522085832
 51
0.0000000000016284
  0
ARC
  5
8C
330
2
100
AcDbEntity
  8
Ultra Micro Top Plate
100
AcDbCircle
 10
204.01484009953
 20
-19.90050283612338
 30
0.0000000000000005
 40
0.7509481416719006
100
AcDbArc
 50
89.99860791613887
 51
179.9529962283146
  0
LINE
  5
8D
330
2
100
AcDbEntity
  8
Ultra Micro Top Plate
100
AcDbLine
 10
203.263892210555
 20
-19.89988678043238
 30
0.0000000000000005
 11
203.3249893097588
 21
-35.83185006814014
 31
0.0
  0
LINE
  5
8E
330
2
100
AcDbEntity
  8
Ultra Micro Top Plate
100
AcDbLine
 10
207.3249892497614
 20
-39.83254287438457
 30
0.0
 11
233.3813242546548
 21
-39.83254287438429
 31
0.0
  0
ARC
  5
8F
330
2
100
AcDbEntity
  8
Ultra Micro Top Plate
100
AcDbCircle
 10
233.3813242546547
 20
-35.83254287438429
 30
0.0
 40
4.0
100
AcDbArc
 50
270.0
 51
0.0099237185071748
  0
ARC
  5
90
330
2
100
AcDbEntity
  8
Ultra Micro Top Plate
100
AcDbCircle
 10
207.3249892497613
 20
-35.83254287438457
 30
0.0
 40
4.0
100
AcDbArc
 50
179.9900762814944
 51
270.0
  0
ARC
  5
91
330
2
100
AcDbEntity
  8
Ultra Micro Top Plate
100
AcDbCircle
 10
236.6288300279705
 20
5.599717055957892
 30
0.0
 40
0.7509481416718448
100
AcDbArc
 50
0.047003771685367
 51
90.00139208386766
  0
ARC
  5
92
330
2
100
AcDbEntity
  8
Ultra Micro Top Plate
100
AcDbCircle
 10
236.5999575152185
 20
7.100109946041339
 30
0.0
 40
0.749999999999938
100
AcDbArc
 50
179.9999999999984
 51
272.2048477914167
  0
ARC
  5
93
330
2
100
AcDbEntity
  8
Ultra Micro Top Plate
100
AcDbCircle
 10
236.5999575152185
 20
21.6001099460418
 30
0.0
 40
0.75
100
AcDbArc
 50
88.25630814752042
 51
180.0000000000016
  0
ARC
  5
94
330
2
100
AcDbEntity
  8
Ultra Micro Top Plate
100
AcDbCircle
 10
236.6227878833811
 20
23.10035527576509
 30
0.0
 40
0.7505926195228256
100
AcDbArc
 50
269.9993115936203
 51
0.0000000000016284
  0
ARC
  5
95
330
2
100
AcDbEntity
  8
Ultra Micro Top Plate
100
AcDbCircle
 10
204.083525621025
 20
23.10035527576478
 30
0.0
 40
0.7505926195228199
100
AcDbArc
 50
180.0
 51
270.0006884063862
  0
ARC
  5
96
330
2
100
AcDbEntity
  8
Ultra Micro Top Plate
100
AcDbCircle
 10
204.1063559891878
 20
21.60010994604148
 30
0.0
 40
0.7499999999999244
100
AcDbArc
 50
359.9999999999968
 51
91.74369185248938
  0
ARC
  5
97
330
2
100
AcDbEntity
  8
Ultra Micro Top Plate
100
AcDbCircle
 10
204.1063559891881
 20
7.100109946040998
 30
0.0
 40
0.7499999999999432
100
AcDbArc
 50
267.7951522085832
 51
0.0000000000016284
  0
ARC
  5
98
330
2
100
AcDbEntity
  8
Ultra Micro Top Plate
100
AcDbCircle
 10
204.0774834764361
 20
5.599717055957551
 30
0.0
 40
0.7509481416719006
100
AcDbArc
 50
89.99860791613887
 51
179.9529962283146
  0
LINE
  5
99
330
2
100
AcDbEntity
  8
Ultra Micro Top Plate
100
AcDbLine
 10
203.3265355874612
 20
5.600333111648534
 30
0.0
 11
203.3265355874612
 21
-2.399666888351465
 31
0.0
  0
LINE
  5
9A
330
2
100
AcDbEntity
  8
Ultra Micro Top Plate
100
AcDbLine
 10
237.3797779169454
 20
5.600333111648875
 30
0.0
 11
237.3669830888629
 21
-2.399666888351124
 31
0.0
  0
LINE
  5
9B
330
2
100
AcDbEntity
  8
Ultra Micro Top Plate
100
AcDbLine
 10
204.8563559891877
 20
21.60010994604145
 30
0.0
 11
204.856355989188
 21
7.100109946041026
 31
0.0
  0
LINE
  5
9C
330
2
100
AcDbEntity
  8
Ultra Micro Top Plate
100
AcDbLine
 10
235.8499575152186
 20
21.60010994604177
 30
0.0
 11
235.8499575152186
 21
7.100109946041339
 31
0.0
  0
LINE
  5
9D
330
2
100
AcDbEntity
  8
Ultra Micro Top Plate
100
AcDbLine
 10
204.8499585751467
 20
-3.899912218074764
 30
0.0
 11
204.7937126122818
 21
-18.40010994603994
 31
0.0000000000000005
  0
LINE
  5
9E
330
2
100
AcDbEntity
  8
Ultra Micro Top Plate
100
AcDbLine
 10
235.8435601011775
 20
-3.899912218074479
 30
0.0
 11
235.7873141383123
 21
-18.40010994603962
 31
0.0000000000000005
  0
LINE
  5
9F
330
2
100
AcDbEntity
  8
Ultra Micro Top Plate
100
AcDbLine
 10
212.5857072303201
 20
38.54098740744863
 30
0.0
 11
216.1637807454846
 21
33.04865432008671
 31
0.0
  0
LINE
  5
A0
330
2
100
AcDbEntity
  8
Ultra Micro Top Plate
100
AcDbLine
 10
224.5425960223132
 20
33.04865432008677
 30
0.0
 11
228.1206695374777
 21
38.54098740744877
 31
0.0
  0
ARC
  5
A1
330
2
100
AcDbEntity
  8
Ultra Micro Top Plate
100
AcDbCircle
 10
216.7751148687344
 20
41.27024804710839
 30
0.0
 40
5.0
100
AcDbArc
 50
180.0000000000016
 51
213.0829143244043
  0
ARC
  5
A2
330
2
100
AcDbEntity
  8
Ultra Micro Top Plate
100
AcDbCircle
 10
223.9312618990634
 20
41.27024804710851
 30
0.0
 40
5.0
100
AcDbArc
 50
326.9170856755964
 51
0.0
  0
ARC
  5
A3
330
2
100
AcDbEntity
  8
Ultra Micro Top Plate
100
AcDbCircle
 10
220.3531883838989
 20
35.77791495974651
 30
0.0
 40
5.0
100
AcDbArc
 50
213.0829143244043
 51
326.9170856755964
  0
LWPOLYLINE
  5
A4
330
2
100
AcDbEntity
  8
Ultra Micro Top Plate
100
AcDbPolyline
 90
        8
 70
     1
 43
0.0
 10
217.3734570859986
 20
-5.29881506267198
 42
-0.4142135623730918
 10
213.3734570859985
 20
-1.298815062671867
 10
213.3734570859985
 20
4.498815062673298
 42
-0.4142135623730951
 10
217.3734570859986
 20
8.498815062673298
 10
223.3328564184083
 20
8.498815062673298
 42
-0.4142135623730951
 10
227.3328564184083
 20
4.498815062673298
 10
227.3328564184083
 20
-1.298815062671867
 42
-0.4142135623730905
 10
223.3328564184083
 20
-5.29881506267198
  0
SPLINE
  5
A5
330
2
100
AcDbEntity
  8
Ultra Micro Top Plate
100
AcDbSpline
210
0.0
220
0.0
230
1.0
 70
     9
 71
     3
 72
    80
 73
    76
 74
     0
 42
0.000000001
 43
0.0000000001
 40
0.0
 40
0.0
 40
0.0
 40
0.0
 40
1.0
 40
1.0
 40
1.0
 40
2.0
 40
2.0
 40
2.0
 40
3.0
 40
3.0
 40
3.0
 40
4.0
 40
4.0
 40
4.0
 40
5.0
 40
5.0
 40
5.0
 40
6.0
 40
6.0
 40
6.0
 40
7.0
 40
7.0
 40
7.0
 40
8.0
 40
8.0
 40
8.0
 40
9.0
 40
9.0
 40
9.0
 40
10.0
 40
10.0
 40
10.0
 40
11.0
 40
11.0
 40
11.0
 40
12.0
 40
12.0
 40
12.0
 40
13.0
 40
13.0
 40
13.0
 40
14.0
 40
14.0
 40
14.0
 40
15.0
 40
15.0
 40
15.0
 40
16.0
 40
16.0
 40
16.0
 40
17.0
 40
17.0
 40
17.0
 40
18.0
 40
18.0
 40
18.0
 40
19.0
 40
19.0
 40
19.0
 40
20.0
 40
20.0
 40
20.0
 40
21.0
 40
21.0
 40
21.0
 40
22.0
 40
22.0
 40
22.0
 40
23.0
 40
23.0
 40
23.0
 40
24.0
 40
24.0
 40
24.0
 40
25.0
 40
25.0
 40
25.0
 40
25.0
 10
217.683342477914
 20
12.26595746324937
 30
0.0
 10
216.4583472451663
 20
12.2479133037096
 30
0.0
 10
215.7766437745579
 20
11.47501367542793
 30
0.0
 10
215.111822159519
 20
10.37287315954593
 30
0.0
 10
214.4680845759421
 20
12.70777114797768
 30
0.0
 10
214.1322031125111
 20
15.35684071239429
 30
0.0
 10
213.9090651342039
 20
17.75993261908629
 30
0.0
 10
213.856810223537
 20
17.93950451850508
 30
0.0
 10
213.6886175238279
 20
17.92146848696508
 30
0.0
 10
213.5627066790402
 20
17.84163527300185
 30
0.0
 10
213.3457378525755
 20
17.7045240444999
 30
0.0
 10
213.4649674815337
 20
17.2681479916328
 30
0.0
 10
213.4819956410993
 20
17.03415100560259
 30
0.0
 10
213.6329325972486
 20
14.96221006646219
 30
0.0
 10
214.1668365196276
 20
11.43785246037602
 30
0.0
 10
214.6759744266383
 20
9.478272990368958
 30
0.0
 10
213.3110150374614
 20
6.478122602909259
 30
0.0
 10
213.2228831357098
 20
1.458123626980104
 30
0.0
 10
214.108062953127
 20
-1.600255750994192
 30
0.0
 10
214.0669108901768
 20
-1.587787399312174
 30
0.0
 10
212.1677712266279
 20
-1.285572111022384
 30
0.0
 10
212.0429820458116
 20
-1.265877967524784
 30
0.0
 10
212.0354473900039
 20
-1.264699407554881
 30
0.0
 10
211.9739997115714
 20
-1.255279055795263
 30
0.0
 10
211.9528100161121
 20
-1.250483535917601
 30
0.0
 10
211.7954681961262
 20
-1.215118608819748
 30
0.0
 10
211.676238567168
 20
-1.157767442282993
 30
0.0
 10
211.5204410671427
 20
-1.288408782950055
 30
0.0
 10
211.3881416145179
 20
-1.399372236119061
 30
0.0
 10
211.3990168782405
 20
-1.458649738606882
 30
0.0
 10
211.3985129422534
 20
-1.665921861318775
 30
0.0
 10
211.4838975800751
 20
-1.687509828768106
 30
0.0
 10
211.4718681403819
 20
-1.730726403665549
 30
0.0
 10
211.6478962318911
 20
-1.744852867305171
 30
0.0
 10
211.7721733487205
 20
-1.754850307050082
 30
0.0
 10
211.8147721956337
 20
-1.753858691075429
 30
0.0
 10
211.9290518727182
 20
-1.779388738424141
 30
0.0
 10
212.492907474333
 20
-1.905348351210514
 30
0.0
 10
213.6537809167167
 20
-2.137272697293683
 30
0.0
 10
214.2287231100487
 20
-2.216992119259858
 30
0.0
 10
214.9048507727992
 20
-5.50958793925879
 30
0.0
 10
217.8537866335656
 20
-12.455020658066
 30
0.0
 10
220.1264972955839
 20
-13.78304641618527
 30
0.0
 10
220.7710639351397
 20
-14.06602272896592
 30
0.0
 10
221.2864278899917
 20
-13.94806106797536
 30
0.0
 10
221.4837432129578
 20
-13.21321673472283
 30
0.0
 10
221.8844942427337
 20
-11.72057459680329
 30
0.0
 10
221.2532737788374
 20
-9.824109045186142
 30
0.0
 10
220.9980545853487
 20
-8.919096908274978
 30
0.0
 10
223.2498031359018
 20
-9.492332221650441
 30
0.0
 10
223.8446020327272
 20
-7.545700655313177
 30
0.0
 10
224.0265960760841
 20
-5.622209504385564
 30
0.0
 10
224.0941966503595
 20
-4.907530738618562
 30
0.0
 10
224.0800945707192
 20
-4.189885252927206
 30
0.0
 10
224.0915225384277
 20
-3.446197655900187
 30
0.0
 10
224.9938849474065
 20
-3.469329943310067
 30
0.0
 10
229.170506408852
 20
-3.647430674766338
 30
0.0
 10
229.7489030020959
 20
-3.174299806836916
 30
0.0
 10
230.0535566903235
 20
-2.925103461194458
 30
0.0
 10
229.7451966341904
 20
-2.655505836072507
 30
0.0
 10
229.5844166702923
 20
-2.681409771411554
 30
0.0
 10
229.5129065281166
 20
-2.711223274650974
 30
0.0
 10
229.5090294722156
 20
-2.777848488951286
 30
0.0
 10
229.3722921317041
 20
-2.815985063978306
 30
0.0
 10
227.7417747333021
 20
-3.13614697581027
 30
0.0
 10
225.7104087691265
 20
-3.084119649137592
 30
0.0
 10
224.059839595236
 20
-2.942562404748997
 30
0.0
 10
223.7713606265957
 20
0.9925274148584223
 30
0.0
 10
222.5359046581148
 20
6.458582891407739
 30
0.0
 10
220.4821460545105
 20
9.77606664677175
 30
0.0
 10
219.8986125653977
 20
10.75471846180416
 30
0.0
 10
218.9336483020161
 20
12.28438363877916
 30
0.0
 10
217.683342477914
 20
12.26595746324937
 30
0.0
 10
217.683342477914
 20
12.26595746324937
 30
0.0
 10
217.683342477914
 20
12.26595746324937
 30
0.0
 10
217.683342477914
 20
12.26595746324937
 30
0.0
  0
SPLINE
  5
A6
330
2
100
AcDbEntity
  8
Ultra Micro Top Plate
100
AcDbSpline
210
0.0
220
0.0
230
1.0
 70
     9
 71
     3
 72
    23
 73
    19
 74
     0
 42
0.000000001
 43
0.0000000001
 40
0.0
 40
0.0
 40
0.0
 40
0.0
 40
1.0
 40
1.0
 40
1.0
 40
2.0
 40
2.0
 40
2.0
 40
3.0
 40
3.0
 40
3.0
 40
4.0
 40
4.0
 40
4.0
 40
5.0
 40
5.0
 40
5.0
 40
6.0
 40
6.0
 40
6.0
 40
6.0
 10
218.9312505420772
 20
-2.39805957064048
 30
0.0
 10
218.2476126075183
 20
-0.374203878273302
 30
0.0
 10
215.7206499839864
 20
7.288971862222777
 30
0.0
 10
215.2933772908871
 20
9.481296606291877
 30
0.0
 10
215.6456773138992
 20
10.36042919186339
 30
0.0
 10
216.4067832144818
 20
11.81575568273487
 30
0.0
 10
217.5355591856843
 20
11.81377245078548
 30
0.0
 10
219.4081121619115
 20
11.81049686686905
 30
0.0
 10
220.8604638048588
 20
7.769052169974955
 30
0.0
 10
221.5562449711081
 20
6.130106035787947
 30
0.0
 10
222.5662058413418
 20
3.517482422441506
 30
0.0
 10
223.3717068767917
 20
-0.2074904745265762
 30
0.0
 10
223.5655921838453
 20
-2.86324125477272
 30
0.0
 10
221.9076509141429
 20
-2.755130729530847
 30
0.0
 10
220.5406432690182
 20
-2.70027485893027
 30
0.0
 10
218.9312505420772
 20
-2.39805957064048
 30
0.0
 10
218.9312505420772
 20
-2.39805957064048
 30
0.0
 10
218.9312505420772
 20
-2.39805957064048
 30
0.0
 10
218.9312505420772
 20
-2.39805957064048
 30
0.0
  0
SPLINE
  5
A7
330
2
100
AcDbEntity
  8
Ultra Micro Top Plate
100
AcDbSpline
210
0.0
220
0.0
230
1.0
 70
     9
 71
     3
 72
    26
 73
    22
 74
     0
 42
0.000000001
 43
0.0000000001
 40
0.0
 40
0.0
 40
0.0
 40
0.0
 40
1.0
 40
1.0
 40
1.0
 40
2.0
 40
2.0
 40
2.0
 40
3.0
 40
3.0
 40
3.0
 40
4.0
 40
4.0
 40
4.0
 40
5.0
 40
5.0
 40
5.0
 40
6.0
 40
6.0
 40
6.0
 40
7.0
 40
7.0
 40
7.0
 40
7.0
 10
216.4887378363909
 20
-7.452277425696675
 30
0.0
 10
215.6150184986813
 20
-5.327276903909925
 30
0.0
 10
215.3380487777475
 20
-4.815229172973313
 30
0.0
 10
214.8124597991563
 20
-2.419997042080749
 30
0.0
 10
214.806241879315
 20
-2.391516530807394
 30
0.0
 10
214.7295216892722
 20
-2.252218870361094
 30
0.0
 10
214.8867659732606
 20
-2.280073525650523
 30
0.0
 10
215.4497518788976
 20
-2.379812211105918
 30
0.0
 10
215.8704327641651
 20
-2.493327856209917
 30
0.0
 10
216.4211616461149
 20
-2.549248494783342
 30
0.0
 10
217.3420721506206
 20
-6.157682130724507
 30
0.0
 10
219.5883586853129
 20
-8.331946459254378
 30
0.0
 10
220.418788296127
 20
-8.752424144527113
 30
0.0
 10
221.34763985643
 20
-11.13908936363817
 30
0.0
 10
221.3073005934591
 20
-13.31561327611042
 30
0.0
 10
220.8077212142045
 20
-13.4811318638877
 30
0.0
 10
219.7555597690473
 20
-13.75217627297285
 30
0.0
 10
216.9313155530999
 20
-8.816521550891831
 30
0.0
 10
216.4887378363909
 20
-7.452277425696675
 30
0.0
 10
216.4887378363909
 20
-7.452277425696675
 30
0.0
 10
216.4887378363909
 20
-7.452277425696675
 30
0.0
 10
216.4887378363909
 20
-7.452277425696675
 30
0.0
  0
SPLINE
  5
A8
330
2
100
AcDbEntity
  8
Ultra Micro Top Plate
100
AcDbSpline
210
0.0
220
0.0
230
1.0
 70
     9
 71
     3
 72
    35
 73
    31
 74
     0
 42
0.000000001
 43
0.0000000001
 40
0.0
 40
0.0
 40
0.0
 40
0.0
 40
1.0
 40
1.0
 40
1.0
 40
2.0
 40
2.0
 40
2.0
 40
3.0
 40
3.0
 40
3.0
 40
4.0
 40
4.0
 40
4.0
 40
5.0
 40
5.0
 40
5.0
 40
6.0
 40
6.0
 40
6.0
 40
7.0
 40
7.0
 40
7.0
 40
8.0
 40
8.0
 40
8.0
 40
9.0
 40
9.0
 40
9.0
 40
10.0
 40
10.0
 40
10.0
 40
10.0
 10
214.9205459403988
 20
8.483820343739614
 30
0.0
 10
215.1556239504015
 20
7.196808472574064
 30
0.0
 10
217.6553902866272
 20
-0.6263344318409422
 30
0.0
 10
218.3690124124211
 20
-2.324078516527907
 30
0.0
 10
217.576686864635
 20
-2.252121334363665
 30
0.0
 10
217.1889731465264
 20
-2.123772089638069
 30
0.0
 10
216.7907255406866
 20
-2.079945914756163
 30
0.0
 10
216.3638186075778
 20
-0.7720125721243952
 30
0.0
 10
215.8004669419502
 20
1.625804262702248
 30
0.0
 10
215.8034092778752
 20
2.684955787681
 30
0.0
 10
215.8039457258614
 20
2.880564230690606
 30
0.0
 10
215.7547550711164
 20
3.651732595016554
 30
0.0
 10
215.4730873663023
 20
3.670077490548382
 30
0.0
 10
215.2791858032492
 20
3.493935607042265
 30
0.0
 10
215.326734602036
 20
3.170937023282629
 30
0.0
 10
215.3278237540083
 20
2.940443205163036
 30
0.0
 10
215.3329606498773
 20
1.842155361182676
 30
0.0
 10
216.1065267741419
 20
-1.553714824181525
 30
0.0
 10
216.2458488185875
 20
-1.982076669253101
 30
0.0
 10
216.1503692050234
 20
-1.975688061416013
 30
0.0
 10
215.0922824480174
 20
-1.820329473379579
 30
0.0
 10
214.8323246306496
 20
-1.775731138517358
 30
0.0
 10
214.7428841209313
 20
-1.74913632319588
 30
0.0
 10
214.7548404086264
 20
-1.746031427275075
 30
0.0
 10
214.6355132436707
 20
-1.742430723366942
 30
0.0
 10
213.9513226051257
 20
0.453527236609461
 30
0.0
 10
213.8080340967814
 20
6.436629163967925
 30
0.0
 10
214.9205459403988
 20
8.483820343739614
 30
0.0
 10
214.9205459403988
 20
8.483820343739614
 30
0.0
 10
214.9205459403988
 20
8.483820343739614
 30
0.0
 10
214.9205459403988
 20
8.483820343739614
 30
0.0
  0
SPLINE
  5
A9
330
2
100
AcDbEntity
  8
Ultra Micro Top Plate
100
AcDbSpline
210
0.0
220
0.0
230
1.0
 70
     9
 71
     3
 72
    20
 73
    16
 74
     0
 42
0.000000001
 43
0.0000000001
 40
0.0
 40
0.0
 40
0.0
 40
0.0
 40
1.0
 40
1.0
 40
1.0
 40
2.0
 40
2.0
 40
2.0
 40
3.0
 40
3.0
 40
3.0
 40
4.0
 40
4.0
 40
4.0
 40
5.0
 40
5.0
 40
5.0
 40
5.0
 10
223.5839533353769
 20
-3.393089305255117
 30
0.0
 10
223.6681187732296
 20
-4.965865393130279
 30
0.0
 10
223.4697224262911
 20
-7.15222418535167
 30
0.0
 10
222.6258084638212
 20
-8.123959072560657
 30
0.0
 10
222.2031199626049
 20
-8.610655572143869
 30
0.0
 10
221.4679586373603
 20
-8.58374376483046
 30
0.0
 10
220.8088997741744
 20
-8.280821340558697
 30
0.0
 10
220.6431698584025
 20
-7.788825385110558
 30
0.0
 10
219.2874763889891
 20
-3.541904853458463
 30
0.0
 10
219.1167721373441
 20
-2.985031203665521
 30
0.0
 10
220.1094528800188
 20
-3.14660771154342
 30
0.0
 10
222.2052169865514
 20
-3.356781530181406
 30
0.0
 10
223.5839533353769
 20
-3.393089305255117
 30
0.0
 10
223.5839533353769
 20
-3.393089305255117
 30
0.0
 10
223.5839533353769
 20
-3.393089305255117
 30
0.0
 10
223.5839533353769
 20
-3.393089305255117
 30
0.0
  0
SPLINE
  5
AA
330
2
100
AcDbEntity
  8
Ultra Micro Top Plate
100
AcDbSpline
210
0.0
220
0.0
230
1.0
 70
     9
 71
     3
 72
    41
 73
    37
 74
     0
 42
0.000000001
 43
0.0000000001
 40
0.0
 40
0.0
 40
0.0
 40
0.0
 40
1.0
 40
1.0
 40
1.0
 40
2.0
 40
2.0
 40
2.0
 40
3.0
 40
3.0
 40
3.0
 40
4.0
 40
4.0
 40
4.0
 40
5.0
 40
5.0
 40
5.0
 40
6.0
 40
6.0
 40
6.0
 40
7.0
 40
7.0
 40
7.0
 40
8.0
 40
8.0
 40
8.0
 40
9.0
 40
9.0
 40
9.0
 40
10.0
 40
10.0
 40
10.0
 40
11.0
 40
11.0
 40
11.0
 40
12.0
 40
12.0
 40
12.0
 40
12.0
 10
220.6875487372703
 20
4.356966625024459
 30
0.0
 10
220.0404217777799
 20
4.521103452836959
 30
0.0
 10
218.6492658452712
 20
4.654987865421361
 30
0.0
 10
217.9587353668881
 20
4.63314792997852
 30
0.0
 10
217.7744410995899
 20
4.627320154127181
 30
0.0
 10
217.8207706984079
 20
4.684850136659414
 30
0.0
 10
217.7100185732334
 20
4.677502424846923
 30
0.0
 10
217.7241206528736
 20
4.509399133135564
 30
0.0
 10
217.731240780692
 20
4.458436574435734
 30
0.0
 10
217.6177657755869
 20
4.36648451278167
 30
0.0
 10
217.5040631864878
 20
4.274345507132355
 30
0.0
 10
217.4888150588768
 20
4.270590371228143
 30
0.0
 10
217.3220285031319
 20
4.258268323542514
 30
0.0
 10
217.0250882867075
 20
4.641739225759255
 30
0.0
 10
217.1732779789269
 20
5.109660045821736
 30
0.0
 10
217.2533631608837
 20
5.550392706577574
 30
0.0
 10
217.4369909321989
 20
6.56110948079209
 30
0.0
 10
218.0572792363741
 20
7.592195022486928
 30
0.0
 10
219.1710346639599
 20
7.628575949558751
 30
0.0
 10
220.4615253190367
 20
7.670670860484776
 30
0.0
 10
220.9809857857842
 20
6.005251830973199
 30
0.0
 10
221.3514681443323
 20
5.331700744156885
 30
0.0
 10
221.5223349559732
 20
5.021048592082358
 30
0.0
 10
221.3797860956098
 20
4.345197281324643
 30
0.0
 10
221.2110163079156
 20
4.034984041238956
 30
0.0
 10
221.2110163079156
 20
4.034984041238956
 30
0.0
 10
221.0988092707782
 20
4.04094999308675
 30
0.0
 10
221.0988092707782
 20
4.04094999308675
 30
0.0
 10
221.0649398956423
 20
4.141314534526235
 30
0.0
 10
221.0231213367092
 20
4.312270754164727
 30
0.0
 10
220.9100933715927
 20
4.333216609630343
 30
0.0
 10
220.8460609892263
 20
4.345075361327816
 30
0.0
 10
220.7600992634194
 20
4.338556705494127
 30
0.0
 10
220.6875487372703
 20
4.356966625024459
 30
0.0
 10
220.6875487372703
 20
4.356966625024459
 30
0.0
 10
220.6875487372703
 20
4.356966625024459
 30
0.0
 10
220.6875487372703
 20
4.356966625024459
 30
0.0
  0
SPLINE
  5
AB
330
2
100
AcDbEntity
  8
Ultra Micro Top Plate
100
AcDbSpline
210
0.0
220
0.0
230
1.0
 70
     9
 71
     3
 72
    32
 73
    28
 74
     0
 42
0.000000001
 43
0.0000000001
 40
0.0
 40
0.0
 40
0.0
 40
0.0
 40
1.0
 40
1.0
 40
1.0
 40
2.0
 40
2.0
 40
2.0
 40
3.0
 40
3.0
 40
3.0
 40
4.0
 40
4.0
 40
4.0
 40
5.0
 40
5.0
 40
5.0
 40
6.0
 40
6.0
 40
6.0
 40
7.0
 40
7.0
 40
7.0
 40
8.0
 40
8.0
 40
8.0
 40
9.0
 40
9.0
 40
9.0
 40
9.0
 10
218.5172508726392
 20
0.9724187433714629
 30
0.0
 10
218.4597615301059
 20
1.057413237203081
 30
0.0
 10
218.4021827795749
 20
1.066370292974542
 30
0.0
 10
218.3779044441943
 20
1.304788910892002
 30
0.0
 10
218.3049150060563
 20
2.021865436597917
 30
0.0
 10
218.2188313602526
 20
2.135194137706584
 30
0.0
 10
218.3620548445985
 20
2.90323322211233
 30
0.0
 10
218.5434880559699
 20
3.876284845287672
 30
0.0
 10
219.8332228070659
 20
3.706133297628665
 30
0.0
 10
220.4791305665875
 20
3.398041465488658
 30
0.0
 10
221.3304979048674
 20
2.991917827849819
 30
0.0
 10
221.9179490898802
 20
2.082093915061286
 30
0.0
 10
221.8793573468647
 20
1.132979251275227
 30
0.0
 10
221.8225182443148
 20
-0.2650204570588089
 30
0.0
 10
220.2342095488359
 20
-0.017132719383017
 30
0.0
 10
219.4005124821053
 20
0.662530623277398
 30
0.0
 10
219.3181189482074
 20
0.7297085415636042
 30
0.0
 10
218.9173597904316
 20
1.063818101039714
 30
0.0
 10
218.895080943
 20
1.064712181016856
 30
0.0
 10
218.8364211684965
 20
1.067085556956289
 30
0.0
 10
218.7926437616134
 20
1.016537526245901
 30
0.0
 10
218.7348618110875
 20
0.9936572068296115
 30
0.0
 10
218.6625388689326
 20
0.9650222635601764
 30
0.0
 10
218.5995468705396
 20
0.9708744234108321
 30
0.0
 10
218.5172508726392
 20
0.9724187433714629
 30
0.0
 10
218.5172508726392
 20
0.9724187433714629
 30
0.0
 10
218.5172508726392
 20
0.9724187433714629
 30
0.0
 10
218.5172508726392
 20
0.9724187433714629
 30
0.0
  0
SPLINE
  5
AC
330
2
100
AcDbEntity
  8
Ultra Micro Top Plate
100
AcDbSpline
210
0.0
220
0.0
230
1.0
 70
     9
 71
     3
 72
    17
 73
    13
 74
     0
 42
0.000000001
 43
0.0000000001
 40
0.0
 40
0.0
 40
0.0
 40
0.0
 40
1.0
 40
1.0
 40
1.0
 40
2.0
 40
2.0
 40
2.0
 40
3.0
 40
3.0
 40
3.0
 40
4.0
 40
4.0
 40
4.0
 40
4.0
 10
220.2118169094072
 20
-7.980280420226137
 30
0.0
 10
218.6294091417778
 20
-6.872751040481554
 30
0.0
 10
217.4031459410624
 20
-3.952547658982139
 30
0.0
 10
216.9243092172785
 20
-2.652213996156452
 30
0.0
 10
217.2888906479773
 20
-2.702924586862691
 30
0.0
 10
217.800775818918
 20
-2.794714088520986
 30
0.0
 10
218.5286056883495
 20
-2.90553936569354
 30
0.0
 10
218.5686523433278
 20
-3.0020756192307
 30
0.0
 10
219.8096272236679
 20
-7.010666940963075
 30
0.0
 10
220.2118169094072
 20
-7.980280420226137
 30
0.0
 10
220.2118169094072
 20
-7.980280420226137
 30
0.0
 10
220.2118169094072
 20
-7.980280420226137
 30
0.0
 10
220.2118169094072
 20
-7.980280420226137
 30
0.0
  0
SPLINE
  5
AD
330
2
100
AcDbEntity
  8
Ultra Micro Top Plate
100
AcDbSpline
210
0.0
220
0.0
230
1.0
 70
     9
 71
     3
 72
    20
 73
    16
 74
     0
 42
0.000000001
 43
0.0000000001
 40
0.0
 40
0.0
 40
0.0
 40
0.0
 40
1.0
 40
1.0
 40
1.0
 40
2.0
 40
2.0
 40
2.0
 40
3.0
 40
3.0
 40
3.0
 40
4.0
 40
4.0
 40
4.0
 40
5.0
 40
5.0
 40
5.0
 40
5.0
 10
218.8255459047739
 20
1.744050403685486
 30
0.0
 10
218.7692107382112
 20
2.233185303206637
 30
0.0
 10
218.6019690144779
 20
2.61712762941147
 30
0.0
 10
218.9984365883631
 20
3.072555713792452
 30
0.0
 10
219.6172943645748
 20
3.547157749684392
 30
0.0
 10
221.6670458642813
 20
2.267607382328469
 30
0.0
 10
221.2696516984196
 20
0.9460352560445512
 30
0.0
 10
221.0028988732251
 20
0.0589453586760824
 30
0.0
 10
219.6759297550789
 20
1.07618891672414
 30
0.0
 10
219.2791614452012
 20
1.35013502173514
 30
0.0
 10
219.1203240732535
 20
1.496877929991359
 30
0.0
 10
219.0842194981747
 20
1.652236518027875
 30
0.0
 10
218.8255459047739
 20
1.744050403685486
 30
0.0
 10
218.8255459047739
 20
1.744050403685486
 30
0.0
 10
218.8255459047739
 20
1.744050403685486
 30
0.0
 10
218.8255459047739
 20
1.744050403685486
 30
0.0
  0
SPLINE
  5
AE
330
2
100
AcDbEntity
  8
Ultra Micro Top Plate
100
AcDbSpline
210
0.0
220
0.0
230
1.0
 70
     9
 71
     3
 72
    23
 73
    19
 74
     0
 42
0.000000001
 43
0.0000000001
 40
0.0
 40
0.0
 40
0.0
 40
0.0
 40
1.0
 40
1.0
 40
1.0
 40
2.0
 40
2.0
 40
2.0
 40
3.0
 40
3.0
 40
3.0
 40
4.0
 40
4.0
 40
4.0
 40
5.0
 40
5.0
 40
5.0
 40
6.0
 40
6.0
 40
6.0
 40
6.0
 10
217.7321104766699
 20
5.115211469680005
 30
0.0
 10
217.6204642715182
 20
5.335683464055371
 30
0.0
 10
218.0463795886522
 20
6.379074797436213
 30
0.0
 10
218.2578213752578
 20
6.659450150283244
 30
0.0
 10
218.7850440818073
 20
7.358596308446529
 30
0.0
 10
219.26666870952
 20
7.128752730310341
 30
0.0
 10
219.9091139411299
 20
6.652768934453622
 30
0.0
 10
220.3405156581239
 20
6.35193540612853
 30
0.0
 10
220.8479710691776
 20
5.43455245353294
 30
0.0
 10
220.9151571154636
 20
4.891723987381655
 30
0.0
 10
220.8095175021586
 20
4.879377555696708
 30
0.0
 10
220.2628932601042
 20
4.966192721481863
 30
0.0
 10
220.1407375512206
 20
4.998127632667045
 30
0.0
 10
219.516588447144
 20
5.161224076506176
 30
0.0
 10
218.7165900675537
 20
5.191525259733069
 30
0.0
 10
218.0647163561843
 20
5.22442740289375
 30
0.0
 10
217.9505829830961
 20
5.226085514851354
 30
0.0
 10
217.7674103797692
 20
5.146756236875305
 30
0.0
 10
217.7321104766699
 20
5.115211469680005
 30
0.0
  0
HATCH
  5
AF
330
2
100
AcDbEntity
  8
Ultra Micro Top Plate
100
AcDbHatch
 10
0.0
 20
0.0
 30
0.0
210
0.0
220
0.0
230
0.9999999999999998
  2
SOLID
 70
     1
 71
     0
 91
       10
 92
        1
 93
        1
 72
     4
 94
        3
 73
     0
 74
     0
 95
       80
 96
       76
 40
0.0
 40
0.0
 40
0.0
 40
0.0
 40
1.0
 40
1.0
 40
1.0
 40
2.0
 40
2.0
 40
2.0
 40
3.0
 40
3.0
 40
3.0
 40
4.0
 40
4.0
 40
4.0
 40
5.0
 40
5.0
 40
5.0
 40
6.0
 40
6.0
 40
6.0
 40
7.0
 40
7.0
 40
7.0
 40
8.0
 40
8.0
 40
8.0
 40
9.0
 40
9.0
 40
9.0
 40
10.0
 40
10.0
 40
10.0
 40
11.0
 40
11.0
 40
11.0
 40
12.0
 40
12.0
 40
12.0
 40
13.0
 40
13.0
 40
13.0
 40
14.0
 40
14.0
 40
14.0
 40
15.0
 40
15.0
 40
15.0
 40
16.0
 40
16.0
 40
16.0
 40
17.0
 40
17.0
 40
17.0
 40
18.0
 40
18.0
 40
18.0
 40
19.0
 40
19.0
 40
19.0
 40
20.0
 40
20.0
 40
20.0
 40
21.0
 40
21.0
 40
21.0
 40
22.0
 40
22.0
 40
22.0
 40
23.0
 40
23.0
 40
23.0
 40
24.0
 40
24.0
 40
24.0
 40
25.0
 40
25.0
 40
25.0
 40
25.0
 10
217.683342477914
 20
12.26595746324936
 10
216.4583472451663
 20
12.24791330370959
 10
215.7766437745579
 20
11.47501367542792
 10
215.111822159519
 20
10.37287315954593
 10
214.4680845759421
 20
12.70777114797767
 10
214.1322031125111
 20
15.35684071239428
 10
213.9090651342039
 20
17.75993261908628
 10
213.856810223537
 20
17.93950451850507
 10
213.6886175238279
 20
17.92146848696507
 10
213.5627066790402
 20
17.84163527300185
 10
213.3457378525755
 20
17.70452404449989
 10
213.4649674815337
 20
17.26814799163279
 10
213.4819956410993
 20
17.03415100560258
 10
213.6329325972486
 20
14.96221006646218
 10
214.1668365196276
 20
11.43785246037602
 10
214.6759744266383
 20
9.478272990368953
 10
213.3110150374614
 20
6.478122602909255
 10
213.2228831357098
 20
1.458123626980103
 10
214.108062953127
 20
-1.600255750994192
 10
214.0669108901768
 20
-1.587787399312173
 10
212.1677712266279
 20
-1.285572111022383
 10
212.0429820458116
 20
-1.265877967524783
 10
212.0354473900039
 20
-1.26469940755488
 10
211.9739997115714
 20
-1.255279055795262
 10
211.9528100161121
 20
-1.250483535917601
 10
211.7954681961262
 20
-1.215118608819748
 10
211.676238567168
 20
-1.157767442282993
 10
211.5204410671427
 20
-1.288408782950054
 10
211.3881416145179
 20
-1.399372236119061
 10
211.3990168782405
 20
-1.458649738606881
 10
211.3985129422534
 20
-1.665921861318774
 10
211.4838975800751
 20
-1.687509828768106
 10
211.4718681403819
 20
-1.730726403665548
 10
211.6478962318911
 20
-1.74485286730517
 10
211.7721733487205
 20
-1.754850307050082
 10
211.8147721956337
 20
-1.753858691075428
 10
211.9290518727182
 20
-1.77938873842414
 10
212.492907474333
 20
-1.905348351210513
 10
213.6537809167167
 20
-2.137272697293683
 10
214.2287231100487
 20
-2.216992119259857
 10
214.9048507727992
 20
-5.509587939258787
 10
217.8537866335656
 20
-12.45502065806599
 10
220.1264972955839
 20
-13.78304641618526
 10
220.7710639351397
 20
-14.06602272896591
 10
221.2864278899917
 20
-13.94806106797536
 10
221.4837432129578
 20
-13.21321673472282
 10
221.8844942427337
 20
-11.72057459680328
 10
221.2532737788374
 20
-9.824109045186137
 10
220.9980545853487
 20
-8.919096908274973
 10
223.2498031359018
 20
-9.492332221650435
 10
223.8446020327272
 20
-7.545700655313173
 10
224.0265960760841
 20
-5.622209504385561
 10
224.0941966503595
 20
-4.907530738618559
 10
224.0800945707192
 20
-4.189885252927204
 10
224.0915225384277
 20
-3.446197655900185
 10
224.9938849474065
 20
-3.469329943310065
 10
229.170506408852
 20
-3.647430674766336
 10
229.7489030020959
 20
-3.174299806836915
 10
230.0535566903235
 20
-2.925103461194456
 10
229.7451966341904
 20
-2.655505836072506
 10
229.5844166702923
 20
-2.681409771411553
 10
229.5129065281166
 20
-2.711223274650973
 10
229.5090294722156
 20
-2.777848488951284
 10
229.3722921317041
 20
-2.815985063978304
 10
227.7417747333021
 20
-3.136146975810269
 10
225.7104087691265
 20
-3.084119649137591
 10
224.059839595236
 20
-2.942562404748995
 10
223.7713606265957
 20
0.9925274148584218
 10
222.5359046581148
 20
6.458582891407735
 10
220.4821460545105
 20
9.776066646771743
 10
219.8986125653977
 20
10.75471846180415
 10
218.9336483020161
 20
12.28438363877916
 10
217.683342477914
 20
12.26595746324936
 10
217.683342477914
 20
12.26595746324936
 10
217.683342477914
 20
12.26595746324936
 10
217.683342477914
 20
12.26595746324936
 97
        0
 92
        1
 93
        1
 72
     4
 94
        3
 73
     0
 74
     0
 95
       23
 96
       19
 40
0.0
 40
0.0
 40
0.0
 40
0.0
 40
1.0
 40
1.0
 40
1.0
 40
2.0
 40
2.0
 40
2.0
 40
3.0
 40
3.0
 40
3.0
 40
4.0
 40
4.0
 40
4.0
 40
5.0
 40
5.0
 40
5.0
 40
6.0
 40
6.0
 40
6.0
 40
6.0
 10
218.9312505420772
 20
-2.398059570640479
 10
218.2476126075183
 20
-0.3742038782733019
 10
215.7206499839864
 20
7.288971862222772
 10
215.2933772908871
 20
9.481296606291873
 10
215.6456773138992
 20
10.36042919186338
 10
216.4067832144818
 20
11.81575568273486
 10
217.5355591856843
 20
11.81377245078548
 10
219.4081121619115
 20
11.81049686686904
 10
220.8604638048588
 20
7.769052169974949
 10
221.5562449711081
 20
6.130106035787943
 10
222.5662058413418
 20
3.517482422441505
 10
223.3717068767917
 20
-0.2074904745265762
 10
223.5655921838453
 20
-2.863241254772719
 10
221.9076509141429
 20
-2.755130729530846
 10
220.5406432690182
 20
-2.700274858930269
 10
218.9312505420772
 20
-2.398059570640479
 10
218.9312505420772
 20
-2.398059570640479
 10
218.9312505420772
 20
-2.398059570640479
 10
218.9312505420772
 20
-2.398059570640479
 97
        0
 92
        1
 93
        1
 72
     4
 94
        3
 73
     0
 74
     0
 95
       26
 96
       22
 40
0.0
 40
0.0
 40
0.0
 40
0.0
 40
1.0
 40
1.0
 40
1.0
 40
2.0
 40
2.0
 40
2.0
 40
3.0
 40
3.0
 40
3.0
 40
4.0
 40
4.0
 40
4.0
 40
5.0
 40
5.0
 40
5.0
 40
6.0
 40
6.0
 40
6.0
 40
7.0
 40
7.0
 40
7.0
 40
7.0
 10
216.4887378363909
 20
-7.452277425696672
 10
215.6150184986813
 20
-5.327276903909921
 10
215.3380487777475
 20
-4.815229172973311
 10
214.8124597991563
 20
-2.419997042080749
 10
214.806241879315
 20
-2.391516530807393
 10
214.7295216892722
 20
-2.252218870361093
 10
214.8867659732606
 20
-2.280073525650522
 10
215.4497518788976
 20
-2.379812211105917
 10
215.8704327641651
 20
-2.493327856209916
 10
216.4211616461149
 20
-2.54924849478334
 10
217.3420721506206
 20
-6.157682130724503
 10
219.5883586853129
 20
-8.331946459254373
 10
220.418788296127
 20
-8.752424144527109
 10
221.34763985643
 20
-11.13908936363817
 10
221.3073005934591
 20
-13.31561327611041
 10
220.8077212142045
 20
-13.48113186388769
 10
219.7555597690473
 20
-13.75217627297284
 10
216.9313155530999
 20
-8.816521550891826
 10
216.4887378363909
 20
-7.452277425696672
 10
216.4887378363909
 20
-7.452277425696672
 10
216.4887378363909
 20
-7.452277425696672
 10
216.4887378363909
 20
-7.452277425696672
 97
        0
 92
        1
 93
        1
 72
     4
 94
        3
 73
     0
 74
     0
 95
       35
 96
       31
 40
0.0
 40
0.0
 40
0.0
 40
0.0
 40
1.0
 40
1.0
 40
1.0
 40
2.0
 40
2.0
 40
2.0
 40
3.0
 40
3.0
 40
3.0
 40
4.0
 40
4.0
 40
4.0
 40
5.0
 40
5.0
 40
5.0
 40
6.0
 40
6.0
 40
6.0
 40
7.0
 40
7.0
 40
7.0
 40
8.0
 40
8.0
 40
8.0
 40
9.0
 40
9.0
 40
9.0
 40
10.0
 40
10.0
 40
10.0
 40
10.0
 10
214.9205459403988
 20
8.483820343739608
 10
215.1556239504015
 20
7.196808472574059
 10
217.6553902866272
 20
-0.626334431840942
 10
218.3690124124211
 20
-2.324078516527906
 10
217.576686864635
 20
-2.252121334363664
 10
217.1889731465264
 20
-2.123772089638068
 10
216.7907255406866
 20
-2.079945914756162
 10
216.3638186075778
 20
-0.7720125721243951
 10
215.8004669419502
 20
1.625804262702247
 10
215.8034092778752
 20
2.684955787680999
 10
215.8039457258614
 20
2.880564230690604
 10
215.7547550711164
 20
3.651732595016553
 10
215.4730873663023
 20
3.670077490548379
 10
215.2791858032492
 20
3.493935607042264
 10
215.326734602036
 20
3.170937023282628
 10
215.3278237540083
 20
2.940443205163035
 10
215.3329606498773
 20
1.842155361182674
 10
216.1065267741419
 20
-1.553714824181524
 10
216.2458488185875
 20
-1.9820766692531
 10
216.1503692050234
 20
-1.975688061416012
 10
215.0922824480174
 20
-1.820329473379578
 10
214.8323246306496
 20
-1.775731138517357
 10
214.7428841209313
 20
-1.749136323195879
 10
214.7548404086264
 20
-1.746031427275074
 10
214.6355132436707
 20
-1.742430723366942
 10
213.9513226051257
 20
0.4535272366094605
 10
213.8080340967814
 20
6.436629163967921
 10
214.9205459403988
 20
8.483820343739608
 10
214.9205459403988
 20
8.483820343739608
 10
214.9205459403988
 20
8.483820343739608
 10
214.9205459403988
 20
8.483820343739608
 97
        0
 92
        1
 93
        1
 72
     4
 94
        3
 73
     0
 74
     0
 95
       20
 96
       16
 40
0.0
 40
0.0
 40
0.0
 40
0.0
 40
1.0
 40
1.0
 40
1.0
 40
2.0
 40
2.0
 40
2.0
 40
3.0
 40
3.0
 40
3.0
 40
4.0
 40
4.0
 40
4.0
 40
5.0
 40
5.0
 40
5.0
 40
5.0
 10
223.5839533353769
 20
-3.393089305255115
 10
223.6681187732296
 20
-4.965865393130277
 10
223.4697224262911
 20
-7.152224185351666
 10
222.6258084638212
 20
-8.123959072560651
 10
222.2031199626049
 20
-8.610655572143866
 10
221.4679586373603
 20
-8.583743764830456
 10
220.8088997741744
 20
-8.280821340558691
 10
220.6431698584025
 20
-7.788825385110555
 10
219.2874763889891
 20
-3.541904853458461
 10
219.1167721373441
 20
-2.98503120366552
 10
220.1094528800188
 20
-3.146607711543418
 10
222.2052169865514
 20
-3.356781530181404
 10
223.5839533353769
 20
-3.393089305255115
 10
223.5839533353769
 20
-3.393089305255115
 10
223.5839533353769
 20
-3.393089305255115
 10
223.5839533353769
 20
-3.393089305255115
 97
        0
 92
        1
 93
        1
 72
     4
 94
        3
 73
     0
 74
     0
 95
       41
 96
       37
 40
0.0
 40
0.0
 40
0.0
 40
0.0
 40
1.0
 40
1.0
 40
1.0
 40
2.0
 40
2.0
 40
2.0
 40
3.0
 40
3.0
 40
3.0
 40
4.0
 40
4.0
 40
4.0
 40
5.0
 40
5.0
 40
5.0
 40
6.0
 40
6.0
 40
6.0
 40
7.0
 40
7.0
 40
7.0
 40
8.0
 40
8.0
 40
8.0
 40
9.0
 40
9.0
 40
9.0
 40
10.0
 40
10.0
 40
10.0
 40
11.0
 40
11.0
 40
11.0
 40
12.0
 40
12.0
 40
12.0
 40
12.0
 10
220.6875487372703
 20
4.356966625024457
 10
220.0404217777799
 20
4.521103452836956
 10
218.6492658452712
 20
4.654987865421357
 10
217.9587353668881
 20
4.633147929978517
 10
217.7744410995899
 20
4.627320154127178
 10
217.8207706984079
 20
4.684850136659411
 10
217.7100185732334
 20
4.67750242484692
 10
217.7241206528736
 20
4.509399133135562
 10
217.731240780692
 20
4.458436574435731
 10
217.6177657755869
 20
4.366484512781667
 10
217.5040631864878
 20
4.274345507132353
 10
217.4888150588768
 20
4.270590371228141
 10
217.3220285031319
 20
4.258268323542512
 10
217.0250882867075
 20
4.641739225759252
 10
217.1732779789269
 20
5.109660045821732
 10
217.2533631608837
 20
5.550392706577571
 10
217.4369909321989
 20
6.561109480792087
 10
218.0572792363741
 20
7.592195022486923
 10
219.1710346639599
 20
7.628575949558745
 10
220.4615253190367
 20
7.670670860484772
 10
220.9809857857842
 20
6.005251830973196
 10
221.3514681443323
 20
5.331700744156882
 10
221.5223349559732
 20
5.021048592082355
 10
221.3797860956098
 20
4.345197281324641
 10
221.2110163079156
 20
4.034984041238955
 10
221.2110163079156
 20
4.034984041238955
 10
221.0988092707782
 20
4.040949993086747
 10
221.0988092707782
 20
4.040949993086747
 10
221.0649398956423
 20
4.141314534526233
 10
221.0231213367092
 20
4.312270754164725
 10
220.9100933715927
 20
4.333216609630341
 10
220.8460609892263
 20
4.345075361327814
 10
220.7600992634194
 20
4.338556705494125
 10
220.6875487372703
 20
4.356966625024457
 10
220.6875487372703
 20
4.356966625024457
 10
220.6875487372703
 20
4.356966625024457
 10
220.6875487372703
 20
4.356966625024457
 97
        0
 92
        1
 93
        1
 72
     4
 94
        3
 73
     0
 74
     0
 95
       32
 96
       28
 40
0.0
 40
0.0
 40
0.0
 40
0.0
 40
1.0
 40
1.0
 40
1.0
 40
2.0
 40
2.0
 40
2.0
 40
3.0
 40
3.0
 40
3.0
 40
4.0
 40
4.0
 40
4.0
 40
5.0
 40
5.0
 40
5.0
 40
6.0
 40
6.0
 40
6.0
 40
7.0
 40
7.0
 40
7.0
 40
8.0
 40
8.0
 40
8.0
 40
9.0
 40
9.0
 40
9.0
 40
9.0
 10
218.5172508726392
 20
0.9724187433714618
 10
218.4597615301059
 20
1.05741323720308
 10
218.4021827795749
 20
1.066370292974542
 10
218.3779044441943
 20
1.304788910892001
 10
218.3049150060563
 20
2.021865436597916
 10
218.2188313602526
 20
2.135194137706583
 10
218.3620548445985
 20
2.903233222112328
 10
218.5434880559699
 20
3.87628484528767
 10
219.8332228070659
 20
3.706133297628663
 10
220.4791305665875
 20
3.398041465488656
 10
221.3304979048674
 20
2.991917827849818
 10
221.9179490898802
 20
2.082093915061285
 10
221.8793573468647
 20
1.132979251275227
 10
221.8225182443148
 20
-0.2650204570588089
 10
220.2342095488359
 20
-0.0171327193830173
 10
219.4005124821053
 20
0.6625306232773973
 10
219.3181189482074
 20
0.7297085415636035
 10
218.9173597904316
 20
1.063818101039713
 10
218.895080943
 20
1.064712181016856
 10
218.8364211684965
 20
1.067085556956288
 10
218.7926437616134
 20
1.0165375262459
 10
218.7348618110875
 20
0.9936572068296102
 10
218.6625388689326
 20
0.9650222635601753
 10
218.5995468705396
 20
0.9708744234108312
 10
218.5172508726392
 20
0.9724187433714618
 10
218.5172508726392
 20
0.9724187433714618
 10
218.5172508726392
 20
0.9724187433714618
 10
218.5172508726392
 20
0.9724187433714618
 97
        0
 92
        1
 93
        1
 72
     4
 94
        3
 73
     0
 74
     0
 95
       17
 96
       13
 40
0.0
 40
0.0
 40
0.0
 40
0.0
 40
1.0
 40
1.0
 40
1.0
 40
2.0
 40
2.0
 40
2.0
 40
3.0
 40
3.0
 40
3.0
 40
4.0
 40
4.0
 40
4.0
 40
4.0
 10
220.2118169094072
 20
-7.980280420226132
 10
218.6294091417778
 20
-6.87275104048155
 10
217.4031459410624
 20
-3.952547658982137
 10
216.9243092172785
 20
-2.652213996156451
 10
217.2888906479773
 20
-2.70292458686269
 10
217.800775818918
 20
-2.794714088520985
 10
218.5286056883495
 20
-2.905539365693538
 10
218.5686523433278
 20
-3.002075619230698
 10
219.8096272236679
 20
-7.010666940963072
 10
220.2118169094072
 20
-7.980280420226132
 10
220.2118169094072
 20
-7.980280420226132
 10
220.2118169094072
 20
-7.980280420226132
 10
220.2118169094072
 20
-7.980280420226132
 97
        0
 92
        1
 93
        1
 72
     4
 94
        3
 73
     0
 74
     0
 95
       20
 96
       16
 40
0.0
 40
0.0
 40
0.0
 40
0.0
 40
1.0
 40
1.0
 40
1.0
 40
2.0
 40
2.0
 40
2.0
 40
3.0
 40
3.0
 40
3.0
 40
4.0
 40
4.0
 40
4.0
 40
5.0
 40
5.0
 40
5.0
 40
5.0
 10
218.8255459047739
 20
1.744050403685485
 10
218.7692107382112
 20
2.233185303206635
 10
218.6019690144779
 20
2.617127629411468
 10
218.9984365883631
 20
3.072555713792451
 10
219.6172943645748
 20
3.547157749684389
 10
221.6670458642813
 20
2.267607382328468
 10
221.2696516984196
 20
0.9460352560445503
 10
221.0028988732251
 20
0.0589453586760822
 10
219.6759297550789
 20
1.076188916724139
 10
219.2791614452012
 20
1.350135021735139
 10
219.1203240732535
 20
1.496877929991358
 10
219.0842194981747
 20
1.652236518027873
 10
218.8255459047739
 20
1.744050403685485
 10
218.8255459047739
 20
1.744050403685485
 10
218.8255459047739
 20
1.744050403685485
 10
218.8255459047739
 20
1.744050403685485
 97
        0
 92
        1
 93
        1
 72
     4
 94
        3
 73
     0
 74
     0
 95
       23
 96
       19
 40
0.0
 40
0.0
 40
0.0
 40
0.0
 40
1.0
 40
1.0
 40
1.0
 40
2.0
 40
2.0
 40
2.0
 40
3.0
 40
3.0
 40
3.0
 40
4.0
 40
4.0
 40
4.0
 40
5.0
 40
5.0
 40
5.0
 40
6.0
 40
6.0
 40
6.0
 40
6.0
 10
217.7321104766699
 20
5.115211469680002
 10
217.6204642715182
 20
5.335683464055367
 10
218.0463795886522
 20
6.379074797436209
 10
218.2578213752578
 20
6.65945015028324
 10
218.7850440818073
 20
7.358596308446524
 10
219.26666870952
 20
7.128752730310337
 10
219.9091139411299
 20
6.652768934453618
 10
220.3405156581239
 20
6.351935406128526
 10
220.8479710691776
 20
5.434552453532936
 10
220.9151571154636
 20
4.891723987381651
 10
220.8095175021586
 20
4.879377555696706
 10
220.2628932601042
 20
4.966192721481861
 10
220.1407375512206
 20
4.998127632667041
 10
219.516588447144
 20
5.161224076506172
 10
218.7165900675537
 20
5.191525259733066
 10
218.0647163561843
 20
5.224427402893747
 10
217.9505829830961
 20
5.226085514851351
 10
217.7674103797692
 20
5.146756236875302
 10
217.7321104766699
 20
5.115211469680002
 97
        0
 75
     0
 76
     1
 98
        0
  0
POLYLINE
  5
B0
330
2
100
AcDbEntity
  8
Ultra Micro Top Plate
100
AcDb2dPolyline
 66
     1
 10
0.0
 20
0.0
 30
0.0
  0
VERTEX
  5
B1
330
B0
100
AcDbEntity
  8
Ultra Micro Top Plate
100
AcDbVertex
100
AcDb2dVertex
 10
224.1024221861497
 20
5.043928911498649
 30
0.0
  0
VERTEX
  5
B2
330
B0
100
AcDbEntity
  8
Ultra Micro Top Plate
100
AcDbVertex
100
AcDb2dVertex
 10
225.3433808104902
 20
4.311165346193019
 30
0.0
  0
VERTEX
  5
B3
330
B0
100
AcDbEntity
  8
Ultra Micro Top Plate
100
AcDbVertex
100
AcDb2dVertex
 10
225.3839070174562
 20
2.323804372894801
 30
0.0
  0
VERTEX
  5
B4
330
B0
100
AcDbEntity
  8
Ultra Micro Top Plate
100
AcDbVertex
100
AcDb2dVertex
 10
225.6852444817685
 20
2.1458662014343
 30
0.0
  0
VERTEX
  5
B5
330
B0
100
AcDbEntity
  8
Ultra Micro Top Plate
100
AcDbVertex
100
AcDb2dVertex
 10
225.6592999064304
 20
3.419011704953671
 30
0.0
  0
VERTEX
  5
B6
330
B0
100
AcDbEntity
  8
Ultra Micro Top Plate
100
AcDbVertex
100
AcDb2dVertex
 10
226.7525240065399
 20
2.773494089422183
 30
0.0
  0
VERTEX
  5
B7
330
B0
100
AcDbEntity
  8
Ultra Micro Top Plate
100
AcDbVertex
100
AcDb2dVertex
 10
226.778468581878
 20
1.500356713902665
 30
0.0
  0
VERTEX
  5
B8
330
B0
100
AcDbEntity
  8
Ultra Micro Top Plate
100
AcDbVertex
100
AcDb2dVertex
 10
228.3207890545301
 20
0.5896549771366148
 30
0.0
  0
VERTEX
  5
B9
330
B0
100
AcDbEntity
  8
Ultra Micro Top Plate
100
AcDbVertex
100
AcDb2dVertex
 10
228.358462333569
 20
-1.257969423726545
 30
0.0
  0
VERTEX
  5
BA
330
B0
100
AcDbEntity
  8
Ultra Micro Top Plate
100
AcDbVertex
100
AcDb2dVertex
 10
225.4097296727974
 20
0.4831619238534855
 30
0.0
  0
VERTEX
  5
BB
330
B0
100
AcDbEntity
  8
Ultra Micro Top Plate
100
AcDbVertex
100
AcDb2dVertex
 10
225.4186054485709
 20
0.0484439829440722
 30
0.0
  0
VERTEX
  5
BC
330
B0
100
AcDbEntity
  8
Ultra Micro Top Plate
100
AcDbVertex
100
AcDb2dVertex
 10
224.189464935929
 20
0.7742012124284608
 30
0.0
  0
VERTEX
  5
BD
330
B0
100
AcDbEntity
  8
Ultra Micro Top Plate
100
AcDbVertex
100
AcDb2dVertex
 10
224.1024221861497
 20
5.043928911498649
 30
0.0
  0
VERTEX
  5
BE
330
B0
100
AcDbEntity
  8
Ultra Micro Top Plate
100
AcDbVertex
100
AcDb2dVertex
 10
224.1024221861497
 20
5.043928911498649
 30
0.0
  0
SEQEND
  5
BF
330
B0
100
AcDbEntity
  8
Ultra Micro Top Plate
  0
POLYLINE
  5
C0
330
2
100
AcDbEntity
  8
Ultra Micro Top Plate
100
AcDb2dPolyline
 66
     1
 10
0.0
 20
0.0
 30
0.0
  0
VERTEX
  5
C1
330
C0
100
AcDbEntity
  8
Ultra Micro Top Plate
100
AcDbVertex
100
AcDb2dVertex
 10
225.3122505712844
 20
5.265205577853419
 30
0.0
  0
VERTEX
  5
C2
330
C0
100
AcDbEntity
  8
Ultra Micro Top Plate
100
AcDbVertex
100
AcDb2dVertex
 10
228.2609832320559
 20
3.524074230273307
 30
0.0
  0
VERTEX
  5
C3
330
C0
100
AcDbEntity
  8
Ultra Micro Top Plate
100
AcDbVertex
100
AcDb2dVertex
 10
228.223309953017
 20
5.371698631136466
 30
0.0
  0
VERTEX
  5
C4
330
C0
100
AcDbEntity
  8
Ultra Micro Top Plate
100
AcDbVertex
100
AcDb2dVertex
 10
226.9823757126759
 20
6.104437812442782
 30
0.0
  0
VERTEX
  5
C5
330
C0
100
AcDbEntity
  8
Ultra Micro Top Plate
100
AcDbVertex
100
AcDb2dVertex
 10
226.9434344656694
 20
8.014152003721871
 30
0.0
  0
VERTEX
  5
C6
330
C0
100
AcDbEntity
  8
Ultra Micro Top Plate
100
AcDbVertex
100
AcDb2dVertex
 10
226.2048918925112
 20
9.017797418116721
 30
0.0
  0
VERTEX
  5
C7
330
C0
100
AcDbEntity
  8
Ultra Micro Top Plate
100
AcDbVertex
100
AcDb2dVertex
 10
224.857578390884
 20
9.813349781820569
 30
0.0
  0
VERTEX
  5
C8
330
C0
100
AcDbEntity
  8
Ultra Micro Top Plate
100
AcDbVertex
100
AcDb2dVertex
 10
224.0071539005802
 20
9.717293080271108
 30
0.0
  0
VERTEX
  5
C9
330
C0
100
AcDbEntity
  8
Ultra Micro Top Plate
100
AcDbVertex
100
AcDb2dVertex
 10
224.0919858344159
 20
5.556244866428395
 30
0.0
  0
VERTEX
  5
CA
330
C0
100
AcDbEntity
  8
Ultra Micro Top Plate
100
AcDbVertex
100
AcDb2dVertex
 10
225.3211182190581
 20
4.830487636943924
 30
0.0
  0
VERTEX
  5
CB
330
C0
100
AcDbEntity
  8
Ultra Micro Top Plate
100
AcDbVertex
100
AcDb2dVertex
 10
225.3122505712844
 20
5.265205577853419
 30
0.0
  0
VERTEX
  5
CC
330
C0
100
AcDbEntity
  8
Ultra Micro Top Plate
100
AcDbVertex
100
AcDb2dVertex
 10
225.3122505712844
 20
5.265205577853419
 30
0.0
  0
SEQEND
  5
CD
330
C0
100
AcDbEntity
  8
Ultra Micro Top Plate
  0
POLYLINE
  5
CE
330
2
100
AcDbEntity
  8
Ultra Micro Top Plate
100
AcDb2dPolyline
 66
     1
 10
0.0
 20
0.0
 30
0.0
  0
VERTEX
  5
CF
330
CE
100
AcDbEntity
  8
Ultra Micro Top Plate
100
AcDbVertex
100
AcDb2dVertex
 10
225.7354917764866
 20
6.840680161659636
 30
0.0
  0
VERTEX
  5
D0
330
CE
100
AcDbEntity
  8
Ultra Micro Top Plate
100
AcDbVertex
100
AcDb2dVertex
 10
225.2805026040943
 20
7.109351194805356
 30
0.0
  0
VERTEX
  5
D1
330
CE
100
AcDbEntity
  8
Ultra Micro Top Plate
100
AcDbVertex
100
AcDb2dVertex
 10
225.2675303164252
 20
7.745919882565074
 30
0.0
  0
VERTEX
  5
D2
330
CE
100
AcDbEntity
  8
Ultra Micro Top Plate
100
AcDbVertex
100
AcDb2dVertex
 10
225.7225276168173
 20
7.477248849419436
 30
0.0
  0
VERTEX
  5
D3
330
CE
100
AcDbEntity
  8
Ultra Micro Top Plate
100
AcDbVertex
100
AcDb2dVertex
 10
225.7354917764866
 20
6.840680161659636
 30
0.0
  0
VERTEX
  5
D4
330
CE
100
AcDbEntity
  8
Ultra Micro Top Plate
100
AcDbVertex
100
AcDb2dVertex
 10
225.7354917764866
 20
6.840680161659636
 30
0.0
  0
SEQEND
  5
D5
330
CE
100
AcDbEntity
  8
Ultra Micro Top Plate
  0
POLYLINE
  5
D6
330
2
100
AcDbEntity
  8
Ultra Micro Top Plate
100
AcDb2dPolyline
 66
     1
 10
0.0
 20
0.0
 30
0.0
  0
VERTEX
  5
D7
330
D6
100
AcDbEntity
  8
Ultra Micro Top Plate
100
AcDbVertex
100
AcDb2dVertex
 10
226.2573256191735
 20
11.88595721694392
 30
0.0
  0
VERTEX
  5
D8
330
D6
100
AcDbEntity
  8
Ultra Micro Top Plate
100
AcDbVertex
100
AcDb2dVertex
 10
223.9205907027885
 20
13.96367716393685
 30
0.0
  0
VERTEX
  5
D9
330
D6
100
AcDbEntity
  8
Ultra Micro Top Plate
100
AcDbVertex
100
AcDb2dVertex
 10
223.8810317277978
 20
15.90443218642406
 30
0.0
  0
VERTEX
  5
DA
330
D6
100
AcDbEntity
  8
Ultra Micro Top Plate
100
AcDbVertex
100
AcDb2dVertex
 10
228.0865888685051
 20
12.07898095601952
 30
0.0
  0
VERTEX
  5
DB
330
D6
100
AcDbEntity
  8
Ultra Micro Top Plate
100
AcDbVertex
100
AcDb2dVertex
 10
228.1391201311648
 20
9.501665373772283
 30
0.0
  0
VERTEX
  5
DC
330
D6
100
AcDbEntity
  8
Ultra Micro Top Plate
100
AcDbVertex
100
AcDb2dVertex
 10
223.9889471810446
 20
10.61002380949567
 30
0.0
  0
VERTEX
  5
DD
330
D6
100
AcDbEntity
  8
Ultra Micro Top Plate
100
AcDbVertex
100
AcDb2dVertex
 10
223.9493882060539
 20
12.5508194719819
 30
0.0
  0
VERTEX
  5
DE
330
D6
100
AcDbEntity
  8
Ultra Micro Top Plate
100
AcDbVertex
100
AcDb2dVertex
 10
226.2573256191735
 20
11.88595721694392
 30
0.0
  0
SEQEND
  5
DF
330
D6
100
AcDbEntity
  8
Ultra Micro Top Plate
  0
HATCH
  5
E0
330
2
100
AcDbEntity
  8
Ultra Micro Top Plate
100
AcDbHatch
 10
0.0
 20
0.0
 30
0.0
210
0.0
220
0.0
230
0.9999999999999998
  2
SOLID
 70
     1
 71
     0
 91
        4
 92
        1
 93
       12
 72
     1
 10
224.1024221861497
 20
5.043928911498646
 11
225.3433808104902
 21
4.311165346192999
 72
     1
 10
225.3433808104902
 20
4.311165346193016
 11
225.3839070174563
 21
2.323804372894811
 72
     1
 10
225.3839070174562
 20
2.323804372894799
 11
225.6852444817685
 21
2.145866201434388
 72
     1
 10
225.6852444817685
 20
2.145866201434299
 11
225.6592999064304
 21
3.41901170495365
 72
     1
 10
225.6592999064304
 20
3.419011704953669
 11
226.7525240065399
 21
2.773494089422205
 72
     1
 10
226.7525240065399
 20
2.773494089422181
 11
226.778468581878
 21
1.500356713902627
 72
     1
 10
226.778468581878
 20
1.500356713902663
 11
228.3207890545301
 21
0.589654977136606
 72
     1
 10
228.3207890545301
 20
0.5896549771366142
 11
228.358462333569
 21
-1.257969423726549
 72
     1
 10
228.358462333569
 20
-1.257969423726544
 11
225.4097296727974
 21
0.4831619238534853
 72
     1
 10
225.4097296727974
 20
0.4831619238534851
 11
225.418605448571
 21
0.0484439829440556
 72
     1
 10
225.4186054485709
 20
0.0484439829440719
 11
224.189464935929
 21
0.7742012124284682
 72
     1
 10
224.189464935929
 20
0.7742012124284602
 11
224.1024221861496
 21
5.043928911498626
 97
        0
 92
        1
 93
       10
 72
     1
 10
225.3122505712844
 20
5.265205577853416
 11
228.2609832320559
 21
3.524074230273374
 72
     1
 10
228.2609832320559
 20
3.524074230273305
 11
228.223309953017
 21
5.371698631136473
 72
     1
 10
228.223309953017
 20
5.371698631136463
 11
226.9823757126759
 21
6.104437812442728
 72
     1
 10
226.9823757126759
 20
6.104437812442777
 11
226.9434344656694
 21
8.014152003721912
 72
     1
 10
226.9434344656694
 20
8.014152003721866
 11
226.2048918925112
 21
9.017797418116728
 72
     1
 10
226.2048918925112
 20
9.017797418116716
 11
224.857578390884
 21
9.813349781820472
 72
     1
 10
224.857578390884
 20
9.813349781820564
 11
224.0071539005801
 21
9.71729308027117
 72
     1
 10
224.0071539005802
 20
9.717293080271105
 11
224.0919858344159
 21
5.556244866428286
 72
     1
 10
224.0919858344159
 20
5.55624486642839
 11
225.3211182190581
 21
4.830487636944006
 72
     1
 10
225.3211182190581
 20
4.830487636943922
 11
225.3122505712843
 21
5.265205577853334
 97
        0
 92
        1
 93
        4
 72
     1
 10
225.7354917764866
 20
6.840680161659632
 11
225.2805026040943
 21
7.109351194805257
 72
     1
 10
225.2805026040943
 20
7.109351194805351
 11
225.2675303164252
 21
7.745919882565122
 72
     1
 10
225.2675303164252
 20
7.74591988256507
 11
225.7225276168173
 21
7.477248849419432
 72
     1
 10
225.7225276168173
 20
7.477248849419432
 11
225.7354917764866
 21
6.840680161659657
 97
        0
 92
        1
 93
        7
 72
     1
 10
226.2573256191735
 20
11.88595721694391
 11
223.9205907027886
 21
13.96367716393686
 72
     1
 10
223.9205907027885
 20
13.96367716393684
 11
223.8810317277978
 21
15.90443218642406
 72
     1
 10
223.8810317277978
 20
15.90443218642406
 11
228.0865888685051
 21
12.07898095601944
 72
     1
 10
228.0865888685051
 20
12.07898095601951
 11
228.1391201311649
 21
9.501665373772311
 72
     1
 10
228.1391201311648
 20
9.501665373772278
 11
223.9889471810446
 21
10.61002380949569
 72
     1
 10
223.9889471810446
 20
10.61002380949566
 11
223.9493882060539
 21
12.55081947198183
 72
     1
 10
223.9493882060539
 20
12.55081947198189
 11
226.2573256191735
 21
11.88595721694394
 97
        0
 75
     0
 76
     1
 98
        0
  0
ENDSEC
  0
SECTION
  2
OBJECTS
  0
DICTIONARY
  5
A
330
0
100
AcDbDictionary
281
     1
  3
ACAD_COLOR
350
43
  3
ACAD_GROUP
350
38
  3
ACAD_LAYOUT
350
18
  3
ACAD_MATERIAL
350
C
  3
ACAD_MLEADERSTYLE
350
46
  3
ACAD_MLINESTYLE
350
39
  3
ACAD_PLOTSETTINGS
350
3A
  3
ACAD_PLOTSTYLENAME
350
9
  3
ACAD_SCALELIST
350
44
  3
ACAD_TABLESTYLE
350
45
  3
ACAD_VISUALSTYLE
350
2E
  3
ACDB_RECOMPOSE_DATA
350
F2
  3
AcDbVariableDictionary
350
E2
  3
AcDsDecomposeData
350
F8
  0
DICTIONARY
  5
1F
330
1E
100
AcDbDictionary
280
     1
281
     1
  3
ACAD_LAYERFILTERS
360
20
  3
ACAD_LAYERSTATES
360
21
  3
ACLYDICTIONARY
360
22
  0
DICTIONARY
  5
7
330
6
100
AcDbDictionary
280
     1
281
     1
  0
DICTIONARY
  5
3
330
2
100
AcDbDictionary
280
     1
281
     1
  3
ACAD_SORTENTS
360
E1
  0
DICTIONARY
  5
43
102
{ACAD_REACTORS
330
A
102
}
330
A
100
AcDbDictionary
281
     1
  0
DICTIONARY
  5
38
102
{ACAD_REACTORS
330
A
102
}
330
A
100
AcDbDictionary
281
     1
  0
DICTIONARY
  5
18
102
{ACAD_REACTORS
330
A
102
}
330
A
100
AcDbDictionary
281
     1
  3
Layout2
350
1C
  3
Model
350
17
  0
DICTIONARY
  5
C
102
{ACAD_REACTORS
330
A
102
}
330
A
100
AcDbDictionary
281
     1
  3
ByBlock
350
3F
  3
ByLayer
350
3B
  3
Global
350
B
  0
DICTIONARY
  5
46
102
{ACAD_REACTORS
330
A
102
}
330
A
100
AcDbDictionary
281
     1
  0
DICTIONARY
  5
39
102
{ACAD_REACTORS
330
A
102
}
330
A
100
AcDbDictionary
281
     1
  3
Standard
350
4A
  0
DICTIONARY
  5
3A
102
{ACAD_REACTORS
330
A
102
}
330
A
100
AcDbDictionary
281
     1
  0
ACDBDICTIONARYWDFLT
  5
9
102
{ACAD_REACTORS
330
A
102
}
330
A
100
AcDbDictionary
281
     1
  3
Normal
350
8
100
AcDbDictionaryWithDefault
340
8
  0
DICTIONARY
  5
44
102
{ACAD_REACTORS
330
A
102
}
330
A
100
AcDbDictionary
281
     1
  3
A0
350
4F
  3
A1
350
50
  3
A2
350
51
  3
A3
350
52
  3
A4
350
53
  3
A5
350
54
  3
A6
350
55
  3
A7
350
56
  3
A8
350
57
  3
A9
350
58
  3
B0
350
59
  3
B1
350
5A
  3
B2
350
5B
  3
B3
350
5C
  3
B4
350
5D
  3
B5
350
5E
  3
B6
350
5F
  3
B7
350
60
  3
B8
350
61
  3
B9
350
62
  3
C0
350
63
  3
C1
350
64
  3
C2
350
65
  3
C3
350
66
  3
C4
350
67
  3
C5
350
68
  3
C6
350
69
  3
C7
350
6A
  3
C8
350
6B
  3
C9
350
6C
  3
D0
350
6D
  3
D1
350
6E
  3
D2
350
6F
  0
DICTIONARY
  5
45
102
{ACAD_REACTORS
330
A
102
}
330
A
100
AcDbDictionary
281
     1
  3
Standard
350
4B
  0
DICTIONARY
  5
2E
102
{ACAD_REACTORS
330
A
102
}
330
A
100
AcDbDictionary
281
     1
  3
2dWireframe
350
2D
  3
Realistic
350
4D
  3
Wireframe
350
4E
  0
XRECORD
  5
F2
102
{ACAD_REACTORS
330
A
102
}
330
A
100
AcDbXrecord
280
     1
 90
        1
330
4B
  0
DICTIONARY
  5
E2
102
{ACAD_REACTORS
330
A
102
}
330
A
100
AcDbDictionary
281
     1
  3
CANNOSCALE
350
E8
  3
CMLEADERSTYLE
350
E4
  3
CTABLESTYLE
350
E3
  3
CVIEWDETAILSTYLE
350
E5
  3
CVIEWSECTIONSTYLE
350
E6
  3
DIMASSOC
350
EF
  3
HIDETEXT
350
EE
  3
INDEXCTL
350
ED
  3
LAYEREVAL
350
EA
  3
LAYERNOTIFY
350
EB
  3
LIGHTINGUNITS
350
E9
  3
MSLTSCALE
350
E7
  3
SORTENTS
350
EC
  3
XCLIPFRAME
350
F0
  0
DICTIONARY
  5
F8
102
{ACAD_REACTORS
330
A
102
}
330
A
100
AcDbDictionary
281
     1
  3
AcDsRecords
350
FA
  3
AcDsSchemas
350
F9
1001
ACAD
1070
     2
  0
DICTIONARY
  5
20
102
{ACAD_REACTORS
330
1F
102
}
330
1F
100
AcDbDictionary
281
     1
  0
DICTIONARY
  5
21
102
{ACAD_REACTORS
330
1F
102
}
330
1F
100
AcDbDictionary
281
     1
  0
DICTIONARY
  5
22
102
{ACAD_REACTORS
330
1F
102
}
330
1F
100
AcDbDictionary
281
     1
1001
ACAD
1000
<All
  0
SORTENTSTABLE
  5
E1
102
{ACAD_REACTORS
330
3
102
}
330
3
100
AcDbSortentsTable
330
2
  0
LAYOUT
  5
1C
102
{ACAD_XDICTIONARY
360
FD
102
}
102
{ACAD_REACTORS
330
18
102
}
330
18
100
AcDbPlotSettings
  1

  2
None
  4
Letter_(8.50_x_11.00_Inches)
  6

 40
6.349999904632567
 41
6.349999904632567
 42
6.350006103515625
 43
6.350006103515625
 44
215.8999938964844
 45
279.3999938964844
 46
0.0
 47
0.0
 48
0.0
 49
0.0
140
0.0
141
0.0
142
1.0
143
1.0
 70
   688
 72
     0
 73
     1
 74
     5
  7

 75
    16
147
1.0
148
0.0
149
0.0
100
AcDbLayout
  1
Layout2
 70
     1
 71
     1
 10
-0.2500002402958907
 20
-0.2499999962453767
 11
10.74999951940822
 21
8.249999763458731
 12
0.0
 22
0.0
 32
0.0
 14
1.000000000000000E+20
 24
1.000000000000000E+20
 34
1.000000000000000E+20
 15
-1.000000000000000E+20
 25
-1.000000000000000E+20
 35
-1.000000000000000E+20
146
0.0
 13
0.0
 23
0.0
 33
0.0
 16
1.0
 26
0.0
 36
0.0
 17
0.0
 27
1.0
 37
0.0
 76
     0
330
19
1001
ACAD_PSEXT
1000
None
1000
None
1000
Not applicable
1000
The layout will not be plotted unless a new plotter configuration name is selected.
1070
     0
  0
LAYOUT
  5
17
102
{ACAD_XDICTIONARY
360
FB
102
}
102
{ACAD_REACTORS
330
18
102
}
330
18
100
AcDbPlotSettings
  1

  2
none_device
  4
ANSI_A_(8.50_x_11.00_Inches)
  6

 40
6.349999904632567
 41
19.04999923706055
 42
6.350006103515625
 43
19.04998779296875
 44
215.8999938964844
 45
279.3999938964844
 46
0.0
 47
0.0
 48
0.0
 49
0.0
140
0.0
141
0.0
142
1.0
143
2.584895464708373
 70
 11952
 72
     0
 73
     1
 74
     0
  7

 75
     0
147
0.3868628397755418
148
0.0
149
0.0
100
AcDbLayout
  1
Model
 70
     1
 71
     0
 10
0.0
 20
0.0
 11
12.0
 21
9.0
 12
0.0
 22
0.0
 32
0.0
 14
0.0
 24
0.0
 34
0.0
 15
0.0
 25
0.0
 35
0.0
146
0.0
 13
0.0
 23
0.0
 33
0.0
 16
1.0
 26
0.0
 36
0.0
 17
0.0
 27
1.0
 37
0.0
 76
     0
330
2
331
2C
  0
MATERIAL
  5
3F
102
{ACAD_XDICTIONARY
360
40
102
}
102
{ACAD_REACTORS
330
C
102
}
330
C
100
AcDbMaterial
  1
ByBlock
  0
MATERIAL
  5
3B
102
{ACAD_XDICTIONARY
360
3C
102
}
102
{ACAD_REACTORS
330
C
102
}
330
C
100
AcDbMaterial
  1
ByLayer
  0
MATERIAL
  5
B
102
{ACAD_XDICTIONARY
360
D
102
}
102
{ACAD_REACTORS
330
C
102
}
330
C
100
AcDbMaterial
  1
Global
 43
0.0208000000566244
 43
0.0
 43
0.0
 43
0.0
 43
0.0
 43
0.0208000000566244
 43
0.0
 43
0.0
 43
0.0
 43
0.0
 43
1.0
 43
0.0
 43
0.0
 43
0.0
 43
0.0
 43
1.0
 49
0.0208000000566244
 49
0.0
 49
0.0
 49
0.0
 49
0.0
 49
0.0208000000566244
 49
0.0
 49
0.0
 49
0.0
 49
0.0
 49
1.0
 49
0.0
 49
0.0
 49
0.0
 49
0.0
 49
1.0
142
0.0208000000566244
142
0.0
142
0.0
142
0.0
142
0.0
142
0.0208000000566244
142
0.0
142
0.0
142
0.0
142
0.0
142
1.0
142
0.0
142
0.0
142
0.0
142
0.0
142
1.0
144
0.0208000000566244
144
0.0
144
0.0
144
0.0
144
0.0
144
0.0208000000566244
144
0.0
144
0.0
144
0.0
144
0.0
144
1.0
144
0.0
144
0.0
144
0.0
144
0.0
144
1.0
1001
ACAD
1070
    -1
1070
     3
1070
     0
1000

1071
        0
1070
     0
  0
MLINESTYLE
  5
4A
102
{ACAD_REACTORS
330
39
102
}
330
39
100
AcDbMlineStyle
  2
STANDARD
 70
     0
  3

 62
   256
 51
90.0
 52
90.0
 71
     2
 49
0.5
 62
   256
  6
BYLAYER
 49
-0.5
 62
   256
  6
BYLAYER
  0
ACDBPLACEHOLDER
  5
8
102
{ACAD_REACTORS
330
9
102
}
330
9
  0
SCALE
  5
4F
102
{ACAD_REACTORS
330
44
102
}
330
44
100
AcDbScale
 70
     0
300
1:1
140
1.0
141
1.0
290
     1
  0
SCALE
  5
50
102
{ACAD_REACTORS
330
44
102
}
330
44
100
AcDbScale
 70
     0
300
1:2
140
1.0
141
2.0
290
     0
  0
SCALE
  5
51
102
{ACAD_REACTORS
330
44
102
}
330
44
100
AcDbScale
 70
     0
300
1:4
140
1.0
141
4.0
290
     0
  0
SCALE
  5
52
102
{ACAD_REACTORS
330
44
102
}
330
44
100
AcDbScale
 70
     0
300
1:5
140
1.0
141
5.0
290
     0
  0
SCALE
  5
53
102
{ACAD_REACTORS
330
44
102
}
330
44
100
AcDbScale
 70
     0
300
1:8
140
1.0
141
8.0
290
     0
  0
SCALE
  5
54
102
{ACAD_REACTORS
330
44
102
}
330
44
100
AcDbScale
 70
     0
300
1:10
140
1.0
141
10.0
290
     0
  0
SCALE
  5
55
102
{ACAD_REACTORS
330
44
102
}
330
44
100
AcDbScale
 70
     0
300
1:16
140
1.0
141
16.0
290
     0
  0
SCALE
  5
56
102
{ACAD_REACTORS
330
44
102
}
330
44
100
AcDbScale
 70
     0
300
1:20
140
1.0
141
20.0
290
     0
  0
SCALE
  5
57
102
{ACAD_REACTORS
330
44
102
}
330
44
100
AcDbScale
 70
     0
300
1:30
140
1.0
141
30.0
290
     0
  0
SCALE
  5
58
102
{ACAD_REACTORS
330
44
102
}
330
44
100
AcDbScale
 70
     0
300
1:40
140
1.0
141
40.0
290
     0
  0
SCALE
  5
59
102
{ACAD_REACTORS
330
44
102
}
330
44
100
AcDbScale
 70
     0
300
1:50
140
1.0
141
50.0
290
     0
  0
SCALE
  5
5A
102
{ACAD_REACTORS
330
44
102
}
330
44
100
AcDbScale
 70
     0
300
1:100
140
1.0
141
100.0
290
     0
  0
SCALE
  5
5B
102
{ACAD_REACTORS
330
44
102
}
330
44
100
AcDbScale
 70
     0
300
2:1
140
2.0
141
1.0
290
     0
  0
SCALE
  5
5C
102
{ACAD_REACTORS
330
44
102
}
330
44
100
AcDbScale
 70
     0
300
4:1
140
4.0
141
1.0
290
     0
  0
SCALE
  5
5D
102
{ACAD_REACTORS
330
44
102
}
330
44
100
AcDbScale
 70
     0
300
8:1
140
8.0
141
1.0
290
     0
  0
SCALE
  5
5E
102
{ACAD_REACTORS
330
44
102
}
330
44
100
AcDbScale
 70
     0
300
10:1
140
10.0
141
1.0
290
     0
  0
SCALE
  5
5F
102
{ACAD_REACTORS
330
44
102
}
330
44
100
AcDbScale
 70
     0
300
100:1
140
100.0
141
1.0
290
     0
  0
SCALE
  5
60
102
{ACAD_REACTORS
330
44
102
}
330
44
100
AcDbScale
 70
     0
300
1/128" = 1'-0"
140
0.0078125
141
12.0
290
     0
  0
SCALE
  5
61
102
{ACAD_REACTORS
330
44
102
}
330
44
100
AcDbScale
 70
     0
300
1/64" = 1'-0"
140
0.015625
141
12.0
290
     0
  0
SCALE
  5
62
102
{ACAD_REACTORS
330
44
102
}
330
44
100
AcDbScale
 70
     0
300
1/32" = 1'-0"
140
0.03125
141
12.0
290
     0
  0
SCALE
  5
63
102
{ACAD_REACTORS
330
44
102
}
330
44
100
AcDbScale
 70
     0
300
1/16" = 1'-0"
140
0.0625
141
12.0
290
     0
  0
SCALE
  5
64
102
{ACAD_REACTORS
330
44
102
}
330
44
100
AcDbScale
 70
     0
300
3/32" = 1'-0"
140
0.09375
141
12.0
290
     0
  0
SCALE
  5
65
102
{ACAD_REACTORS
330
44
102
}
330
44
100
AcDbScale
 70
     0
300
1/8" = 1'-0"
140
0.125
141
12.0
290
     0
  0
SCALE
  5
66
102
{ACAD_REACTORS
330
44
102
}
330
44
100
AcDbScale
 70
     0
300
3/16" = 1'-0"
140
0.1875
141
12.0
290
     0
  0
SCALE
  5
67
102
{ACAD_REACTORS
330
44
102
}
330
44
100
AcDbScale
 70
     0
300
1/4" = 1'-0"
140
0.25
141
12.0
290
     0
  0
SCALE
  5
68
102
{ACAD_REACTORS
330
44
102
}
330
44
100
AcDbScale
 70
     0
300
3/8" = 1'-0"
140
0.375
141
12.0
290
     0
  0
SCALE
  5
69
102
{ACAD_REACTORS
330
44
102
}
330
44
100
AcDbScale
 70
     0
300
1/2" = 1'-0"
140
0.5
141
12.0
290
     0
  0
SCALE
  5
6A
102
{ACAD_REACTORS
330
44
102
}
330
44
100
AcDbScale
 70
     0
300
3/4" = 1'-0"
140
0.75
141
12.0
290
     0
  0
SCALE
  5
6B
102
{ACAD_REACTORS
330
44
102
}
330
44
100
AcDbScale
 70
     0
300
1" = 1'-0"
140
1.0
141
12.0
290
     0
  0
SCALE
  5
6C
102
{ACAD_REACTORS
330
44
102
}
330
44
100
AcDbScale
 70
     0
300
1-1/2" = 1'-0"
140
1.5
141
12.0
290
     0
  0
SCALE
  5
6D
102
{ACAD_REACTORS
330
44
102
}
330
44
100
AcDbScale
 70
     0
300
3" = 1'-0"
140
3.0
141
12.0
290
     0
  0
SCALE
  5
6E
102
{ACAD_REACTORS
330
44
102
}
330
44
100
AcDbScale
 70
     0
300
6" = 1'-0"
140
6.0
141
12.0
290
     0
  0
SCALE
  5
6F
102
{ACAD_REACTORS
330
44
102
}
330
44
100
AcDbScale
 70
     0
300
1'-0" = 1'-0"
140
12.0
141
12.0
290
     0
  0
TABLESTYLE
  5
4B
102
{ACAD_XDICTIONARY
360
4C
102
}
102
{ACAD_REACTORS
330
45
102
}
330
45
100
AcDbTableStyle
  3
Standard
 70
     0
 71
     0
 40
0.06
 41
0.06
280
     0
281
     0
  7
Standard
140
0.18
170
     2
 62
     0
 63
     7
283
     0
274
    -2
284
     1
 64
     0
275
    -2
285
     1
 65
     0
276
    -2
286
     1
 66
     0
277
    -2
287
     1
 67
     0
278
    -2
288
     1
 68
     0
279
    -2
289
     1
 69
     0
  7
Standard
140
0.25
170
     5
 62
     0
 63
     7
283
     0
274
    -2
284
     1
 64
     0
275
    -2
285
     1
 65
     0
276
    -2
286
     1
 66
     0
277
    -2
287
     1
 67
     0
278
    -2
288
     1
 68
     0
279
    -2
289
     1
 69
     0
  7
Standard
140
0.18
170
     5
 62
     0
 63
     7
283
     0
274
    -2
284
     1
 64
     0
275
    -2
285
     1
 65
     0
276
    -2
286
     1
 66
     0
277
    -2
287
     1
 67
     0
278
    -2
288
     1
 68
     0
279
    -2
289
     1
 69
     0
  0
VISUALSTYLE
  5
2D
102
{ACAD_XDICTIONARY
360
FF
102
}
102
{ACAD_REACTORS
330
2E
102
}
330
2E
100
AcDbVisualStyle
  2

 70
     4
 71
     0
 72
     2
 73
     1
 90
        0
 40
-0.6
 41
-30.0
 62
     5
 63
     7
 74
     1
 91
        4
 64
     7
 65
   257
 75
     1
175
     1
 42
1.0
 92
        0
 66
   257
 43
1.0
 76
     1
 77
     6
 78
     2
 67
     7
 79
     5
170
     0
171
     0
290
     0
174
     0
 93
        1
 44
0.0
173
     0
291
     0
 45
0.0
1001
ACAD
1000
AcDbSavedByObjectVersion
1070
     0
  0
VISUALSTYLE
  5
4D
102
{ACAD_XDICTIONARY
360
102
102
}
102
{ACAD_REACTORS
330
2E
102
}
330
2E
100
AcDbVisualStyle
  2

 70
     8
 71
     2
 72
     3
 73
     0
 90
        2
 40
-0.6
 41
30.0
 62
     5
 63
     7
 74
     0
 91
        0
 64
     7
 65
   257
 75
     1
175
     1
 42
1.0
 92
        8
 66
   257
 43
1.0
 76
     1
 77
     6
 78
     2
 67
     7
 79
     3
170
     0
171
     0
290
     0
174
     0
 93
       13
 44
0.0
173
     0
291
     0
 45
0.0
1001
ACAD
1000
AcDbSavedByObjectVersion
1070
     0
  0
VISUALSTYLE
  5
4E
102
{ACAD_XDICTIONARY
360
104
102
}
102
{ACAD_REACTORS
330
2E
102
}
330
2E
100
AcDbVisualStyle
  2

 70
     5
 71
     0
 72
     2
 73
     0
 90
        0
 40
-0.6
 41
-30.0
 62
     5
 63
     7
 74
     1
 91
        4
 64
     7
 65
   257
 75
     1
175
     1
 42
1.0
 92
        0
 66
   257
 43
1.0
 76
     1
 77
     6
 78
     2
 67
     7
 79
     3
170
     0
171
     0
290
     0
174
     0
 93
        1
 44
0.0
173
     0
291
     0
 45
0.0
1001
ACAD
1000
AcDbSavedByObjectVersion
1070
     0
  0
DICTIONARYVAR
  5
E8
102
{ACAD_REACTORS
330
E2
102
}
330
E2
100
DictionaryVariables
280
     0
  1
1:1
  0
DICTIONARYVAR
  5
E4
102
{ACAD_REACTORS
330
E2
102
}
330
E2
100
DictionaryVariables
280
     0
  1
STANDARD
  0
DICTIONARYVAR
  5
E3
102
{ACAD_REACTORS
330
E2
102
}
330
E2
100
DictionaryVariables
280
     0
  1
STANDARD
  0
DICTIONARYVAR
  5
E5
102
{ACAD_REACTORS
330
E2
102
}
330
E2
100
DictionaryVariables
280
     0
  1

  0
DICTIONARYVAR
  5
E6
102
{ACAD_REACTORS
330
E2
102
}
330
E2
100
DictionaryVariables
280
     0
  1

  0
DICTIONARYVAR
  5
EF
102
{ACAD_REACTORS
330
E2
102
}
330
E2
100
DictionaryVariables
280
     0
  1
2
  0
DICTIONARYVAR
  5
EE
102
{ACAD_REACTORS
330
E2
102
}
330
E2
100
DictionaryVariables
280
     0
  1
1
  0
DICTIONARYVAR
  5
ED
102
{ACAD_REACTORS
330
E2
102
}
330
E2
100
DictionaryVariables
280
     0
  1
0
  0
DICTIONARYVAR
  5
EA
102
{ACAD_REACTORS
330
E2
102
}
330
E2
100
DictionaryVariables
280
     0
  1
0
  0
DICTIONARYVAR
  5
EB
102
{ACAD_REACTORS
330
E2
102
}
330
E2
100
DictionaryVariables
280
     0
  1
0
  0
DICTIONARYVAR
  5
E9
102
{ACAD_REACTORS
330
E2
102
}
330
E2
100
DictionaryVariables
280
     0
  1
2
  0
DICTIONARYVAR
  5
E7
102
{ACAD_REACTORS
330
E2
102
}
330
E2
100
DictionaryVariables
280
     0
  1
1
  0
DICTIONARYVAR
  5
EC
102
{ACAD_REACTORS
330
E2
102
}
330
E2
100
DictionaryVariables
280
     0
  1
127
  0
DICTIONARYVAR
  5
F0
102
{ACAD_REACTORS
330
E2
102
}
330
E2
100
DictionaryVariables
280
     0
  1
2
  0
DICTIONARY
  5
FA
102
{ACAD_REACTORS
330
F8
102
}
330
F8
100
AcDbDictionary
281
     1
  0
DICTIONARY
  5
F9
102
{ACAD_REACTORS
330
F8
102
}
330
F8
100
AcDbDictionary
281
     1
  3
1724505192496
350
F3
  3
1724505192512
350
F4
  3
1724505192528
350
F5
  3
1724505192544
350
F6
  3
1724505192560
350
F7
  0
DICTIONARY
  5
FD
330
1C
100
AcDbDictionary
280
     1
281
     1
  3
ACAD_XREC_ROUNDTRIP
360
FE
  0
DICTIONARY
  5
FB
330
17
100
AcDbDictionary
280
     1
281
     1
  3
ACAD_XREC_ROUNDTRIP
360
FC
  0
DICTIONARY
  5
40
330
3F
100
AcDbDictionary
280
     1
281
     1
  3
ACAD_XREC_ROUNDTRIP
360
41
  3
FBXASSET
360
42
  0
DICTIONARY
  5
3C
330
3B
100
AcDbDictionary
280
     1
281
     1
  3
ACAD_XREC_ROUNDTRIP
360
3D
  3
FBXASSET
360
3E
  0
DICTIONARY
  5
D
330
B
100
AcDbDictionary
280
     1
281
     1
  3
ACAD_XREC_ROUNDTRIP
360
E
  3
BUMPTILE
360
F
  3
DIFFUSETILE
360
10
  3
FBXASSET
360
11
  3
OPACITYTILE
360
12
  3
REFLECTIONTILE
360
13
  0
DICTIONARY
  5
4C
330
4B
100
AcDbDictionary
280
     1
281
     1
  3
ACAD_ROUNDTRIP_2008_TABLESTYLE_CELLSTYLEMAP
360
F1
  3
ACAD_XREC_ROUNDTRIP
360
101
  0
DICTIONARY
  5
FF
330
2D
100
AcDbDictionary
280
     1
281
     1
  3
ACAD_XREC_ROUNDTRIP
360
100
  0
DICTIONARY
  5
102
330
4D
100
AcDbDictionary
280
     1
281
     1
  3
ACAD_XREC_ROUNDTRIP
360
103
  0
DICTIONARY
  5
104
330
4E
100
AcDbDictionary
280
     1
281
     1
  3
ACAD_XREC_ROUNDTRIP
360
105
  0
XRECORD
  5
F3
102
{ACAD_REACTORS
330
F9
102
}
330
F9
100
AcDbXrecord
280
     1
  1
AcDb_Thumbnail_Schema
102
{ATTRRECORD
341
F4
  2
AcDbDs::TreatedAsObjectData
280
     1
291
     1
102
ATTRRECORD}
102
{ATTRRECORD
341
F5
  2
AcDbDs::Legacy
280
     1
291
     1
102
ATTRRECORD}
  2
AcDbDs::ID
280
    10
 91
        8
102
{ATTRRECORD
341
F6
  2
AcDs:Indexable
280
     1
291
     1
102
ATTRRECORD}
102
{ATTRRECORD
341
F7
  2
AcDbDs::HandleAttribute
280
     7
282
     1
102
ATTRRECORD}
  2
Thumbnail_Data
280
    15
 91
        0
  0
XRECORD
  5
F4
102
{ACAD_REACTORS
330
F9
102
}
330
F9
100
AcDbXrecord
280
     1
  1
AcDbDs::TreatedAsObjectDataSchema
  2
AcDbDs::TreatedAsObjectData
280
     1
 91
        0
  0
XRECORD
  5
F5
102
{ACAD_REACTORS
330
F9
102
}
330
F9
100
AcDbXrecord
280
     1
  1
AcDbDs::LegacySchema
  2
AcDbDs::Legacy
280
     1
 91
        0
  0
XRECORD
  5
F6
102
{ACAD_REACTORS
330
F9
102
}
330
F9
100
AcDbXrecord
280
     1
  1
AcDbDs::IndexedPropertySchema
  2
AcDs:Indexable
280
     1
 91
        0
  0
XRECORD
  5
F7
102
{ACAD_REACTORS
330
F9
102
}
330
F9
100
AcDbXrecord
280
     1
  1
AcDbDs::HandleAttributeSchema
  2
AcDbDs::HandleAttribute
280
     7
 91
        1
284
     1
  0
XRECORD
  5
FE
102
{ACAD_REACTORS
330
FD
102
}
330
FD
100
AcDbXrecord
280
     1
102
SHADEPLOT
 70
     0
102
SHADEPLOTRESLEVEL
 70
     2
102
SHADEPLOTCUSTOMDPI
 70
   300
  0
XRECORD
  5
FC
102
{ACAD_REACTORS
330
FB
102
}
330
FB
100
AcDbXrecord
280
     1
102
SHADEPLOT
 70
     0
102
SHADEPLOTRESLEVEL
 70
     2
102
SHADEPLOTCUSTOMDPI
 70
   300
  0
XRECORD
  5
41
102
{ACAD_REACTORS
330
40
102
}
330
40
100
AcDbXrecord
280
     1
102
MATERIAL
148
0.0
149
0.0
149
0.0
 93
        0
 94
      127
282
     0
 72
     1
 77
     1
171
     1
175
     1
179
     1
273
     0
  0
XRECORD
  5
42
102
{ACAD_REACTORS
330
40
102
}
330
40
100
AcDbXrecord
280
     1
 70
     1
 90
429727718
  1
508B35C9-AEE7-456F-BE74-D52651303AC6
310
504B03040A0000080000B670623B3DEE336E79000000790000001B0000006175746F6465736B2D64657369676E2D7061636B6167652E786D6C3C3F786D6C2076657273696F6E3D22312E302220656E636F64696E673D227574662D3822203F3E3C666F726D6174733E3C666F726D61743E687474703A2F2F736368656D612E
310
6175746F6465736B2E636F6D2F64657369676E2D7061636B6167652F323030393C2F666F726D61743E3C2F666F726D6174733E504B0304140006080800B670623BD486FD9CA0000000F4000000130000005B436F6E74656E745F54797065735D2E786D6C7D8EC10E82300C865F65E91D8A1E8C310C0EEA1BF002731658846E
310
D98AC1B77784ABF1D8FE5FBFBF75BBCE937A534CCEB38643598122B6FEE978D0B0485F9C41B54DDD7D022595594E1A469170414C76A4D9A4D207E29CF43ECE46F218070CC6BECC4078ACAA135ACF422C856C0E68EA1BF5669944DDD7BCDE7B1F8E415D77AECB980613C2E4AC91FC167A2B244592486606FC29C8FD7F045B9A
310
EF7053A7E60B504B0304140006080800B670623B28ED286BEB0000007C01000008000000636F72652E786D6C8D90416EC3201045AF82665B6183218D6D61A254764FD00B204C5C94182C03558F5F9C3852BBEB6A467FFE9B197D71FA9E6FE8CBACC17AD7012D0820E3B41FAD9B3A48F1826B40272956EFE32F1B20A766D3C1
310
268314D3EAD3B24BDABB685CCCAAF3A3D94515828980F42D371D04FD696655A814B3235C8B45E9AB9A4C419F5D8653B2237A1CB163DE672FD6AC209BF3C08E0D1B30EB19C3FC9D72FCC6EB231EFA33EDE96BDD341517E5064B11EDFCBCAF57A3A2194156843498524CAA0FCA5B7268F9E185D42D21A2DCEC7FA0B48CFF8492
310
759155FBBB0F2C80A4F991FB408A72CB22977B50B96EB9C91F504B0304140006080800B670623B55019EA25F0000007C00000007000000636E782E786D6C4DCB3B0E80201045D1AD90E915ED2CF8AC45050C11660C8261F98AB1B07AC9C97D42D718D865D3E909258CFD00CCE24AC6E326A164D74DC0B4128928FF32603847
310
2BA13128B1252AC747C6BAB984FC68F0B87FE8960A5C09FE86CFB69FBA01504B0304140006080800B670623B7BC41AC871010000D40300000C0000006662782F636F72652E786D6CC553ED6E8320147D15C2DF4501B56B6D90A64BBB27D80B50A5CE54C120983EFEAE1F4DD7A56BBA5FF3879273EEE59E7310BE393735EA95
310
ED2AA333CC428A91D2B9292A5D66D8BB63B0C26823B835C67D2BC348CB46657880B1E0A535BE9DA1DC68A7B403549B42CDA0EC3AE530CA6B5864B8CB3F552343E91D5474A7B095F949962A6421D0502778E72C0840D390E18DC5F170E664C205F7BE2A66B62A605A75AC94C522DDEEE3651AEF837817C741F2CE92E02D592D
310
83FD6ECB76EC7595A651C2C9D02CB8AB9A8BBADC2AE954814544691A3016D0E883256BBA58278B17BA5A53CAC9507ED3E4DBE2C9265F691747B3DCA9ADC382819091F8E1162272A8933DE82182932144F88C09DF060D8140C84E1EEA8B8F1340BDCA9DB1093085F157AA97B557309586747CD0EF0B4EA64E983A6E0EAEEFCE
310
889E9EF17847386AA94B30211D2C0FDE0D3AF9A4610EAD5536E8DD1969631B593F67E381C33F5157F17725E5A636F6BF1491F980C8FC7B90E13E8A2F504B0304140006080800B670623B70102A487D0000009D0000000B0000006662782F636E782E786D6C4DCCD10A83201886E15B91FFDC95A5C30335ACCDFB886521330D
310
A76397BF1A1DECE883878F57749FD5A3B74D2F17830472A901D9F088930B8B849267CC01754AA418F3DF0D5018572BE160506249B16C274D761E8BCFBB7A179E27F65CB39A0F14D396184C9921B81F34C3ACA1B4B99ABB6E6F062A25AA5F69DF23ACBE504B0304140006080800B670623B3610CA3329010000120200003100
310
00006662782F42384135303843342D343331462D343546312D424341352D3532343432364645413344462F636F72652E786D6C8D515B6EC32010BC0AE22B55850D0E446E848992B43E412FE000495162B07854397EA176A4F62F3F2C9A9D991D58BEBB8F37F0AD7D30CE76905418026DA553C65E3A98E219B510EC04F7CEC5
310
3F3408EC30EA0E16180A7EF12E4D0B249D8DDAC68C5AA7F4020E21E80881BCE54B0783FCD2E3500D296646B856D320AFC34557A4CAEDCC133C449F0380794839A138B47B86DB2345744D7A44594FD0E1B867883594369BFE63BF7EEF793D0B054FC9A8456E548E63CE46FB674D8A58F068C6477CE9F510B582A2C1F80D1182
310
70F349E816B32D65AFB8DD62CCEB42FF274A937A52948C8DEB66893BCB021484D7734370E5D2E9F608A3EF93F3119479ABA0E50B14B8C298119A43CCC4FCFCECB8A18B6388CEE7EF5D5D4F994BD86CBBA182D76543B9FCAE2FD7B24DF103504B0304140006080800B670623B1B8617914E0100003303000030000000666278
310
2F42384135303843342D343331462D343546312D424341352D3532343432364645413344462F636E782E786D6CD593C16EC32010447F0571AD6CE3D489D20813A9877E410FBD62D82434182CC055F3F75D1292E692438FBD206B7698593D61BEFD1E2DF982108D773D6D6B460938E5B571FB9ECE6957AD29D90A1EBC4F7736
310
4A9C1CA1A759A682EF839FA72269D8C9D92654AD71C72206887E0E0A22CAF926B15E498B01E0AA19451807D01A34B919F16B070157417138917400F2F6FA41FCF0092A45DEE414C19BDC21783E4BD39D891265658C3D8DEA00A3ACE59CBC8678ACB54CB26EEB6BD7839D7E9348BE70AD9C8321B9BCA7F9A4A26C542347DEE0
310
50F09802D22BA6749A800A394DD62899107273365E3C82CFC6A55557BC06C10774B7ABE7AEC3B0F34CF06446280E154026D0542C187BA9DAB6628BF7B6DBB0E5A65B3EB1F58631DE64BBE083F7B65CC218087E22CABB042E51D1F2268F1FE12B3EA24D40D63E9CFE00120194D60B9D5BC67FE6D39CDF37E20AF817881F504B
310
0304140006080800B670623BBFEF2E3B690500003C100000340000006662782F42384135303843342D343331462D343546312D424341352D3532343432364645413344462F6F626A656374732E786D6CAD575D739B3814FD2B0CFB0C98D84E931D4227B6938EA793B6534F3BFB90198F0099B001899144EAECAFDF231018B0
310
D37A3FFC609090EEE7B94757C1FB7D915B2F54C88CB31BDB7727B64559CC938CA53776A576CE956DBD0F03C1B9EA2DB32D460A7A63EB693B0C52C1ABD24C257447AA5C8D66EF177F5832A68CDA569C13296F6C193FD182B8A4523CA1F2D94D88226EBADBBBBEDB2C1C8A4D05299F46424B222853B014F30C52ACC6287F389C
310
D85E1878FA7B18E87FB36AFAF62AAFF667A83F635211161F291B8999FAB3D5DDC5FCDA99CF6653677679E13B8BFBC5CAF1DF4D27CBCBE5F2FAF6EE1A8AA51290642C117467871F101B91C581D77CEA2C36869F3229E68CD1B8F61F1ED6361B89092D294B90C78C4A68EB793D190E7D1D9BDEE7A91E1B95FDE9F3BCEAEFE809
310
6A6D6F9F7D4B79F4275C90E7A04248AA51D5C4C738DAE06F72885AC4796EBE65D22A88A22223B995679120E2D50EB1542F098381188D4EA111AE3DB043FF20AF6F2B4AE3D7D83D65E5AECA730D4D3BAC91BD05FEA992B565D95F549CD6069B90AB2A63EACA38A45E4B6A87D781574F86817E4C2FCCC72690D62E2729520E37
310
9BAF234797BAF6D62B3BFC781FED37BA1E4F2B2F052FA9501A3E80569BB8F6A9A364D4FA67654E6F803383981F82F21591FF84F23D9882BC896C3FDBCF8C162508933B2E0AE4C69DD43F6BD2BE38DDDBF10BF86CB4FA784D37F3AF16075E67EC9030DECA1FC0A55373F5DFF3378C591FA9BDF485C10B0A8C8BA909E5262639
310
A8E72163488806A595734C81CB77D1DE0ED7604A303B76913CEC0272F412782FF88EFF4636D8AA56DF7B322474C4B767303F625997056C7B032C473C592B36CEBD15F3F9FF5233B7ABCDC74D257624A60F8658567497B14CE1EC3C80B76FD02011038F9EE9EB0F2E12387A9C844D3F09855125116D1D731DF8B43D2CF4E0A0
310
79A020C6BE946BCE0B7EA1E1219331CD73C228AF5A2DDD31A4B1DA918CE91350854D40A71723140BFA92E94E62B0626016CEFA5864A50E5977E8753CEDBEE1CBB7F52780D20E17AF0BA0F5F9B02A3AD07DCC732EB6D1EBB661421BE0C39E21BABF0FE16D22EA6929407C8DE596724C88B749B6DB5512BC7B228ADFD7CB7EA6
310
3A22397E690BA8D5D8D4E40CEC8CDA23C2C0B7D5898640101CEC9C6D331CE328CB93CAFBBAC70A642DF70DF95155945B52F08AA973C23469FD69ADEF84F7BB18F983A8F8C90E37F5D35980B2139A1C523540813E824EF83448CF7C72B598CE97D7CEEDDDDD3B6736BFBC771677EF66CE6A7E7139F7A793E9EDF2B2B3A8B624
310
0CDA13AA5F8388264EC4A0129909F3B7F5A16CEDF08128E97D680ACA4B9BE7B7B58BB638F0B00700EF36AE8B32A705658A68F83EE897FC2B41573190D1CCAF0B92D233A47CFEB019D9809933F67DD1A5467F8CF69AD9A5AE859342D45355448C64F968A371DC2D596ADC6E43D93D1B466F877A64E2893E54F23C4B40388995
310
525E5005DA3983ED45412510D3EFCA13737B3863F74BD30F2A12E5B4B5E489A025CE25500DB855B11ACE5BBFA185D35DD48D8DC3CE7DC69F2944DB42AA6F6CF09BCA622ADD08C7A36E7C6AE18000BAB08E040135C2D21C9D75B3A91B77BB746C403F38018DFE6EC939DD92F16B40BC05294B9CDA035AAD6D330AE27FE4786B
310
8E45145EA34A75BE1C263A676A35A8ACC6297337400BF16C54EF515F3F77CB77EB3583889C754FFA29081AA98E2222ADEF05DA3E63D2EDEA8B8756C05A7FB6CABC4A91CBF325398202CC952E70A008A830324BA200D5E5EF8F5F04C75DB4B0EE3340E071C98B823333B83577596BF3849B69F2085AA0FAFA212F26BEFF5877
310
FDE622B28D88A42E49E43326DA82D31E8CB006401E1DA726059ECEC168F97A6599036306A135688F9AD2E61A6EA178F4CD51974A9F2CCB9F36FE5EBD14601068D9C3BF01504B0304140006080000B670623B000000000000000000000000350000006662782F42384135303843342D343331462D343546312D424341352D35
310
32343432364645413344462F76657274696365732E62696E504B0304140006080800B670623BF270F1330600000004000000360000006662782F42384135303843342D343331462D343546312D424341352D3532343432364645413344462F747269616E676C65732E62696E636660600000504B0304140006080000B67062
310
3B000000000000000000000000370000006662782F42384135303843342D343331462D343546312D424341352D3532343432364645413344462F617474726962757465732E62696E504B0304140006080800B670623B08DA0BD19000000041010000360000006662782F42384135303843342D343331462D343546312D4243
310
41352D3532343432364645413344462F6469726563746F72792E786D6C858F410AC3201045AF22B36F53E9A60B35CBEEBAE80D244E44489C6234F4F835464A48035D0DF398FF9F8AF63D0E6CC63039F212F8F9020C7D47C6792B21C5FE7403D62A1188E2E60C98D7234A5830286103A55745067B9D86B8A3CF9C7F90C11DE6
310
07FB144396D7B6A82D282E9A152AD114D5EF2CB866EEE831B8EEA07A7BB5A8D7D61A2BAAEB7FD5F70921FF497D00504B0304140006080800B670623B3B4606F3FE000000A00100003B0000006662782F42384135303843342D343331462D343546312D424341352D3532343432364645413344462F7265736F75726365732F
310
636F72652E786D6C8D504B6E833010BD0A9A6D65B08134808CA354A427E8052C332156828DFCA97AFC9A40A576D7CDCCE87D344F8F9FBEE647F689CE6B6B7A6039850C8DB2A336530F315C4903D94970676DF82583CCC8197B5861107C72362E3BA4AC096842428D1D7107A5F71820538F74F4E0D50D6799CB1892C2DFF345
310
AABB9C306779A2934E701F5C0A906D4FD609C2A1B7D129F4BCD858C163D4E3AED163FAA9AF1A1D88F67CA98E6D35906AA82A52BFB39ABCD5CD915C86331BD86BD3B665CD8BD52C78D0F34F46E550061C419494B6843142CB0F5677F4D0D58717DA7494F26295FF31C565FCA7296A13AA728FBBD93C0896823C09C18BB5AFB4
310
9E65A6BD762BBE01504B010214000A0000080000B670623B3DEE336E79000000790000001B00000000000000000000000000000000006175746F6465736B2D64657369676E2D7061636B6167652E786D6C504B01021400140006080800B670623BD486FD9CA0000000F40000001300000000000000000000000000B2000000
310
5B436F6E74656E745F54797065735D2E786D6C504B01021400140006080800B670623B28ED286BEB0000007C010000080000000000000000000000000083010000636F72652E786D6C504B01021400140006080800B670623B55019EA25F0000007C000000070000000000000000000000000094020000636E782E786D6C50
310
4B01021400140006080800B670623B7BC41AC871010000D40300000C00000000000000000000000000180300006662782F636F72652E786D6C504B01021400140006080800B670623B70102A487D0000009D0000000B00000000000000000000000000B30400006662782F636E782E786D6C504B01021400140006080800B6
310
70623B3610CA3329010000120200003100000000000000000000000000590500006662782F42384135303843342D343331462D343546312D424341352D3532343432364645413344462F636F72652E786D6C504B01021400140006080800B670623B1B8617914E010000330300003000000000000000000000000000D10600
310
006662782F42384135303843342D343331462D343546312D424341352D3532343432364645413344462F636E782E786D6C504B01021400140006080800B670623BBFEF2E3B690500003C10000034000000000000000000000000006D0800006662782F42384135303843342D343331462D343546312D424341352D35323434
310
32364645413344462F6F626A656374732E786D6C504B01021400140006080000B670623B0000000000000000000000003500000000000000000000000000280E00006662782F42384135303843342D343331462D343546312D424341352D3532343432364645413344462F76657274696365732E62696E504B010214001400
310
06080800B670623BF270F133060000000400000036000000000000000000000000007B0E00006662782F42384135303843342D343331462D343546312D424341352D3532343432364645413344462F747269616E676C65732E62696E504B01021400140006080000B670623B00000000000000000000000037000000000000
310
00000000000000D50E00006662782F42384135303843342D343331462D343546312D424341352D3532343432364645413344462F617474726962757465732E62696E504B01021400140006080800B670623B08DA0BD1900000004101000036000000000000000000000000002A0F00006662782F42384135303843342D3433
310
31462D343546312D424341352D3532343432364645413344462F6469726563746F72792E786D6C504B01021400140006080800B670623B3B4606F3FE000000A00100003B000000000000000000000000000E1000006662782F42384135303843342D343331462D343546312D424341352D3532343432364645413344462F72
310
65736F75726365732F636F72652E786D6C504B0506000000000E000E0080040000651100000000
  0
XRECORD
  5
3D
102
{ACAD_REACTORS
330
3C
102
}
330
3C
100
AcDbXrecord
280
     1
102
MATERIAL
148
0.0
149
0.0
149
0.0
 93
        0
 94
      127
282
     0
 72
     1
 77
     1
171
     1
175
     1
179
     1
273
     0
  0
XRECORD
  5
3E
102
{ACAD_REACTORS
330
3C
102
}
330
3C
100
AcDbXrecord
280
     1
 70
     1
 90
429727718
  1
887D55A9-D0DD-414E-B741-A7DCD4DA2B4C
310
504B03040A0000080000B670623B3DEE336E79000000790000001B0000006175746F6465736B2D64657369676E2D7061636B6167652E786D6C3C3F786D6C2076657273696F6E3D22312E302220656E636F64696E673D227574662D3822203F3E3C666F726D6174733E3C666F726D61743E687474703A2F2F736368656D612E
310
6175746F6465736B2E636F6D2F64657369676E2D7061636B6167652F323030393C2F666F726D61743E3C2F666F726D6174733E504B0304140006080800B670623BD486FD9CA0000000F4000000130000005B436F6E74656E745F54797065735D2E786D6C7D8EC10E82300C865F65E91D8A1E8C310C0EEA1BF002731658846E
310
D98AC1B77784ABF1D8FE5FBFBF75BBCE937A534CCEB38643598122B6FEE978D0B0485F9C41B54DDD7D022595594E1A469170414C76A4D9A4D207E29CF43ECE46F218070CC6BECC4078ACAA135ACF422C856C0E68EA1BF5669944DDD7BCDE7B1F8E415D77AECB980613C2E4AC91FC167A2B244592486606FC29C8FD7F045B9A
310
EF7053A7E60B504B0304140006080800B670623BBC1638F5EC0000007C01000008000000636F72652E786D6C8D90416EC3201045AF82665B61836BE2D8C24471DB9CA01740401C94182C03558F5F9C3852BBEB6A467FFE9B197D7EF89E6EE8CB2CC17AD7032D0820E394D7D68D3DA478C67B4007C117EFE32F1B202727D3C3
310
2A83E0E3E2D3BC49CABB685CCCAAF3DA6CA20CC14440EA969B1E82BA98491632C5EC08D76296EA2A4753D06797E194AC468F2356E77DF66CCD02825543D50CACC62D39ED70FDC68EB8FD68F6F8787A6784342D1DDA1D2F5758F068A7E77DB518198D065111D2624A31A93E69DD11D6D5EC85EC3B4278B9DAFF4069D6FF8492
310
75F1B5DADE7D600104CD8FDC0782976B16B9DC83CA75CD4DFC00504B0304140006080800B670623B55019EA25F0000007C00000007000000636E782E786D6C4DCB3B0E80201045D1AD90E915ED2CF8AC45050C11660C8261F98AB1B07AC9C97D42D718D865D3E909258CFD00CCE24AC6E326A164D74DC0B4128928FF326038
310
472BA13128B1252AC747C6BAB984FC68F0B87FE8960A5C09FE86CFB69FBA01504B0304140006080800B670623B3586FFB671010000D40300000C0000006662782F636F72652E786D6CC553ED6E8320147D15C2DF4541A76D6D90A6DDD627D80B50A4CE54C120983EFEAE1F4DD7A55BBA5FF3879273EEE59E7310B6393735EA
310
95ED2AA3731C851423A5A5292A5DE6D8BB63B0C268C39935C67D29C3488B46E578803167A535BE9D2169B453DA01AA4DA16650749D7218C91A1639EEE4876A4428BC838AEE14B6429E44A9C228041AEA38EB9C0501681A32BC313F1ECE8C4C3867DE57C5CC56054CAB8E95B298A7F12E5EEED224C8E87E11242FE936C8DE96
310
AB60BB7F4D295D66D12E5B30323473E6AAE6A24E5A259C2A308F29CD82280A68FC1E256B9AAE93F489AED694323294DF34F9B678B0C957DA3DC7B3DCA9ADC33C022123F1CD2D44E450277AD04338234388F01913BE0D1A0281909D38D4171F27807A259DB1093085F157AA17B557309586747CD0CF0B46A64E983A6E0EAEEF
310
CE881F9EF1FB8E70D44297604238581EBC1B74B249C31C5AAB6CD0BB33D2C636A27ECCC62F0EFF445DC5DF95244D6DEC7F2922F30191F9F720C37DE49F504B0304140006080800B670623B4220A0FF7D0000009D0000000B0000006662782F636E782E786D6C4DCCD10A83201886E15B91FFDCE542CB0335D0EC3E6259C84A
310
C3E9D8E5AF46073BFAE0E1E315DD675BD1DBA5978F41C2FD4600B9F088930F8B849267CC01754AA418F3DF0D50183727E164506249B1EC174D6E1ECB9A0F5D7D785E68DB8151CD286E5A5363CA6B8A39E90D36D40E96B086F55A43A544F52B1D7B86D517504B0304140006080800B670623B2FA3FEDE290100001202000031
310
0000006662782F45374635344235342D363743322D343832342D383044432D4334454645303536354442422F636F72652E786D6C8D515B6EC32010BC0AE22B55850D2E386E848994D7097A0117488A1283C5A3CAF10BB523B57FF961D1ECCCECC0F2ED7DBC816FED8371B687A4C210682B9D32F6D2C314CFA883602BB8772E
310
FEA141608751F7B0C050F08B77695A20E96CD43666D43AA5177008414708E42D5F7A18E4971E876A483133C2B59A06791D2EBA22556E679EE021FA1C00CC43CA09C5717D6274C7286AD7FB06D1AEA1A8C3873DDAD3E3E98859CB0EBB1DAF67A1E02919B5C88DCA71CCD968FFAC49110B1ECDF8882FBD1EA256503418BF2342
310
106E3E08DD60B6A1EC15771B8C795DE8FF4469524F8A92B1F1AD59E2CEB20005E1F5DC105CB9F4797B84D1F7C9F908CABC55D0F2050A5C61CC1AD2F27A26E6E767C7962E8E213A9FBF7775FDCC5CC266DB960A5E970DE5F2BBBE5CCB36C50F504B0304140006080800B670623B1B8617914E01000033030000300000006662
310
782F45374635344235342D363743322D343832342D383044432D4334454645303536354442422F636E782E786D6CD593C16EC32010447F0571AD6CE3D489D20813A9877E410FBD62D82434182CC055F3F75D1292E692438FBD206B7698593D61BEFD1E2DF982108D773D6D6B460938E5B571FB9ECE6957AD29D90A1EBC4F77
310
364A9C1CA1A759A682EF839FA72269D8C9D92654AD71C72206887E0E0A22CAF926B15E498B01E0AA19451807D01A34B919F16B070157417138917400F2F6FA41FCF0092A45DEE414C19BDC21783E4BD39D891265658C3D8DEA00A3ACE59CBC8678ACB54CB26EEB6BD7839D7E9348BE70AD9C8321B9BCA7F9A4A26C542347DE
310
E050F09802D22BA6749A800A394DD62899107273365E3C82CFC6A55557BC06C10774B7ABE7AEC3B0F34CF06446280E154026D0542C187BA9DAB6628BF7B6DBB0E5A65B3EB1F58631DE64BBE083F7B65CC218087E22CABB042E51D1F2268F1FE12B3EA24D40D63E9CFE00120194D60B9D5BC67FE6D39CDF37E20AF817881F50
310
4B0304140006080800B670623B29652116630500003C100000340000006662782F45374635344235342D363743322D343832342D383044432D4334454645303536354442422F6F626A656374732E786D6CAD575D739B3814FD2B0CFB0C989834C90EA1639B24E3E9A6EDD4D3CE3E64C623834CD8006224913AFDF57B040203
310
B65BEF871F0C12D2FD3CF7E8CA7FBFCB33E3957291B2E2D674ED8969D02262715A24B76625B7D6B569BC0F7CCE98EC2D338D82E4F4D654D366E0279C55A59E8AE99654991CCDDECFFF3444440B6A1A514684B83545F44C7362934AB2988A173B2692D8C97667BB76B3702836E1A47C1E092D09A78584A5982F20C5688C7287
310
C389E904BEA3BE07BEFAD7ABA6A75739B53F43FD69212429A20365233153D70BEF2E2E6FAC4BCF9B5ADEBB0BD79ADFCF43CBBD9A4E16EF168B9BD9DD0D140BC921495BC2E9D60C1E101B9E46BED37CEA2CD6861F3329624541A3DA7F7858DBAC25C6B4A4458C3CA654405BCFEBC970E8AAD8F43E4FD558ABEC4F9FE7557F47
310
4F506B7BFBEC5BCA367FC105710E2AB8A00A554D7CB4A30DFE26FBA86D18CBF4B75418399194A72433B274C3097F33032C554B027F2046A1932B842B0FCCC0DDCBEBDB8AD2F835768F59B9ADB24C41D30C6A64AF817F2A456D59FA83F2E3DA60137255A585BCD60EC9B7929AC18DEFD49381AF1ED30BFDB109A4B1CD488294
310
C3CDE6EBC8D185AABD6568061FEE37BB95AAC7E3CA4BCE4ACAA5820FA0D526AE7DAA2869B5EE5999531BE0CC20E6FBA07C41E43FA27CF7A6206F3CDD793B4F6B919C1462CB788EDCD893FA674CDA17AB7B3B7C019F8D561FAEE966FED562DFE98C1D12C6A9FC015C2A35D7FF3D7FC398F591DA4B5FE0BFA2C0189FEA50AE22
310
92817A1ED3020951A03432862970F976B33383259812CC8E5D240BBA801CBCF8CE2BBEE3BF910DB6AAD5F79E05123AE2DB33981FB1ACCB02B69D00CB014FD68AB573A7627EF9BFD4CC2C5C7D58557C4B22FAA88925A4DBB44825CECE3D78FB060D1231F0E885BE7D673C86A3874958F593906B5502D1563157814FDAC3420D
310
F69A070A22EC4B98E23CFF171A1E5311D12C23056555ABA53B8614563B92D17D02AAB009E8F46284624E5F53D5490C560CCCC2591FF1B45421EB0EBD8EA7ED13BE7C5D7E0428CD60FEF60779EB13E6664FF711CB185F6FDED60D139A001FF60CD1FD6D086F1D51474901E26B2CB794A343BC8ED3EDB612E0DD2351FCB65CF4
310
33D511C9E14B5B40ADC6A6263DB0336A8F700DDF56271A024E70B0B3629DE21847591E55DED73D56206AB927E46FAABC5C939C55853C274C93D69FD6FA4E78BF8B11DF898C9ECD60553FAD39283BA6F18984AA23E8884F83F45C5F5F859797B31B2B9C84A1E5B9DE9D35BFF25C6B76152E422F9C5DCC3D847F5801ED09D5AF
310
41441327A25FF15487F9EB725FB666F048A4701E9A827292E6F97569A32DF61DEC01C0BB8DCBBCCC684E0B49147C1FD54BF685A0AB18C868E6973949E819523E3DAC463660E68C7D9F55A9D1EFA3BD7A76A16AE1A810F95CE59B82A4D968A376DC2E8B44BBDD86B27B368CDE0ED548C7137DA860591A83706223A12CA712B4
310
7306DBF39C0A20A6DF95C7FAF670C6EED7A61F946493D1D6926782963813403548A78AE470DEF80D2D9CEAA26E4D1C76F60BFE74219A06527D6B82DF641A51616F703CAAC6A7160E08A00BEB4810A0274592A1B36E3675E36E978A0DE80727A0D6DF2D39A75BD27E0D8837276589537B40ABB56D5A41F48F1C6FCD3188C4EB
310
A6929D2FFB89CE995A4D00AE813BDD032DC48B56BD437DFDDC2DD7AED70C2272D63DE9A72068A45A92F0A4BE17A8A06B9366E16707AD80B1FC649459952097E74BB23805982B55E0401150A165964402AA8BDF9F3E7386BB686EDCA780C0D382E5392BF460A6EFB2C6EA1937D3F809B440D5F5435C4C5CF7A9EEFAF54564BD
310
2182DA24162F98680B4E7930C21A0079709CEAEB99A372305ABE0C0D7D6078105A83F6A0296DAEE1068A47DD1C55A9F4C9B2FC69E3EFD44B81028E963DF81B504B0304140006080000B670623B000000000000000000000000350000006662782F45374635344235342D363743322D343832342D383044432D433445464530
310
3536354442422F76657274696365732E62696E504B0304140006080800B670623BF270F1330600000004000000360000006662782F45374635344235342D363743322D343832342D383044432D4334454645303536354442422F747269616E676C65732E62696E636660600000504B0304140006080000B670623B00000000
310
0000000000000000370000006662782F45374635344235342D363743322D343832342D383044432D4334454645303536354442422F617474726962757465732E62696E504B0304140006080800B670623B08DA0BD19000000041010000360000006662782F45374635344235342D363743322D343832342D383044432D4334
310
454645303536354442422F6469726563746F72792E786D6C858F410AC3201045AF22B36F53E9A60B35CBEEBAE80D244E44489C6234F4F835464A48035D0DF398FF9F8AF63D0E6CC63039F212F8F9020C7D47C6792B21C5FE7403D62A1188E2E60C98D7234A5830286103A55745067B9D86B8A3CF9C7F90C11DE607FB144396
310
D7B6A82D282E9A152AD114D5EF2CB866EEE831B8EEA07A7BB5A8D7D61A2BAAEB7FD5F70921FF497D00504B0304140006080800B670623B6378F24DFF000000A00100003B0000006662782F45374635344235342D363743322D343832342D383044432D4334454645303536354442422F7265736F75726365732F636F72652E
310
786D6C8D504B6E833010BD0A9A6D65B0094E42641C85B639412F6099496225D8C89FAAC7AF09546A77DDCC8CDE47F3F4C4F16B7C149FE88371B603565228D06A37187BED20C50BD9437194C23B177FC9A0B06AC40E6618A4B87A97A615D2CE46B431A3D60DB8822A048C50E8473E3A08FA86A32A558A5911EEE5A4F45D5DB1
310
6465A6B34E8A107D0E502C4FE609D26370C96B0CA25A58295232C3AA3143FE692E063D485EF7F5AEE71BD2D2F39634AFFC44DAF7DD9E9CCE6F9CD25DCBFA762BAAD92C4534E34F46ED51451C40D694B6843142EB0FD61C283F34FC85EE0F948A6A96FF31A569F8A729191B37F51A77B105902C0779125254735F793DCBCC7B
310
EE567E03504B010214000A0000080000B670623B3DEE336E79000000790000001B00000000000000000000000000000000006175746F6465736B2D64657369676E2D7061636B6167652E786D6C504B01021400140006080800B670623BD486FD9CA0000000F40000001300000000000000000000000000B20000005B436F6E
310
74656E745F54797065735D2E786D6C504B01021400140006080800B670623BBC1638F5EC0000007C010000080000000000000000000000000083010000636F72652E786D6C504B01021400140006080800B670623B55019EA25F0000007C000000070000000000000000000000000095020000636E782E786D6C504B010214
310
00140006080800B670623B3586FFB671010000D40300000C00000000000000000000000000190300006662782F636F72652E786D6C504B01021400140006080800B670623B4220A0FF7D0000009D0000000B00000000000000000000000000B40400006662782F636E782E786D6C504B01021400140006080800B670623B2F
310
A3FEDE290100001202000031000000000000000000000000005A0500006662782F45374635344235342D363743322D343832342D383044432D4334454645303536354442422F636F72652E786D6C504B01021400140006080800B670623B1B8617914E010000330300003000000000000000000000000000D2060000666278
310
2F45374635344235342D363743322D343832342D383044432D4334454645303536354442422F636E782E786D6C504B01021400140006080800B670623B29652116630500003C10000034000000000000000000000000006E0800006662782F45374635344235342D363743322D343832342D383044432D4334454645303536
310
354442422F6F626A656374732E786D6C504B01021400140006080000B670623B0000000000000000000000003500000000000000000000000000230E00006662782F45374635344235342D363743322D343832342D383044432D4334454645303536354442422F76657274696365732E62696E504B01021400140006080800
310
B670623BF270F13306000000040000003600000000000000000000000000760E00006662782F45374635344235342D363743322D343832342D383044432D4334454645303536354442422F747269616E676C65732E62696E504B01021400140006080000B670623B0000000000000000000000003700000000000000000000
310
000000D00E00006662782F45374635344235342D363743322D343832342D383044432D4334454645303536354442422F617474726962757465732E62696E504B01021400140006080800B670623B08DA0BD190000000410100003600000000000000000000000000250F00006662782F45374635344235342D363743322D34
310
3832342D383044432D4334454645303536354442422F6469726563746F72792E786D6C504B01021400140006080800B670623B6378F24DFF000000A00100003B00000000000000000000000000091000006662782F45374635344235342D363743322D343832342D383044432D4334454645303536354442422F7265736F75
310
726365732F636F72652E786D6C504B0506000000000E000E0080040000611100000000
  0
XRECORD
  5
E
102
{ACAD_REACTORS
330
D
102
}
330
D
100
AcDbXrecord
280
     1
102
MATERIAL
148
0.0
149
0.0
149
0.0
 93
        0
 94
      127
282
     0
 72
     1
 77
     1
171
     1
175
     1
179
     1
273
     0
  0
XRECORD
  5
F
102
{ACAD_REACTORS
330
D
102
}
330
D
100
AcDbXrecord
280
     1
270
     1
271
     1
  0
XRECORD
  5
10
102
{ACAD_REACTORS
330
D
102
}
330
D
100
AcDbXrecord
280
     1
270
     1
271
     1
  0
XRECORD
  5
11
102
{ACAD_REACTORS
330
D
102
}
330
D
100
AcDbXrecord
280
     1
 70
     0
 90
1778669749
  1
9BF507EE-FAF7-4A99-A33D-4EE51894BC40
310
504B03040A0000080000B670623B3DEE336E79000000790000001B0000006175746F6465736B2D64657369676E2D7061636B6167652E786D6C3C3F786D6C2076657273696F6E3D22312E302220656E636F64696E673D227574662D3822203F3E3C666F726D6174733E3C666F726D61743E687474703A2F2F736368656D612E
310
6175746F6465736B2E636F6D2F64657369676E2D7061636B6167652F323030393C2F666F726D61743E3C2F666F726D6174733E504B0304140006080800B670623BD486FD9CA0000000F4000000130000005B436F6E74656E745F54797065735D2E786D6C7D8EC10E82300C865F65E91D8A1E8C310C0EEA1BF002731658846E
310
D98AC1B77784ABF1D8FE5FBFBF75BBCE937A534CCEB38643598122B6FEE978D0B0485F9C41B54DDD7D022595594E1A469170414C76A4D9A4D207E29CF43ECE46F218070CC6BECC4078ACAA135ACF422C856C0E68EA1BF5669944DDD7BCDE7B1F8E415D77AECB980613C2E4AC91FC167A2B244592486606FC29C8FD7F045B9A
310
EF7053A7E60B504B0304140006080800B670623BCA089DFFEC0000007C01000008000000636F72652E786D6C8D90416E83301045AF62CDB632D8402020E32882F604BD80653BC44AB011B6AB1EBF262152BBEB6A467FFE9B197D76FA9EEFE84BAFDE38DB03CD08206DA553C64E3DC470C1474027CE56E7C22F1B202B66DDC3
310
260367D3EAE2B24BD2D9A06D48AA754AEFA2F05E0740F29E9A1EBCBCEA59642286E4F0B76C11F226269DD15797E0188D42CF2346A57DE662F40ABCAEC77628C6120F654571D50C04B7F5B9C1E3997CD4F550BE3745C3F20DE62C98F9755FAE5A04AD801784B498524C8A4F5A75E4D055873772EC0861F966FF03C545FD138A
310
C686B2D8DF7D621E384D8F3C069CE55B16A93C824A75CB8DFF00504B0304140006080800B670623B55019EA25F0000007C00000007000000636E782E786D6C4DCB3B0E80201045D1AD90E915ED2CF8AC45050C11660C8261F98AB1B07AC9C97D42D718D865D3E909258CFD00CCE24AC6E326A164D74DC0B4128928FF326038
310
472BA13128B1252AC747C6BAB984FC68F0B87FE8960A5C09FE86CFB69FBA01504B0304140006080800B670623B68FC0B7272010000D40300000C0000006662782F636F72652E786D6CC5535B6E833010BC8AE5DF0A6C1E8124328E22D29EA01770C0A128602363A31CBFCB234A53A555FA553EC09AD9F5CE8C31DB5DDA060D
310
D2F4B556190E7C8A9154852E6B5565D8D993B7C668C799D1DA7E29C3488956667884316795D1AE5BA0422B2B950554E9522EA0E87B69312A1A5864B82F3E642B7CE12C54F467BF13C55954D20F7CA0A18EB3DE1A1080E621E31BF3D3F1C2C88C73E65C5D2E6C5DC2B4FA544B8379921C36797888BC3C8A032F4E73EA6D927D
310
EA1DF6F42D49F2E8350D5346C666CE6CDD5ED515460A2B4BCC434A375E1078347C0FE22D5D6DE3D50B5D6F2965642CBF6B725DF96493AB958DC245EEDCD6631E809089F8E61622B2A81703E8219C913144F84C09DF070D8140C8561C9BAB8F3340832CAC363130A576376A108D933095FA747AD0CF0B46E64E983A6D0EAE1F
310
CE089F9EF1FB8E70D44255604258581E9D1D75B259C3125A278D37D80B52DAB4A279CEC62F0EFF44DDC43F9454E8469BFF5244960322CBEF41C6FBC83F01504B0304140006080800B670623B0F71DDB67E0000009D0000000B0000006662782F636E782E786D6C4DCCD10A83201886E15B91FFDCA54DB73F502386BB8F5816
310
32D3703976F9ABD1C18E3E78F87855FB990379BBFCF2296AE02706C4C5471A7C9C349475A408A4352AA7B4FEDD80C47E761A7606A3A69CCA72D0E0C6BE8475D3E0E3F3409428EA6B27A84079A782899AA2EC1A7AE3ECCC2FD858CB2D544655BFD2B67BD87C01504B0304140006080800B670623BE134B4FB28010000120200
310
00310000006662782F38353834323741342D343835462D343034322D383541392D4331303331363839454531452F636F72652E786D6C8D515B6EC32010BC0AE22B55850D0EA424C24451959EA0172086A42831583CAA1CBF503B52FB971F16CDCECC0EACD8DFC71BF836215AEF7A481A0C817183D7D65D7A98D3197108F652
310
04EFD31F1A044E8DA6871586525C82CFD3020DDE25E352419DD76601558C264130DCCAA58771F832A36A544E8511AFCDA486ABBA988634A55D7852C4144A00300FA927949C71DABD1D28A29C7D208A6987383B6CD13BC16BB2E1DBE3911C453B0BA5C8D9EA456E758963CFD684674DAA588A64C747FC2118958C86B2C3788B
310
0841B8FB247487D98EB257CC77188BB6D2FF89F2A49F1465EBD2BA5BE2CEB2082511EDDC9042FB7CBA3DC298FBE4430275DE2A9AE1054ADC60CC08E3A29D89E5F9C5714317C7987C28DFBBBA9E0A97B0D97643A568EB864AF95D5FA9759BF207504B0304140006080800B670623B1B8617914E010000330300003000000066
310
62782F38353834323741342D343835462D343034322D383541392D4331303331363839454531452F636E782E786D6CD593C16EC32010447F0571AD6CE3D489D20813A9877E410FBD62D82434182CC055F3F75D1292E692438FBD206B7698593D61BEFD1E2DF982108D773D6D6B460938E5B571FB9ECE6957AD29D90A1EBC4F
310
77364A9C1CA1A759A682EF839FA72269D8C9D92654AD71C72206887E0E0A22CAF926B15E498B01E0AA19451807D01A34B919F16B070157417138917400F2F6FA41FCF0092A45DEE414C19BDC21783E4BD39D891265658C3D8DEA00A3ACE59CBC8678ACB54CB26EEB6BD7839D7E9348BE70AD9C8321B9BCA7F9A4A26C542347
310
DEE050F09802D22BA6749A800A394DD62899107273365E3C82CFC6A55557BC06C10774B7ABE7AEC3B0F34CF06446280E154026D0542C187BA9DAB6628BF7B6DBB0E5A65B3EB1F58631DE64BBE083F7B65CC218087E22CABB042E51D1F2268F1FE12B3EA24D40D63E9CFE00120194D60B9D5BC67FE6D39CDF37E20AF817881F
310
504B0304140006080800B670623B5933D422630500003B100000340000006662782F38353834323741342D343835462D343034322D383541392D4331303331363839454531452F6F626A656374732E786D6CAD575B6FA33814FE2B887D0642934E9B156594264D158D3A534DD4D13E548A0C38942D60649B4EBABF7E3F8321
310
40924EF6928780CDF1B97EE762EFF32E4B8D37CA45C2F21BD3B547A641F39045491EDF98A5DC5AD7A6F1D9F73863B243661A39C9E88DA9B64DDF8B392B0BBD15D12D295339D85DDEFE618890E6D434C2940871638AF08566C426A5641115AF764424B1E3EDCE76ED9AB0CF36E6A47819302D08A7B984A6D8CFC1C5A89572FB
310
CB91E9F89EA3BEFB9EFAD754E3D3544E654F5F7E920B49F2F040D880CDD89D2CEE2E2EA7D6E56432B6269F2E5CEB7679BBB0DCABF168FE693E9FCEEEA6102C240727AD09A75BD3BF876F78127A4EFDA9D5582B7E4CA590E5390D2BFB6161A5B3E618D182E611E2985001691DAB47FDA5AB7CD3F93C566B2DB2BB7D9E55DD13
310
1D468DEECDB3AB290BFE8409E21C54704115AA6AFF68436BFC8DF65E0B184BF5B74418199194272435D224E084BF9B3E481589EFF5D828747285706581E9BB7B7E5D5D911ABFC6EE312DB7659A2A689A7E85EC0DF04FA5A8344BFEA2FCB834E8845895492EAFB541F2BDA0A63FF59C6AD3F7D4637CA13FD68E34B629891172
310
98597F1D183A57B9B75A98FE9765B05BAB7C3C2EBCE0ACA05C2AF8005A4DE09AA7F29216EB9E15397500C6F47CBE77CA7778FE2BD277AF0AE2C693DD6437D1522427B9D8329E2136F6A8FA19A3E6C56ADF0E5F50CF06D48734EDCEBF22F69C56D97EC138153F804B85E6FABFC7AFEFB32E523BE1F3BD372418E363EDCA7548
310
52949E8724474014288D94610BB57C1BEC4C7F854A89CA8E5324F55B871CBC78CE1BBEE3BFE68D6A5589EF3C730474506FCFA8FCF0659516D0ED04580EEA6425581B77CAE797FF4BCECC16EB2FEB926F49481F746159D06D922712BD730FDEAE42BD40F42C7AA5EF3F198F60E86110D6DD20645A9480B795CF95E3E3A659A8
310
C55E724F408873315335CFFB8584874484344D494E59D94869DB90C26A5B64F49C802CAC1D3ABE18A098D3B7444D123D8A9E5AE8F5214F0AE5B2B6E9B575DA3E61CBD3EA2B4009FA940524DD1305FB6A1FB294F14DF0BEA90BA109ECE1481FDC3FFAE8D60E75141700BE82725371B4873751B2DD960265F788137FACE6DD40
310
B575E4F0A5C99F46629D92131467A41EE11ABD8D4CCC039CA0AFB37C93A08B232B8F0AEFCA1E0A1015DF13FC83322B362463652ECF71D3A8B1A7D1BE65DE1D62C44F22C317D35F574FEB16153BA2D13E543D10A80E74C4A65E78A6B7CBCBD1D5DD9DB59C2DAFACC96C3AB566E3F1C29ADCDD5DBAD7D3C9ED7C822ED74F80A6
310
41755310DE4443F44A9E68373FADF6596BFA0F440AE7BECE2727AE9F4F2B1B53B1E7E00CF0DD1E5C65454A339A4BA2D0FBA05ED2EF0443458F47BDBFCA484CCFE0F2ED7E3DD0013B679C7B5499467F0ECEEADDB9CA85A34CE44B99053949D2C1416DB85DE4B136BB7165FBAC0B7AB3542BED4F8CA182A549847A1319316519
310
95A83A67147B9E5101C47487F2485F1ECE38FD568F839204296D3479219888530154036E6528FBFBC66F98E0D4107563A2D7D9AFF8D389681A08F58D89F22693900A3B407754734FC51C10C010D6D640809EE4718AC1BA3ED4AEDB53CA37283F68805A7E4B72CEB0A4EDEAD5DD8C14059A76AFAA56BA6901E13F32BC51C720
310
12AF41295B5BF61BAD3195181FB506E6B40F4C10AF5AF40EF9F5B159AE5DD1F43C72D635E94310D45C2D49785C5D0B94D3B54AB3C5A38349C0587D338AB48C11CBF339599C02CCA54A70A008A8D03C0B2201D5F9EFCF8F9CE12A9A19CB0410789EB32C63B95ECCF455D658BFE0621A3DA32C5075FB101723D77DAE867E7D0F
310
D90444509B44E2151B4DC2290B065803200FBAA9BE9D392A0603F2D5C2D00D6302A615680F66D2FA166E2079D4C551A54AB758161FCEFD4E450A14704CECFEDF504B0304140006080000B670623B000000000000000000000000350000006662782F38353834323741342D343835462D343034322D383541392D4331303331
310
363839454531452F76657274696365732E62696E504B0304140006080800B670623BF270F1330600000004000000360000006662782F38353834323741342D343835462D343034322D383541392D4331303331363839454531452F747269616E676C65732E62696E636660600000504B0304140006080000B670623B000000
310
000000000000000000370000006662782F38353834323741342D343835462D343034322D383541392D4331303331363839454531452F617474726962757465732E62696E504B0304140006080800B670623B08DA0BD19000000041010000360000006662782F38353834323741342D343835462D343034322D383541392D43
310
31303331363839454531452F6469726563746F72792E786D6C858F410AC3201045AF22B36F53E9A60B35CBEEBAE80D244E44489C6234F4F835464A48035D0DF398FF9F8AF63D0E6CC63039F212F8F9020C7D47C6792B21C5FE7403D62A1188E2E60C98D7234A5830286103A55745067B9D86B8A3CF9C7F90C11DE607FB1443
310
96D7B6A82D282E9A152AD114D5EF2CB866EEE831B8EEA07A7BB5A8D7D61A2BAAEB7FD5F70921FF497D00504B0304140006080800B670623BD9A3B367FE000000A00100003B0000006662782F38353834323741342D343835462D343034322D383541392D4331303331363839454531452F7265736F75726365732F636F7265
310
2E786D6C8D504B6E833010BD0A9A6D65B01D0201194711694FD00B586642AD043BF2A7EAF16B122AB5BB6E6646EFA3797AE2F8B5DC8A4FF4C1383B002B291468B59B8C9D0748F1420E501CA5F0CEC55F3228AC5A708015062966EFD27D83B4B3116DCCA875136EA00A012314FA968F0182FEC045952AC5AC08D7F2AEF455CD
310
58B232D3592745883E07289E4FD609D26370C96B0CA27AB252A464A64D63A6FCD35C0C7A904D73EE467EE664DCD58CD4ED4849D79C5A723ED1B7A61977AF2D6F45B59AA58866F9C9A83DAA8813484E6947182394BFB3BAA7FBBEDEBFD0434FA9A856F91F53BA4FFF342563E38E6F719FB60092E5200F428A6AED2BAF479979
310
AFDDCA6F504B010214000A0000080000B670623B3DEE336E79000000790000001B00000000000000000000000000000000006175746F6465736B2D64657369676E2D7061636B6167652E786D6C504B01021400140006080800B670623BD486FD9CA0000000F40000001300000000000000000000000000B20000005B436F6E
310
74656E745F54797065735D2E786D6C504B01021400140006080800B670623BCA089DFFEC0000007C010000080000000000000000000000000083010000636F72652E786D6C504B01021400140006080800B670623B55019EA25F0000007C000000070000000000000000000000000095020000636E782E786D6C504B010214
310
00140006080800B670623B68FC0B7272010000D40300000C00000000000000000000000000190300006662782F636F72652E786D6C504B01021400140006080800B670623B0F71DDB67E0000009D0000000B00000000000000000000000000B50400006662782F636E782E786D6C504B01021400140006080800B670623BE1
310
34B4FB280100001202000031000000000000000000000000005C0500006662782F38353834323741342D343835462D343034322D383541392D4331303331363839454531452F636F72652E786D6C504B01021400140006080800B670623B1B8617914E010000330300003000000000000000000000000000D3060000666278
310
2F38353834323741342D343835462D343034322D383541392D4331303331363839454531452F636E782E786D6C504B01021400140006080800B670623B5933D422630500003B10000034000000000000000000000000006F0800006662782F38353834323741342D343835462D343034322D383541392D4331303331363839
310
454531452F6F626A656374732E786D6C504B01021400140006080000B670623B0000000000000000000000003500000000000000000000000000240E00006662782F38353834323741342D343835462D343034322D383541392D4331303331363839454531452F76657274696365732E62696E504B01021400140006080800
310
B670623BF270F13306000000040000003600000000000000000000000000770E00006662782F38353834323741342D343835462D343034322D383541392D4331303331363839454531452F747269616E676C65732E62696E504B01021400140006080000B670623B0000000000000000000000003700000000000000000000
310
000000D10E00006662782F38353834323741342D343835462D343034322D383541392D4331303331363839454531452F617474726962757465732E62696E504B01021400140006080800B670623B08DA0BD190000000410100003600000000000000000000000000260F00006662782F38353834323741342D343835462D34
310
3034322D383541392D4331303331363839454531452F6469726563746F72792E786D6C504B01021400140006080800B670623BD9A3B367FE000000A00100003B000000000000000000000000000A1000006662782F38353834323741342D343835462D343034322D383541392D4331303331363839454531452F7265736F75
310
726365732F636F72652E786D6C504B0506000000000E000E0080040000611100000000
  0
XRECORD
  5
12
102
{ACAD_REACTORS
330
D
102
}
330
D
100
AcDbXrecord
280
     1
270
     1
271
     1
  0
XRECORD
  5
13
102
{ACAD_REACTORS
330
D
102
}
330
D
100
AcDbXrecord
280
     1
270
     1
271
     1
  0
CELLSTYLEMAP
  5
F1
102
{ACAD_REACTORS
330
4C
102
}
330
4C
100
AcDbCellStyleMap
 90
        3
300
CELLSTYLE
  1
TABLEFORMAT_BEGIN
 90
        5
170
     1
 91
        0
 92
    32768
 62
   257
 93
        1
300
CONTENTFORMAT
  1
CONTENTFORMAT_BEGIN
 90
        0
 91
        0
 92
      512
 93
        0
300

 40
0.0
140
1.0
 94
        5
 62
     0
340
24
144
0.25
309
CONTENTFORMAT_END
171
     1
301
MARGIN
  1
CELLMARGIN_BEGIN
 40
0.06
 40
0.06
 40
0.06
 40
0.06
 40
0.18
 40
0.18
309
CELLMARGIN_END
 94
        6
 95
        1
302
GRIDFORMAT
  1
GRIDFORMAT_BEGIN
 90
        0
 91
        1
 62
     0
 92
       -2
340
0
 93
        0
 40
0.045
309
GRIDFORMAT_END
 95
        2
302
GRIDFORMAT
  1
GRIDFORMAT_BEGIN
 90
        0
 91
        1
 62
     0
 92
       -2
340
0
 93
        0
 40
0.045
309
GRIDFORMAT_END
 95
        4
302
GRIDFORMAT
  1
GRIDFORMAT_BEGIN
 90
        0
 91
        1
 62
     0
 92
       -2
340
0
 93
        0
 40
0.045
309
GRIDFORMAT_END
 95
        8
302
GRIDFORMAT
  1
GRIDFORMAT_BEGIN
 90
        0
 91
        1
 62
     0
 92
       -2
340
0
 93
        0
 40
0.045
309
GRIDFORMAT_END
 95
       16
302
GRIDFORMAT
  1
GRIDFORMAT_BEGIN
 90
        0
 91
        1
 62
     0
 92
       -2
340
0
 93
        0
 40
0.045
309
GRIDFORMAT_END
 95
       32
302
GRIDFORMAT
  1
GRIDFORMAT_BEGIN
 90
        0
 91
        1
 62
     0
 92
       -2
340
0
 93
        0
 40
0.045
309
GRIDFORMAT_END
309
TABLEFORMAT_END
  1
CELLSTYLE_BEGIN
 90
        1
 91
        1
300
_TITLE
309
CELLSTYLE_END
300
CELLSTYLE
  1
TABLEFORMAT_BEGIN
 90
        5
170
     1
 91
        0
 92
        0
 62
   257
 93
        1
300
CONTENTFORMAT
  1
CONTENTFORMAT_BEGIN
 90
        0
 91
        0
 92
      512
 93
        0
300

 40
0.0
140
1.0
 94
        5
 62
     0
340
24
144
0.18
309
CONTENTFORMAT_END
171
     1
301
MARGIN
  1
CELLMARGIN_BEGIN
 40
0.06
 40
0.06
 40
0.06
 40
0.06
 40
0.18
 40
0.18
309
CELLMARGIN_END
 94
        6
 95
        1
302
GRIDFORMAT
  1
GRIDFORMAT_BEGIN
 90
        0
 91
        1
 62
     0
 92
       -2
340
0
 93
        0
 40
0.045
309
GRIDFORMAT_END
 95
        2
302
GRIDFORMAT
  1
GRIDFORMAT_BEGIN
 90
        0
 91
        1
 62
     0
 92
       -2
340
0
 93
        0
 40
0.045
309
GRIDFORMAT_END
 95
        4
302
GRIDFORMAT
  1
GRIDFORMAT_BEGIN
 90
        0
 91
        1
 62
     0
 92
       -2
340
0
 93
        0
 40
0.045
309
GRIDFORMAT_END
 95
        8
302
GRIDFORMAT
  1
GRIDFORMAT_BEGIN
 90
        0
 91
        1
 62
     0
 92
       -2
340
0
 93
        0
 40
0.045
309
GRIDFORMAT_END
 95
       16
302
GRIDFORMAT
  1
GRIDFORMAT_BEGIN
 90
        0
 91
        1
 62
     0
 92
       -2
340
0
 93
        0
 40
0.045
309
GRIDFORMAT_END
 95
       32
302
GRIDFORMAT
  1
GRIDFORMAT_BEGIN
 90
        0
 91
        1
 62
     0
 92
       -2
340
0
 93
        0
 40
0.045
309
GRIDFORMAT_END
309
TABLEFORMAT_END
  1
CELLSTYLE_BEGIN
 90
        2
 91
        1
300
_HEADER
309
CELLSTYLE_END
300
CELLSTYLE
  1
TABLEFORMAT_BEGIN
 90
        5
170
     1
 91
        0
 92
        0
 62
   257
 93
        1
300
CONTENTFORMAT
  1
CONTENTFORMAT_BEGIN
 90
        0
 91
        0
 92
      512
 93
        0
300

 40
0.0
140
1.0
 94
        2
 62
     0
340
24
144
0.18
309
CONTENTFORMAT_END
171
     1
301
MARGIN
  1
CELLMARGIN_BEGIN
 40
0.06
 40
0.06
 40
0.06
 40
0.06
 40
0.18
 40
0.18
309
CELLMARGIN_END
 94
        6
 95
        1
302
GRIDFORMAT
  1
GRIDFORMAT_BEGIN
 90
        0
 91
        1
 62
     0
 92
       -2
340
0
 93
        0
 40
0.045
309
GRIDFORMAT_END
 95
        2
302
GRIDFORMAT
  1
GRIDFORMAT_BEGIN
 90
        0
 91
        1
 62
     0
 92
       -2
340
0
 93
        0
 40
0.045
309
GRIDFORMAT_END
 95
        4
302
GRIDFORMAT
  1
GRIDFORMAT_BEGIN
 90
        0
 91
        1
 62
     0
 92
       -2
340
0
 93
        0
 40
0.045
309
GRIDFORMAT_END
 95
        8
302
GRIDFORMAT
  1
GRIDFORMAT_BEGIN
 90
        0
 91
        1
 62
     0
 92
       -2
340
0
 93
        0
 40
0.045
309
GRIDFORMAT_END
 95
       16
302
GRIDFORMAT
  1
GRIDFORMAT_BEGIN
 90
        0
 91
        1
 62
     0
 92
       -2
340
0
 93
        0
 40
0.045
309
GRIDFORMAT_END
 95
       32
302
GRIDFORMAT
  1
GRIDFORMAT_BEGIN
 90
        0
 91
        1
 62
     0
 92
       -2
340
0
 93
        0
 40
0.045
309
GRIDFORMAT_END
309
TABLEFORMAT_END
  1
CELLSTYLE_BEGIN
 90
        3
 91
        2
300
_DATA
309
CELLSTYLE_END
  0
XRECORD
  5
101
102
{ACAD_REACTORS
330
4C
102
}
330
4C
100
AcDbXrecord
280
     1
102
ACAD_ROUNDTRIP_PRE2007_TABLESTYLE
 90
      512
 91
        0
  1

 92
      512
 93
        0
  2

 94
      512
 95
        0
  3

  0
XRECORD
  5
100
102
{ACAD_REACTORS
330
FF
102
}
330
FF
100
AcDbXrecord
280
     1
102
RTVSPost2010Prop28
280
     1
102
RTVSPost2010PropOp28
 70
     1
102
RTVSPost2010Prop29
280
     1
102
RTVSPost2010PropOp29
 70
     1
102
RTVSPost2010Prop30
280
     0
102
RTVSPost2010PropOp30
 70
     1
102
RTVSPost2010Prop31
280
     0
102
RTVSPost2010PropOp31
 70
     1
102
RTVSPost2010Prop32
280
     0
102
RTVSPost2010PropOp32
 70
     1
102
RTVSPost2010Prop33
280
     0
102
RTVSPost2010PropOp33
 70
     1
102
RTVSPost2010Prop34
280
     0
102
RTVSPost2010PropOp34
 70
     1
102
RTVSPost2010Prop35
280
     0
102
RTVSPost2010PropOp35
 70
     1
102
RTVSPost2010Prop36
280
     0
102
RTVSPost2010PropOp36
 70
     1
102
RTVSPost2010Prop37
 90
       50
102
RTVSPost2010PropOp37
 70
     1
102
RTVSPost2010Prop38
140
0.0
102
RTVSPost2010PropOp38
 70
     1
102
RTVSPost2010Prop39
140
1.0
102
RTVSPost2010PropOp39
 70
     1
102
RTVSPost2010Prop40
 90
        0
102
RTVSPost2010PropOp40
 70
     1
102
RTVSPost2010Prop41ColorIndex
 90
       18
102
RTVSPost2010Prop41ColorRGB
 90
        0
102
RTVSPost2010PropOp41
 70
     1
102
RTVSPost2010Prop42
 90
       50
102
RTVSPost2010PropOp42
 70
     1
102
RTVSPost2010Prop43
 90
        3
102
RTVSPost2010PropOp43
 70
     1
102
RTVSPost2010Prop44ColorIndex
 90
        5
102
RTVSPost2010Prop44ColorRGB
 90
      255
102
RTVSPost2010PropOp44
 70
     1
102
RTVSPost2010Prop45
280
     0
102
RTVSPost2010PropOp45
 70
     1
102
RTVSPost2010Prop46
 90
       50
102
RTVSPost2010PropOp46
 70
     1
102
RTVSPost2010Prop47
 90
       50
102
RTVSPost2010PropOp47
 70
     1
102
RTVSPost2010Prop48
 90
       50
102
RTVSPost2010PropOp48
 70
     1
102
RTVSPost2010Prop49
280
     0
102
RTVSPost2010PropOp49
 70
     1
102
RTVSPost2010Prop50
 90
       50
102
RTVSPost2010PropOp50
 70
     1
102
RTVSPost2010Prop51ColorIndex
 90
      256
102
RTVSPost2010Prop51ColorRGB
 90
-16777216
102
RTVSPost2010PropOp51
 70
     0
102
RTVSPost2010Prop52
140
1.0
102
RTVSPost2010PropOp52
 70
     0
102
RTVSPost2010Prop53
 90
        2
102
RTVSPost2010PropOp53
 70
     1
102
RTVSPost2010Prop54
  1
strokes_ogs.tif
102
RTVSPost2010PropOp54
 70
     1
102
RTVSPost2010Prop55
280
     0
102
RTVSPost2010PropOp55
 70
     1
102
RTVSPost2010Prop56
140
1.0
102
RTVSPost2010PropOp56
 70
     1
102
RTVSPost2010Prop57
140
1.0
102
RTVSPost2010PropOp57
 70
     1
102
RTVSPropertyOp0
 70
     1
102
RTVSPropertyOp1
 70
     1
102
RTVSPropertyOp2
 70
     1
102
RTVSPropertyOp3
 70
     1
102
RTVSPropertyOp4
 70
     1
102
RTVSPropertyOp5
 70
     1
102
RTVSPropertyOp6
 70
     1
102
RTVSPropertyOp7
 70
     1
102
RTVSPropertyOp8
 70
     1
102
RTVSPropertyOp9
 70
     1
102
RTVSPropertyOp10
 70
     1
102
RTVSPropertyOp11
 70
     1
102
RTVSPropertyOp12
 70
     1
102
RTVSPropertyOp13
 70
     1
102
RTVSPropertyOp14
 70
     1
102
RTVSPropertyOp15
 70
     1
102
RTVSPropertyOp16
 70
     1
102
RTVSPropertyOp17
 70
     1
102
RTVSPropertyOp18
 70
     1
102
RTVSPropertyOp19
 70
     1
102
RTVSPropertyOp20
 70
     1
102
RTVSPropertyOp21
 70
     1
102
RTVSPropertyOp22
 70
     1
102
RTVSPropertyOp23
 70
     1
102
RTVSPropertyOp24
 70
     1
102
RTVSPropertyOp25
 70
     1
102
RTVSPropertyOp26
 70
     1
102
RTVSPropertyOp27
 70
     1
102
RTVSPropertyOp28
 70
     1
102
RTVSPropertyOp29
 70
     1
102
RTVSPropertyOp30
 70
     1
102
RTVSPropertyOp31
 70
     1
102
RTVSPropertyOp32
 70
     1
102
RTVSPropertyOp33
 70
     1
102
RTVSPropertyOp34
 70
     1
102
RTVSPropertyOp35
 70
     1
102
RTVSPropertyOp36
 70
     1
102
RTVSPropertyOp37
 70
     1
102
RTVSPropertyOp38
 70
     1
102
RTVSPropertyOp39
 70
     1
102
RTVSPropertyOp40
 70
     1
102
RTVSPropertyOp41
 70
     1
102
RTVSPropertyOp42
 70
     1
102
RTVSPropertyOp43
 70
     1
102
RTVSPropertyOp44
 70
     1
102
RTVSPropertyOp45
 70
     1
102
RTVSPropertyOp46
 70
     1
102
RTVSPropertyOp47
 70
     1
102
RTVSPropertyOp48
 70
     1
102
RTVSPropertyOp49
 70
     1
102
RTVSPropertyOp50
 70
     1
102
RTVSPropertyOp51
 70
     0
102
RTVSPropertyOp52
 70
     0
102
RTVSPropertyOp53
 70
     1
102
RTVSPropertyOp54
 70
     1
102
RTVSPropertyOp55
 70
     1
102
RTVSPropertyOp56
 70
     1
102
RTVSPropertyOp57
 70
     1
102
RTVSPropertyOp58
 70
     1
102
RTVSPropertyOp59
 70
     1
102
RTVSPropertyOp60
 70
     1
102
RTVSPropertyOp61
 70
     1
102
RTVSPropertyOp62
 70
     1
  0
XRECORD
  5
103
102
{ACAD_REACTORS
330
102
102
}
330
102
100
AcDbXrecord
280
     1
102
RTVSPost2010Prop28
280
     0
102
RTVSPost2010PropOp28
 70
     1
102
RTVSPost2010Prop29
280
     1
102
RTVSPost2010PropOp29
 70
     1
102
RTVSPost2010Prop30
280
     1
102
RTVSPost2010PropOp30
 70
     1
102
RTVSPost2010Prop31
280
     0
102
RTVSPost2010PropOp31
 70
     1
102
RTVSPost2010Prop32
280
     0
102
RTVSPost2010PropOp32
 70
     1
102
RTVSPost2010Prop33
280
     0
102
RTVSPost2010PropOp33
 70
     1
102
RTVSPost2010Prop34
280
     0
102
RTVSPost2010PropOp34
 70
     1
102
RTVSPost2010Prop35
280
     0
102
RTVSPost2010PropOp35
 70
     1
102
RTVSPost2010Prop36
280
     0
102
RTVSPost2010PropOp36
 70
     1
102
RTVSPost2010Prop37
 90
       50
102
RTVSPost2010PropOp37
 70
     1
102
RTVSPost2010Prop38
140
0.0
102
RTVSPost2010PropOp38
 70
     1
102
RTVSPost2010Prop39
140
1.0
102
RTVSPost2010PropOp39
 70
     1
102
RTVSPost2010Prop40
 90
        0
102
RTVSPost2010PropOp40
 70
     1
102
RTVSPost2010Prop41ColorIndex
 90
       18
102
RTVSPost2010Prop41ColorRGB
 90
        0
102
RTVSPost2010PropOp41
 70
     1
102
RTVSPost2010Prop42
 90
       50
102
RTVSPost2010PropOp42
 70
     1
102
RTVSPost2010Prop43
 90
        3
102
RTVSPost2010PropOp43
 70
     1
102
RTVSPost2010Prop44ColorIndex
 90
        5
102
RTVSPost2010Prop44ColorRGB
 90
      255
102
RTVSPost2010PropOp44
 70
     1
102
RTVSPost2010Prop45
280
     0
102
RTVSPost2010PropOp45
 70
     1
102
RTVSPost2010Prop46
 90
       50
102
RTVSPost2010PropOp46
 70
     1
102
RTVSPost2010Prop47
 90
       50
102
RTVSPost2010PropOp47
 70
     1
102
RTVSPost2010Prop48
 90
       50
102
RTVSPost2010PropOp48
 70
     1
102
RTVSPost2010Prop49
280
     0
102
RTVSPost2010PropOp49
 70
     1
102
RTVSPost2010Prop50
 90
       50
102
RTVSPost2010PropOp50
 70
     1
102
RTVSPost2010Prop51ColorIndex
 90
      256
102
RTVSPost2010Prop51ColorRGB
 90
-16777216
102
RTVSPost2010PropOp51
 70
     0
102
RTVSPost2010Prop52
140
1.0
102
RTVSPost2010PropOp52
 70
     0
102
RTVSPost2010Prop53
 90
        2
102
RTVSPost2010PropOp53
 70
     1
102
RTVSPost2010Prop54
  1
strokes_ogs.tif
102
RTVSPost2010PropOp54
 70
     1
102
RTVSPost2010Prop55
280
     0
102
RTVSPost2010PropOp55
 70
     1
102
RTVSPost2010Prop56
140
1.0
102
RTVSPost2010PropOp56
 70
     1
102
RTVSPost2010Prop57
140
1.0
102
RTVSPost2010PropOp57
 70
     1
102
RTVSPropertyOp0
 70
     1
102
RTVSPropertyOp1
 70
     1
102
RTVSPropertyOp2
 70
     1
102
RTVSPropertyOp3
 70
     1
102
RTVSPropertyOp4
 70
     1
102
RTVSPropertyOp5
 70
     1
102
RTVSPropertyOp6
 70
     1
102
RTVSPropertyOp7
 70
     1
102
RTVSPropertyOp8
 70
     1
102
RTVSPropertyOp9
 70
     1
102
RTVSPropertyOp10
 70
     1
102
RTVSPropertyOp11
 70
     1
102
RTVSPropertyOp12
 70
     1
102
RTVSPropertyOp13
 70
     1
102
RTVSPropertyOp14
 70
     1
102
RTVSPropertyOp15
 70
     1
102
RTVSPropertyOp16
 70
     1
102
RTVSPropertyOp17
 70
     1
102
RTVSPropertyOp18
 70
     1
102
RTVSPropertyOp19
 70
     1
102
RTVSPropertyOp20
 70
     1
102
RTVSPropertyOp21
 70
     1
102
RTVSPropertyOp22
 70
     1
102
RTVSPropertyOp23
 70
     1
102
RTVSPropertyOp24
 70
     1
102
RTVSPropertyOp25
 70
     1
102
RTVSPropertyOp26
 70
     1
102
RTVSPropertyOp27
 70
     1
102
RTVSPropertyOp28
 70
     1
102
RTVSPropertyOp29
 70
     1
102
RTVSPropertyOp30
 70
     1
102
RTVSPropertyOp31
 70
     1
102
RTVSPropertyOp32
 70
     1
102
RTVSPropertyOp33
 70
     1
102
RTVSPropertyOp34
 70
     1
102
RTVSPropertyOp35
 70
     1
102
RTVSPropertyOp36
 70
     1
102
RTVSPropertyOp37
 70
     1
102
RTVSPropertyOp38
 70
     1
102
RTVSPropertyOp39
 70
     1
102
RTVSPropertyOp40
 70
     1
102
RTVSPropertyOp41
 70
     1
102
RTVSPropertyOp42
 70
     1
102
RTVSPropertyOp43
 70
     1
102
RTVSPropertyOp44
 70
     1
102
RTVSPropertyOp45
 70
     1
102
RTVSPropertyOp46
 70
     1
102
RTVSPropertyOp47
 70
     1
102
RTVSPropertyOp48
 70
     1
102
RTVSPropertyOp49
 70
     1
102
RTVSPropertyOp50
 70
     1
102
RTVSPropertyOp51
 70
     0
102
RTVSPropertyOp52
 70
     0
102
RTVSPropertyOp53
 70
     1
102
RTVSPropertyOp54
 70
     1
102
RTVSPropertyOp55
 70
     1
102
RTVSPropertyOp56
 70
     1
102
RTVSPropertyOp57
 70
     1
102
RTVSPropertyOp58
 70
     1
102
RTVSPropertyOp59
 70
     1
102
RTVSPropertyOp60
 70
     1
102
RTVSPropertyOp61
 70
     1
102
RTVSPropertyOp62
 70
     1
  0
XRECORD
  5
105
102
{ACAD_REACTORS
330
104
102
}
330
104
100
AcDbXrecord
280
     1
102
RTVSPost2010Prop28
280
     0
102
RTVSPost2010PropOp28
 70
     1
102
RTVSPost2010Prop29
280
     1
102
RTVSPost2010PropOp29
 70
     1
102
RTVSPost2010Prop30
280
     1
102
RTVSPost2010PropOp30
 70
     1
102
RTVSPost2010Prop31
280
     0
102
RTVSPost2010PropOp31
 70
     1
102
RTVSPost2010Prop32
280
     0
102
RTVSPost2010PropOp32
 70
     1
102
RTVSPost2010Prop33
280
     0
102
RTVSPost2010PropOp33
 70
     1
102
RTVSPost2010Prop34
280
     0
102
RTVSPost2010PropOp34
 70
     1
102
RTVSPost2010Prop35
280
     0
102
RTVSPost2010PropOp35
 70
     1
102
RTVSPost2010Prop36
280
     0
102
RTVSPost2010PropOp36
 70
     1
102
RTVSPost2010Prop37
 90
       50
102
RTVSPost2010PropOp37
 70
     1
102
RTVSPost2010Prop38
140
0.0
102
RTVSPost2010PropOp38
 70
     1
102
RTVSPost2010Prop39
140
1.0
102
RTVSPost2010PropOp39
 70
     1
102
RTVSPost2010Prop40
 90
        0
102
RTVSPost2010PropOp40
 70
     1
102
RTVSPost2010Prop41ColorIndex
 90
       18
102
RTVSPost2010Prop41ColorRGB
 90
        0
102
RTVSPost2010PropOp41
 70
     1
102
RTVSPost2010Prop42
 90
       50
102
RTVSPost2010PropOp42
 70
     1
102
RTVSPost2010Prop43
 90
        3
102
RTVSPost2010PropOp43
 70
     1
102
RTVSPost2010Prop44ColorIndex
 90
        5
102
RTVSPost2010Prop44ColorRGB
 90
      255
102
RTVSPost2010PropOp44
 70
     1
102
RTVSPost2010Prop45
280
     0
102
RTVSPost2010PropOp45
 70
     1
102
RTVSPost2010Prop46
 90
       50
102
RTVSPost2010PropOp46
 70
     1
102
RTVSPost2010Prop47
 90
       50
102
RTVSPost2010PropOp47
 70
     1
102
RTVSPost2010Prop48
 90
       50
102
RTVSPost2010PropOp48
 70
     1
102
RTVSPost2010Prop49
280
     0
102
RTVSPost2010PropOp49
 70
     1
102
RTVSPost2010Prop50
 90
       50
102
RTVSPost2010PropOp50
 70
     1
102
RTVSPost2010Prop51ColorIndex
 90
      256
102
RTVSPost2010Prop51ColorRGB
 90
-16777216
102
RTVSPost2010PropOp51
 70
     0
102
RTVSPost2010Prop52
140
1.0
102
RTVSPost2010PropOp52
 70
     0
102
RTVSPost2010Prop53
 90
        2
102
RTVSPost2010PropOp53
 70
     1
102
RTVSPost2010Prop54
  1
strokes_ogs.tif
102
RTVSPost2010PropOp54
 70
     1
102
RTVSPost2010Prop55
280
     0
102
RTVSPost2010PropOp55
 70
     1
102
RTVSPost2010Prop56
140
1.0
102
RTVSPost2010PropOp56
 70
     1
102
RTVSPost2010Prop57
140
1.0
102
RTVSPost2010PropOp57
 70
     1
102
RTVSPropertyOp0
 70
     1
102
RTVSPropertyOp1
 70
     1
102
RTVSPropertyOp2
 70
     1
102
RTVSPropertyOp3
 70
     1
102
RTVSPropertyOp4
 70
     1
102
RTVSPropertyOp5
 70
     1
102
RTVSPropertyOp6
 70
     1
102
RTVSPropertyOp7
 70
     1
102
RTVSPropertyOp8
 70
     1
102
RTVSPropertyOp9
 70
     1
102
RTVSPropertyOp10
 70
     1
102
RTVSPropertyOp11
 70
     1
102
RTVSPropertyOp12
 70
     1
102
RTVSPropertyOp13
 70
     1
102
RTVSPropertyOp14
 70
     1
102
RTVSPropertyOp15
 70
     1
102
RTVSPropertyOp16
 70
     1
102
RTVSPropertyOp17
 70
     1
102
RTVSPropertyOp18
 70
     1
102
RTVSPropertyOp19
 70
     1
102
RTVSPropertyOp20
 70
     1
102
RTVSPropertyOp21
 70
     1
102
RTVSPropertyOp22
 70
     1
102
RTVSPropertyOp23
 70
     1
102
RTVSPropertyOp24
 70
     1
102
RTVSPropertyOp25
 70
     1
102
RTVSPropertyOp26
 70
     1
102
RTVSPropertyOp27
 70
     1
102
RTVSPropertyOp28
 70
     1
102
RTVSPropertyOp29
 70
     1
102
RTVSPropertyOp30
 70
     1
102
RTVSPropertyOp31
 70
     1
102
RTVSPropertyOp32
 70
     1
102
RTVSPropertyOp33
 70
     1
102
RTVSPropertyOp34
 70
     1
102
RTVSPropertyOp35
 70
     1
102
RTVSPropertyOp36
 70
     1
102
RTVSPropertyOp37
 70
     1
102
RTVSPropertyOp38
 70
     1
102
RTVSPropertyOp39
 70
     1
102
RTVSPropertyOp40
 70
     1
102
RTVSPropertyOp41
 70
     1
102
RTVSPropertyOp42
 70
     1
102
RTVSPropertyOp43
 70
     1
102
RTVSPropertyOp44
 70
     1
102
RTVSPropertyOp45
 70
     1
102
RTVSPropertyOp46
 70
     1
102
RTVSPropertyOp47
 70
     1
102
RTVSPropertyOp48
 70
     1
102
RTVSPropertyOp49
 70
     1
102
RTVSPropertyOp50
 70
     1
102
RTVSPropertyOp51
 70
     0
102
RTVSPropertyOp52
 70
     0
102
RTVSPropertyOp53
 70
     1
102
RTVSPropertyOp54
 70
     1
102
RTVSPropertyOp55
 70
     1
102
RTVSPropertyOp56
 70
     1
102
RTVSPropertyOp57
 70
     1
102
RTVSPropertyOp58
 70
     1
102
RTVSPropertyOp59
 70
     1
102
RTVSPropertyOp60
 70
     1
102
RTVSPropertyOp61
 70
     1
102
RTVSPropertyOp62
 70
     1
  0
ENDSEC
  0
EOF
